M48
; DRILL file {KiCad (6.0.5-0)} date 2022 November 17, Thursday 16:11:58
; FORMAT={-:-/ absolute / metric / decimal}
; #@! TF.CreationDate,2022-11-17T16:11:58+01:00
; #@! TF.GenerationSoftware,Kicad,Pcbnew,(6.0.5-0)
; #@! TF.FileFunction,Plated,1,2,PTH
FMAT,2
METRIC
; #@! TA.AperFunction,Plated,PTH,ViaDrill
T1C0.300
; #@! TA.AperFunction,Plated,PTH,ViaDrill
T2C0.400
; #@! TA.AperFunction,Plated,PTH,ViaDrill
T3C0.600
; #@! TA.AperFunction,Plated,PTH,ComponentDrill
T4C1.000
; #@! TA.AperFunction,Plated,PTH,ComponentDrill
T5C2.400
%
G90
G05
T1
X51.9Y-81.1
X51.901Y-81.9
X52.2Y-29.4
X60.4Y-95.351
X65.909Y-96.066
X66.562Y-96.527
X67.304Y-96.956
X87.4Y-85.1
X87.9Y-94.359
X90.7Y-83.8
X90.7Y-92.1
X90.974Y-93.633
X91.5Y-83.8
X92.112Y-93.876
X92.3Y-80.6
X92.6Y-92.2
X93.1Y-80.6
X93.5Y-92.1
X93.524Y-71.8
X94.4Y-92.1
T2
X84.5Y-87.5
X93.5Y-72.9
T3
X43.7Y-44.4
X44.4Y-83.9
X47.5Y-105.4
X51.0Y-70.7
X53.5Y-87.005
X59.8Y-86.4
X62.3Y-92.2
X67.9Y-83.2
X81.2Y-87.475
X83.3Y-35.2
X83.6Y-44.3
X83.6Y-53.3
X83.6Y-62.2
X84.0Y-90.3
X86.689Y-93.709
X93.6Y-93.226
X95.3Y-79.8
X95.9Y-92.5
X96.0Y-31.9
X96.877Y-84.4
T4
X52.6Y-74.46
X52.6Y-77.0
X55.14Y-74.46
X55.14Y-77.0
X57.68Y-74.46
X57.68Y-77.0
X60.22Y-74.46
X60.22Y-77.0
X62.76Y-74.46
X62.76Y-77.0
X65.3Y-74.46
X65.3Y-77.0
X67.84Y-74.46
X67.84Y-77.0
X70.38Y-74.46
X70.38Y-77.0
X72.92Y-74.46
X72.92Y-77.0
X75.46Y-74.46
X75.46Y-77.0
X78.0Y-74.46
X78.0Y-77.0
X80.54Y-74.46
X80.54Y-77.0
X83.08Y-74.46
X83.08Y-77.0
X85.62Y-74.46
X85.62Y-77.0
T5
X94.15Y-96.7
X94.15Y-109.4
T0
M30
