%TF.GenerationSoftware,KiCad,Pcbnew,(6.0.5-0)*%
%TF.CreationDate,2022-11-17T16:29:29+01:00*%
%TF.ProjectId,25pix,32357069-782e-46b6-9963-61645f706362,v0.1*%
%TF.SameCoordinates,Original*%
%TF.FileFunction,Paste,Top*%
%TF.FilePolarity,Positive*%
%FSLAX46Y46*%
G04 Gerber Fmt 4.6, Leading zero omitted, Abs format (unit mm)*
G04 Created by KiCad (PCBNEW (6.0.5-0)) date 2022-11-17 16:29:29*
%MOMM*%
%LPD*%
G01*
G04 APERTURE LIST*
G04 Aperture macros list*
%AMRoundRect*
0 Rectangle with rounded corners*
0 $1 Rounding radius*
0 $2 $3 $4 $5 $6 $7 $8 $9 X,Y pos of 4 corners*
0 Add a 4 corners polygon primitive as box body*
4,1,4,$2,$3,$4,$5,$6,$7,$8,$9,$2,$3,0*
0 Add four circle primitives for the rounded corners*
1,1,$1+$1,$2,$3*
1,1,$1+$1,$4,$5*
1,1,$1+$1,$6,$7*
1,1,$1+$1,$8,$9*
0 Add four rect primitives between the rounded corners*
20,1,$1+$1,$2,$3,$4,$5,0*
20,1,$1+$1,$4,$5,$6,$7,0*
20,1,$1+$1,$6,$7,$8,$9,0*
20,1,$1+$1,$8,$9,$2,$3,0*%
G04 Aperture macros list end*
%ADD10R,1.000000X0.750000*%
%ADD11RoundRect,0.225000X-0.250000X0.225000X-0.250000X-0.225000X0.250000X-0.225000X0.250000X0.225000X0*%
%ADD12RoundRect,0.225000X0.225000X0.250000X-0.225000X0.250000X-0.225000X-0.250000X0.225000X-0.250000X0*%
%ADD13R,1.500000X1.000000*%
%ADD14RoundRect,0.225000X0.250000X-0.225000X0.250000X0.225000X-0.250000X0.225000X-0.250000X-0.225000X0*%
%ADD15RoundRect,0.225000X-0.225000X-0.250000X0.225000X-0.250000X0.225000X0.250000X-0.225000X0.250000X0*%
%ADD16RoundRect,0.200000X-0.275000X0.200000X-0.275000X-0.200000X0.275000X-0.200000X0.275000X0.200000X0*%
%ADD17R,0.600000X0.450000*%
%ADD18RoundRect,0.200000X-0.200000X-0.275000X0.200000X-0.275000X0.200000X0.275000X-0.200000X0.275000X0*%
%ADD19R,1.200000X1.400000*%
%ADD20RoundRect,0.200000X0.200000X0.275000X-0.200000X0.275000X-0.200000X-0.275000X0.200000X-0.275000X0*%
%ADD21RoundRect,0.200000X0.275000X-0.200000X0.275000X0.200000X-0.275000X0.200000X-0.275000X-0.200000X0*%
%ADD22R,1.600000X0.550000*%
%ADD23R,0.550000X1.600000*%
%ADD24R,1.500000X2.000000*%
%ADD25R,3.800000X2.000000*%
%ADD26R,1.200000X4.000000*%
%ADD27R,1.100000X0.700000*%
%ADD28R,0.800000X1.000000*%
%ADD29RoundRect,0.150000X-0.825000X-0.150000X0.825000X-0.150000X0.825000X0.150000X-0.825000X0.150000X0*%
%ADD30R,1.300000X1.300000*%
%ADD31R,2.000000X1.300000*%
G04 APERTURE END LIST*
D10*
X53000000Y-103125000D03*
X59000000Y-103125000D03*
X53000000Y-106875000D03*
X59000000Y-106875000D03*
D11*
X96800000Y-88725000D03*
X96800000Y-90275000D03*
D12*
X78975000Y-90300000D03*
X77425000Y-90300000D03*
D13*
X58550000Y-29400000D03*
X58550000Y-32600000D03*
X63450000Y-32600000D03*
X63450000Y-29400000D03*
X49550000Y-56400000D03*
X49550000Y-59600000D03*
X54450000Y-59600000D03*
X54450000Y-56400000D03*
X58550000Y-65400000D03*
X58550000Y-68600000D03*
X63450000Y-68600000D03*
X63450000Y-65400000D03*
X67550000Y-56400000D03*
X67550000Y-59600000D03*
X72450000Y-59600000D03*
X72450000Y-56400000D03*
D12*
X90975000Y-43800000D03*
X89425000Y-43800000D03*
D14*
X96800000Y-87075000D03*
X96800000Y-85525000D03*
D13*
X76550000Y-47400000D03*
X76550000Y-50600000D03*
X81450000Y-50600000D03*
X81450000Y-47400000D03*
X67550000Y-47400000D03*
X67550000Y-50600000D03*
X72450000Y-50600000D03*
X72450000Y-47400000D03*
X76550000Y-38400000D03*
X76550000Y-41600000D03*
X81450000Y-41600000D03*
X81450000Y-38400000D03*
X85550000Y-47400000D03*
X85550000Y-50600000D03*
X90450000Y-50600000D03*
X90450000Y-47400000D03*
D15*
X77425000Y-84300000D03*
X78975000Y-84300000D03*
D16*
X56000000Y-98175000D03*
X56000000Y-99825000D03*
D11*
X58400000Y-82925000D03*
X58400000Y-84475000D03*
X89900000Y-74025000D03*
X89900000Y-75575000D03*
D12*
X90975000Y-34700000D03*
X89425000Y-34700000D03*
D13*
X49550000Y-29400000D03*
X49550000Y-32600000D03*
X54450000Y-32600000D03*
X54450000Y-29400000D03*
D10*
X53000000Y-91125000D03*
X59000000Y-91125000D03*
X53000000Y-94875000D03*
X59000000Y-94875000D03*
D13*
X58550000Y-38400000D03*
X58550000Y-41600000D03*
X63450000Y-41600000D03*
X63450000Y-38400000D03*
D17*
X43950000Y-59300000D03*
X41850000Y-59300000D03*
D18*
X90975000Y-77900000D03*
X92625000Y-77900000D03*
D13*
X58550000Y-56400000D03*
X58550000Y-59600000D03*
X63450000Y-59600000D03*
X63450000Y-56400000D03*
X49550000Y-38400000D03*
X49550000Y-41600000D03*
X54450000Y-41600000D03*
X54450000Y-38400000D03*
X76550000Y-29400000D03*
X76550000Y-32600000D03*
X81450000Y-32600000D03*
X81450000Y-29400000D03*
D19*
X77150000Y-86200000D03*
X77150000Y-88400000D03*
X78850000Y-88400000D03*
X78850000Y-86200000D03*
D11*
X91600000Y-74025000D03*
X91600000Y-75575000D03*
D10*
X46780000Y-97125000D03*
X52780000Y-97125000D03*
X46780000Y-100875000D03*
X52780000Y-100875000D03*
D15*
X44725000Y-80700000D03*
X46275000Y-80700000D03*
D13*
X67550000Y-29400000D03*
X67550000Y-32600000D03*
X72450000Y-32600000D03*
X72450000Y-29400000D03*
D12*
X90975000Y-61800000D03*
X89425000Y-61800000D03*
D13*
X76550000Y-56400000D03*
X76550000Y-59600000D03*
X81450000Y-59600000D03*
X81450000Y-56400000D03*
X58550000Y-47400000D03*
X58550000Y-50600000D03*
X63450000Y-50600000D03*
X63450000Y-47400000D03*
D11*
X89900000Y-70825000D03*
X89900000Y-72375000D03*
D13*
X67550000Y-38400000D03*
X67550000Y-41600000D03*
X72450000Y-41600000D03*
X72450000Y-38400000D03*
X67550000Y-65400000D03*
X67550000Y-68600000D03*
X72450000Y-68600000D03*
X72450000Y-65400000D03*
D20*
X95725000Y-77900000D03*
X94075000Y-77900000D03*
D11*
X82400000Y-84525000D03*
X82400000Y-86075000D03*
D21*
X48800000Y-84525000D03*
X48800000Y-82875000D03*
D22*
X86050000Y-83500000D03*
X86050000Y-84300000D03*
X86050000Y-85100000D03*
X86050000Y-85900000D03*
X86050000Y-86700000D03*
X86050000Y-87500000D03*
X86050000Y-88300000D03*
X86050000Y-89100000D03*
D23*
X87500000Y-90550000D03*
X88300000Y-90550000D03*
X89100000Y-90550000D03*
X89900000Y-90550000D03*
X90700000Y-90550000D03*
X91500000Y-90550000D03*
X92300000Y-90550000D03*
X93100000Y-90550000D03*
D22*
X94550000Y-89100000D03*
X94550000Y-88300000D03*
X94550000Y-87500000D03*
X94550000Y-86700000D03*
X94550000Y-85900000D03*
X94550000Y-85100000D03*
X94550000Y-84300000D03*
X94550000Y-83500000D03*
D23*
X93100000Y-82050000D03*
X92300000Y-82050000D03*
X91500000Y-82050000D03*
X90700000Y-82050000D03*
X89900000Y-82050000D03*
X89100000Y-82050000D03*
X88300000Y-82050000D03*
X87500000Y-82050000D03*
D13*
X85550000Y-38400000D03*
X85550000Y-41600000D03*
X90450000Y-41600000D03*
X90450000Y-38400000D03*
X85550000Y-29400000D03*
X85550000Y-32600000D03*
X90450000Y-32600000D03*
X90450000Y-29400000D03*
D10*
X59237500Y-97125000D03*
X65237500Y-97125000D03*
X59237500Y-100875000D03*
X65237500Y-100875000D03*
D13*
X49550000Y-65400000D03*
X49550000Y-68600000D03*
X54450000Y-68600000D03*
X54450000Y-65400000D03*
X85550000Y-65400000D03*
X85550000Y-68600000D03*
X90450000Y-68600000D03*
X90450000Y-65400000D03*
D11*
X80800000Y-84525000D03*
X80800000Y-86075000D03*
D24*
X47000000Y-72050000D03*
X44700000Y-72050000D03*
D25*
X44700000Y-78350000D03*
D24*
X42400000Y-72050000D03*
D26*
X64400000Y-110000000D03*
X75600000Y-110000000D03*
D13*
X76550000Y-65400000D03*
X76550000Y-68600000D03*
X81450000Y-68600000D03*
X81450000Y-65400000D03*
D27*
X45250000Y-62850000D03*
X45250000Y-65850000D03*
X45250000Y-67350000D03*
D28*
X44350000Y-61350000D03*
X44350000Y-68850000D03*
X42050000Y-61350000D03*
X42050000Y-68850000D03*
D29*
X51025000Y-82995000D03*
X51025000Y-84265000D03*
X51025000Y-85535000D03*
X51025000Y-86805000D03*
X55975000Y-86805000D03*
X55975000Y-85535000D03*
X55975000Y-84265000D03*
X55975000Y-82995000D03*
D12*
X90975000Y-52800000D03*
X89425000Y-52800000D03*
D10*
X84000000Y-97125000D03*
X90000000Y-97125000D03*
X84000000Y-100875000D03*
X90000000Y-100875000D03*
D13*
X85550000Y-56400000D03*
X85550000Y-59600000D03*
X90450000Y-59600000D03*
X90450000Y-56400000D03*
D30*
X96950000Y-64450000D03*
D31*
X95800000Y-69950000D03*
D30*
X94650000Y-64450000D03*
D13*
X49550000Y-47400000D03*
X49550000Y-50600000D03*
X54450000Y-50600000D03*
X54450000Y-47400000D03*
D21*
X91600000Y-72425000D03*
X91600000Y-70775000D03*
M02*
