%TF.GenerationSoftware,KiCad,Pcbnew,(6.0.5-0)*%
%TF.CreationDate,2022-11-17T16:29:29+01:00*%
%TF.ProjectId,25pix,32357069-782e-46b6-9963-61645f706362,v0.1*%
%TF.SameCoordinates,Original*%
%TF.FileFunction,Legend,Bot*%
%TF.FilePolarity,Positive*%
%FSLAX46Y46*%
G04 Gerber Fmt 4.6, Leading zero omitted, Abs format (unit mm)*
G04 Created by KiCad (PCBNEW (6.0.5-0)) date 2022-11-17 16:29:29*
%MOMM*%
%LPD*%
G01*
G04 APERTURE LIST*
%ADD10C,0.150000*%
%ADD11C,0.300000*%
%ADD12C,0.120000*%
%ADD13R,1.700000X1.700000*%
%ADD14O,1.700000X1.700000*%
%ADD15C,0.900000*%
%ADD16C,2.600000*%
%ADD17R,3.000000X3.000000*%
%ADD18C,3.000000*%
G04 APERTURE END LIST*
D10*
X70852380Y-70552380D02*
X69852380Y-70552380D01*
X70566666Y-70885714D01*
X69852380Y-71219047D01*
X70852380Y-71219047D01*
X70852380Y-71695238D02*
X69852380Y-71695238D01*
X70804761Y-72123809D02*
X70852380Y-72266666D01*
X70852380Y-72504761D01*
X70804761Y-72600000D01*
X70757142Y-72647619D01*
X70661904Y-72695238D01*
X70566666Y-72695238D01*
X70471428Y-72647619D01*
X70423809Y-72600000D01*
X70376190Y-72504761D01*
X70328571Y-72314285D01*
X70280952Y-72219047D01*
X70233333Y-72171428D01*
X70138095Y-72123809D01*
X70042857Y-72123809D01*
X69947619Y-72171428D01*
X69900000Y-72219047D01*
X69852380Y-72314285D01*
X69852380Y-72552380D01*
X69900000Y-72695238D01*
X65752380Y-79704761D02*
X65276190Y-79371428D01*
X65752380Y-79133333D02*
X64752380Y-79133333D01*
X64752380Y-79514285D01*
X64800000Y-79609523D01*
X64847619Y-79657142D01*
X64942857Y-79704761D01*
X65085714Y-79704761D01*
X65180952Y-79657142D01*
X65228571Y-79609523D01*
X65276190Y-79514285D01*
X65276190Y-79133333D01*
X65752380Y-80133333D02*
X64752380Y-80133333D01*
X65228571Y-80133333D02*
X65228571Y-80704761D01*
X65752380Y-80704761D02*
X64752380Y-80704761D01*
X64752380Y-81038095D02*
X64752380Y-81609523D01*
X65752380Y-81323809D02*
X64752380Y-81323809D01*
X68304761Y-79157142D02*
X68352380Y-79300000D01*
X68352380Y-79538095D01*
X68304761Y-79633333D01*
X68257142Y-79680952D01*
X68161904Y-79728571D01*
X68066666Y-79728571D01*
X67971428Y-79680952D01*
X67923809Y-79633333D01*
X67876190Y-79538095D01*
X67828571Y-79347619D01*
X67780952Y-79252380D01*
X67733333Y-79204761D01*
X67638095Y-79157142D01*
X67542857Y-79157142D01*
X67447619Y-79204761D01*
X67400000Y-79252380D01*
X67352380Y-79347619D01*
X67352380Y-79585714D01*
X67400000Y-79728571D01*
X67828571Y-80157142D02*
X67828571Y-80490476D01*
X68352380Y-80633333D02*
X68352380Y-80157142D01*
X67352380Y-80157142D01*
X67352380Y-80633333D01*
X68352380Y-81538095D02*
X68352380Y-81061904D01*
X67352380Y-81061904D01*
X52152380Y-79609523D02*
X52152380Y-79133333D01*
X52628571Y-79085714D01*
X52580952Y-79133333D01*
X52533333Y-79228571D01*
X52533333Y-79466666D01*
X52580952Y-79561904D01*
X52628571Y-79609523D01*
X52723809Y-79657142D01*
X52961904Y-79657142D01*
X53057142Y-79609523D01*
X53104761Y-79561904D01*
X53152380Y-79466666D01*
X53152380Y-79228571D01*
X53104761Y-79133333D01*
X53057142Y-79085714D01*
X52152380Y-79942857D02*
X53152380Y-80276190D01*
X52152380Y-80609523D01*
X85100000Y-79638095D02*
X85052380Y-79542857D01*
X85052380Y-79400000D01*
X85100000Y-79257142D01*
X85195238Y-79161904D01*
X85290476Y-79114285D01*
X85480952Y-79066666D01*
X85623809Y-79066666D01*
X85814285Y-79114285D01*
X85909523Y-79161904D01*
X86004761Y-79257142D01*
X86052380Y-79400000D01*
X86052380Y-79495238D01*
X86004761Y-79638095D01*
X85957142Y-79685714D01*
X85623809Y-79685714D01*
X85623809Y-79495238D01*
X86052380Y-80114285D02*
X85052380Y-80114285D01*
X86052380Y-80685714D01*
X85052380Y-80685714D01*
X86052380Y-81161904D02*
X85052380Y-81161904D01*
X85052380Y-81400000D01*
X85100000Y-81542857D01*
X85195238Y-81638095D01*
X85290476Y-81685714D01*
X85480952Y-81733333D01*
X85623809Y-81733333D01*
X85814285Y-81685714D01*
X85909523Y-81638095D01*
X86004761Y-81542857D01*
X86052380Y-81400000D01*
X86052380Y-81161904D01*
X83266666Y-71085714D02*
X83266666Y-71561904D01*
X83552380Y-70990476D02*
X82552380Y-71323809D01*
X83552380Y-71657142D01*
X82552380Y-72180952D02*
X82552380Y-72276190D01*
X82600000Y-72371428D01*
X82647619Y-72419047D01*
X82742857Y-72466666D01*
X82933333Y-72514285D01*
X83171428Y-72514285D01*
X83361904Y-72466666D01*
X83457142Y-72419047D01*
X83504761Y-72371428D01*
X83552380Y-72276190D01*
X83552380Y-72180952D01*
X83504761Y-72085714D01*
X83457142Y-72038095D01*
X83361904Y-71990476D01*
X83171428Y-71942857D01*
X82933333Y-71942857D01*
X82742857Y-71990476D01*
X82647619Y-72038095D01*
X82600000Y-72085714D01*
X82552380Y-72180952D01*
X80952380Y-70952380D02*
X80476190Y-70619047D01*
X80952380Y-70380952D02*
X79952380Y-70380952D01*
X79952380Y-70761904D01*
X80000000Y-70857142D01*
X80047619Y-70904761D01*
X80142857Y-70952380D01*
X80285714Y-70952380D01*
X80380952Y-70904761D01*
X80428571Y-70857142D01*
X80476190Y-70761904D01*
X80476190Y-70380952D01*
X80904761Y-71333333D02*
X80952380Y-71476190D01*
X80952380Y-71714285D01*
X80904761Y-71809523D01*
X80857142Y-71857142D01*
X80761904Y-71904761D01*
X80666666Y-71904761D01*
X80571428Y-71857142D01*
X80523809Y-71809523D01*
X80476190Y-71714285D01*
X80428571Y-71523809D01*
X80380952Y-71428571D01*
X80333333Y-71380952D01*
X80238095Y-71333333D01*
X80142857Y-71333333D01*
X80047619Y-71380952D01*
X80000000Y-71428571D01*
X79952380Y-71523809D01*
X79952380Y-71761904D01*
X80000000Y-71904761D01*
X79952380Y-72190476D02*
X79952380Y-72761904D01*
X80952380Y-72476190D02*
X79952380Y-72476190D01*
X58152380Y-71200000D02*
X58152380Y-70723809D01*
X57152380Y-70723809D01*
X57628571Y-71866666D02*
X57628571Y-71533333D01*
X58152380Y-71533333D02*
X57152380Y-71533333D01*
X57152380Y-72009523D01*
X57152380Y-72247619D02*
X57152380Y-72819047D01*
X58152380Y-72533333D02*
X57152380Y-72533333D01*
X77428571Y-86357142D02*
X77476190Y-86404761D01*
X77619047Y-86452380D01*
X77714285Y-86452380D01*
X77857142Y-86404761D01*
X77952380Y-86309523D01*
X78000000Y-86214285D01*
X78047619Y-86023809D01*
X78047619Y-85880952D01*
X78000000Y-85690476D01*
X77952380Y-85595238D01*
X77857142Y-85500000D01*
X77714285Y-85452380D01*
X77619047Y-85452380D01*
X77476190Y-85500000D01*
X77428571Y-85547619D01*
X76428571Y-86357142D02*
X76476190Y-86404761D01*
X76619047Y-86452380D01*
X76714285Y-86452380D01*
X76857142Y-86404761D01*
X76952380Y-86309523D01*
X77000000Y-86214285D01*
X77047619Y-86023809D01*
X77047619Y-85880952D01*
X77000000Y-85690476D01*
X76952380Y-85595238D01*
X76857142Y-85500000D01*
X76714285Y-85452380D01*
X76619047Y-85452380D01*
X76476190Y-85500000D01*
X76428571Y-85547619D01*
X75809523Y-85452380D02*
X75714285Y-85452380D01*
X75619047Y-85500000D01*
X75571428Y-85547619D01*
X75523809Y-85642857D01*
X75476190Y-85833333D01*
X75476190Y-86071428D01*
X75523809Y-86261904D01*
X75571428Y-86357142D01*
X75619047Y-86404761D01*
X75714285Y-86452380D01*
X75809523Y-86452380D01*
X75904761Y-86404761D01*
X75952380Y-86357142D01*
X76000000Y-86261904D01*
X76047619Y-86071428D01*
X76047619Y-85833333D01*
X76000000Y-85642857D01*
X75952380Y-85547619D01*
X75904761Y-85500000D01*
X75809523Y-85452380D01*
X74285714Y-86071428D02*
X73523809Y-86071428D01*
X72285714Y-85785714D02*
X72285714Y-86785714D01*
X72285714Y-85833333D02*
X72190476Y-85785714D01*
X72000000Y-85785714D01*
X71904761Y-85833333D01*
X71857142Y-85880952D01*
X71809523Y-85976190D01*
X71809523Y-86261904D01*
X71857142Y-86357142D01*
X71904761Y-86404761D01*
X72000000Y-86452380D01*
X72190476Y-86452380D01*
X72285714Y-86404761D01*
X70952380Y-85785714D02*
X70952380Y-86452380D01*
X71380952Y-85785714D02*
X71380952Y-86309523D01*
X71333333Y-86404761D01*
X71238095Y-86452380D01*
X71095238Y-86452380D01*
X71000000Y-86404761D01*
X70952380Y-86357142D01*
X70476190Y-86452380D02*
X70476190Y-85452380D01*
X70476190Y-85833333D02*
X70380952Y-85785714D01*
X70190476Y-85785714D01*
X70095238Y-85833333D01*
X70047619Y-85880952D01*
X70000000Y-85976190D01*
X70000000Y-86261904D01*
X70047619Y-86357142D01*
X70095238Y-86404761D01*
X70190476Y-86452380D01*
X70380952Y-86452380D01*
X70476190Y-86404761D01*
X69428571Y-86452380D02*
X69523809Y-86404761D01*
X69571428Y-86309523D01*
X69571428Y-85452380D01*
X69047619Y-86452380D02*
X69047619Y-85785714D01*
X69047619Y-85452380D02*
X69095238Y-85500000D01*
X69047619Y-85547619D01*
X69000000Y-85500000D01*
X69047619Y-85452380D01*
X69047619Y-85547619D01*
X68142857Y-86404761D02*
X68238095Y-86452380D01*
X68428571Y-86452380D01*
X68523809Y-86404761D01*
X68571428Y-86357142D01*
X68619047Y-86261904D01*
X68619047Y-85976190D01*
X68571428Y-85880952D01*
X68523809Y-85833333D01*
X68428571Y-85785714D01*
X68238095Y-85785714D01*
X68142857Y-85833333D01*
X66523809Y-86452380D02*
X66523809Y-85452380D01*
X66523809Y-86404761D02*
X66619047Y-86452380D01*
X66809523Y-86452380D01*
X66904761Y-86404761D01*
X66952380Y-86357142D01*
X67000000Y-86261904D01*
X67000000Y-85976190D01*
X66952380Y-85880952D01*
X66904761Y-85833333D01*
X66809523Y-85785714D01*
X66619047Y-85785714D01*
X66523809Y-85833333D01*
X65904761Y-86452380D02*
X66000000Y-86404761D01*
X66047619Y-86357142D01*
X66095238Y-86261904D01*
X66095238Y-85976190D01*
X66047619Y-85880952D01*
X66000000Y-85833333D01*
X65904761Y-85785714D01*
X65761904Y-85785714D01*
X65666666Y-85833333D01*
X65619047Y-85880952D01*
X65571428Y-85976190D01*
X65571428Y-86261904D01*
X65619047Y-86357142D01*
X65666666Y-86404761D01*
X65761904Y-86452380D01*
X65904761Y-86452380D01*
X65142857Y-86452380D02*
X65142857Y-85785714D01*
X65142857Y-85880952D02*
X65095238Y-85833333D01*
X65000000Y-85785714D01*
X64857142Y-85785714D01*
X64761904Y-85833333D01*
X64714285Y-85928571D01*
X64714285Y-86452380D01*
X64714285Y-85928571D02*
X64666666Y-85833333D01*
X64571428Y-85785714D01*
X64428571Y-85785714D01*
X64333333Y-85833333D01*
X64285714Y-85928571D01*
X64285714Y-86452380D01*
X63380952Y-86452380D02*
X63380952Y-85928571D01*
X63428571Y-85833333D01*
X63523809Y-85785714D01*
X63714285Y-85785714D01*
X63809523Y-85833333D01*
X63380952Y-86404761D02*
X63476190Y-86452380D01*
X63714285Y-86452380D01*
X63809523Y-86404761D01*
X63857142Y-86309523D01*
X63857142Y-86214285D01*
X63809523Y-86119047D01*
X63714285Y-86071428D01*
X63476190Y-86071428D01*
X63380952Y-86023809D01*
X62904761Y-86452380D02*
X62904761Y-85785714D01*
X62904761Y-85452380D02*
X62952380Y-85500000D01*
X62904761Y-85547619D01*
X62857142Y-85500000D01*
X62904761Y-85452380D01*
X62904761Y-85547619D01*
X62428571Y-85785714D02*
X62428571Y-86452380D01*
X62428571Y-85880952D02*
X62380952Y-85833333D01*
X62285714Y-85785714D01*
X62142857Y-85785714D01*
X62047619Y-85833333D01*
X62000000Y-85928571D01*
X62000000Y-86452380D01*
X58152380Y-79604761D02*
X58152380Y-79128571D01*
X57152380Y-79128571D01*
X58152380Y-79938095D02*
X57152380Y-79938095D01*
X57628571Y-79938095D02*
X57628571Y-80509523D01*
X58152380Y-80509523D02*
X57152380Y-80509523D01*
X57152380Y-80842857D02*
X57152380Y-81414285D01*
X58152380Y-81128571D02*
X57152380Y-81128571D01*
X83266666Y-79085714D02*
X83266666Y-79561904D01*
X83552380Y-78990476D02*
X82552380Y-79323809D01*
X83552380Y-79657142D01*
X83552380Y-80514285D02*
X83552380Y-79942857D01*
X83552380Y-80228571D02*
X82552380Y-80228571D01*
X82695238Y-80133333D01*
X82790476Y-80038095D01*
X82838095Y-79942857D01*
X52152380Y-70504761D02*
X53152380Y-70838095D01*
X52152380Y-71171428D01*
X53152380Y-71504761D02*
X52152380Y-71504761D01*
X53152380Y-71980952D02*
X52152380Y-71980952D01*
X53152380Y-72552380D01*
X52152380Y-72552380D01*
X68352380Y-70185714D02*
X67352380Y-70185714D01*
X67352380Y-70423809D01*
X67400000Y-70566666D01*
X67495238Y-70661904D01*
X67590476Y-70709523D01*
X67780952Y-70757142D01*
X67923809Y-70757142D01*
X68114285Y-70709523D01*
X68209523Y-70661904D01*
X68304761Y-70566666D01*
X68352380Y-70423809D01*
X68352380Y-70185714D01*
X67447619Y-71138095D02*
X67400000Y-71185714D01*
X67352380Y-71280952D01*
X67352380Y-71519047D01*
X67400000Y-71614285D01*
X67447619Y-71661904D01*
X67542857Y-71709523D01*
X67638095Y-71709523D01*
X67780952Y-71661904D01*
X68352380Y-71090476D01*
X68352380Y-71709523D01*
X67685714Y-72566666D02*
X68352380Y-72566666D01*
X67304761Y-72328571D02*
X68019047Y-72090476D01*
X68019047Y-72709523D01*
X62966666Y-70138095D02*
X62966666Y-70614285D01*
X63252380Y-70042857D02*
X62252380Y-70376190D01*
X63252380Y-70709523D01*
X62252380Y-71042857D02*
X63061904Y-71042857D01*
X63157142Y-71090476D01*
X63204761Y-71138095D01*
X63252380Y-71233333D01*
X63252380Y-71423809D01*
X63204761Y-71519047D01*
X63157142Y-71566666D01*
X63061904Y-71614285D01*
X62252380Y-71614285D01*
X63252380Y-72090476D02*
X62252380Y-72090476D01*
X62252380Y-72328571D01*
X62300000Y-72471428D01*
X62395238Y-72566666D01*
X62490476Y-72614285D01*
X62680952Y-72661904D01*
X62823809Y-72661904D01*
X63014285Y-72614285D01*
X63109523Y-72566666D01*
X63204761Y-72471428D01*
X63252380Y-72328571D01*
X63252380Y-72090476D01*
X43318571Y-40368928D02*
X43366190Y-40511785D01*
X43413809Y-40559404D01*
X43509047Y-40607023D01*
X43651904Y-40607023D01*
X43747142Y-40559404D01*
X43794761Y-40511785D01*
X43842380Y-40416547D01*
X43842380Y-40035595D01*
X42842380Y-40035595D01*
X42842380Y-40368928D01*
X42890000Y-40464166D01*
X42937619Y-40511785D01*
X43032857Y-40559404D01*
X43128095Y-40559404D01*
X43223333Y-40511785D01*
X43270952Y-40464166D01*
X43318571Y-40368928D01*
X43318571Y-40035595D01*
X43175714Y-41035595D02*
X44032857Y-41035595D01*
X44128095Y-40987976D01*
X44175714Y-40892738D01*
X44175714Y-40845119D01*
X42842380Y-41035595D02*
X42890000Y-40987976D01*
X42937619Y-41035595D01*
X42890000Y-41083214D01*
X42842380Y-41035595D01*
X42937619Y-41035595D01*
X43842380Y-41654642D02*
X43794761Y-41559404D01*
X43747142Y-41511785D01*
X43651904Y-41464166D01*
X43366190Y-41464166D01*
X43270952Y-41511785D01*
X43223333Y-41559404D01*
X43175714Y-41654642D01*
X43175714Y-41797500D01*
X43223333Y-41892738D01*
X43270952Y-41940357D01*
X43366190Y-41987976D01*
X43651904Y-41987976D01*
X43747142Y-41940357D01*
X43794761Y-41892738D01*
X43842380Y-41797500D01*
X43842380Y-41654642D01*
X42842380Y-41559404D02*
X42890000Y-41607023D01*
X42937619Y-41559404D01*
X42890000Y-41511785D01*
X42842380Y-41559404D01*
X42937619Y-41559404D01*
X42842380Y-41940357D02*
X42890000Y-41987976D01*
X42937619Y-41940357D01*
X42890000Y-41892738D01*
X42842380Y-41940357D01*
X42937619Y-41940357D01*
X43842380Y-42416547D02*
X43175714Y-42416547D01*
X43366190Y-42416547D02*
X43270952Y-42464166D01*
X43223333Y-42511785D01*
X43175714Y-42607023D01*
X43175714Y-42702261D01*
X43175714Y-43035595D02*
X43842380Y-43035595D01*
X43270952Y-43035595D02*
X43223333Y-43083214D01*
X43175714Y-43178452D01*
X43175714Y-43321309D01*
X43223333Y-43416547D01*
X43318571Y-43464166D01*
X43842380Y-43464166D01*
X42842380Y-44607023D02*
X43842380Y-44845119D01*
X43128095Y-45035595D01*
X43842380Y-45226071D01*
X42842380Y-45464166D01*
X43794761Y-46226071D02*
X43842380Y-46130833D01*
X43842380Y-45940357D01*
X43794761Y-45845119D01*
X43699523Y-45797500D01*
X43318571Y-45797500D01*
X43223333Y-45845119D01*
X43175714Y-45940357D01*
X43175714Y-46130833D01*
X43223333Y-46226071D01*
X43318571Y-46273690D01*
X43413809Y-46273690D01*
X43509047Y-45797500D01*
X43794761Y-46654642D02*
X43842380Y-46749880D01*
X43842380Y-46940357D01*
X43794761Y-47035595D01*
X43699523Y-47083214D01*
X43651904Y-47083214D01*
X43556666Y-47035595D01*
X43509047Y-46940357D01*
X43509047Y-46797500D01*
X43461428Y-46702261D01*
X43366190Y-46654642D01*
X43318571Y-46654642D01*
X43223333Y-46702261D01*
X43175714Y-46797500D01*
X43175714Y-46940357D01*
X43223333Y-47035595D01*
X43175714Y-47368928D02*
X43175714Y-47749880D01*
X42842380Y-47511785D02*
X43699523Y-47511785D01*
X43794761Y-47559404D01*
X43842380Y-47654642D01*
X43842380Y-47749880D01*
X43794761Y-48464166D02*
X43842380Y-48368928D01*
X43842380Y-48178452D01*
X43794761Y-48083214D01*
X43699523Y-48035595D01*
X43318571Y-48035595D01*
X43223333Y-48083214D01*
X43175714Y-48178452D01*
X43175714Y-48368928D01*
X43223333Y-48464166D01*
X43318571Y-48511785D01*
X43413809Y-48511785D01*
X43509047Y-48035595D01*
X43842380Y-48940357D02*
X43175714Y-48940357D01*
X43366190Y-48940357D02*
X43270952Y-48987976D01*
X43223333Y-49035595D01*
X43175714Y-49130833D01*
X43175714Y-49226071D01*
X43842380Y-49559404D02*
X42842380Y-49559404D01*
X43223333Y-49559404D02*
X43175714Y-49654642D01*
X43175714Y-49845119D01*
X43223333Y-49940357D01*
X43270952Y-49987976D01*
X43366190Y-50035595D01*
X43651904Y-50035595D01*
X43747142Y-49987976D01*
X43794761Y-49940357D01*
X43842380Y-49845119D01*
X43842380Y-49654642D01*
X43794761Y-49559404D01*
X43794761Y-50845119D02*
X43842380Y-50749880D01*
X43842380Y-50559404D01*
X43794761Y-50464166D01*
X43699523Y-50416547D01*
X43318571Y-50416547D01*
X43223333Y-50464166D01*
X43175714Y-50559404D01*
X43175714Y-50749880D01*
X43223333Y-50845119D01*
X43318571Y-50892738D01*
X43413809Y-50892738D01*
X43509047Y-50416547D01*
X43842380Y-51321309D02*
X43175714Y-51321309D01*
X43366190Y-51321309D02*
X43270952Y-51368928D01*
X43223333Y-51416547D01*
X43175714Y-51511785D01*
X43175714Y-51607023D01*
X43175714Y-52368928D02*
X43985238Y-52368928D01*
X44080476Y-52321309D01*
X44128095Y-52273690D01*
X44175714Y-52178452D01*
X44175714Y-52035595D01*
X44128095Y-51940357D01*
X43794761Y-52368928D02*
X43842380Y-52273690D01*
X43842380Y-52083214D01*
X43794761Y-51987976D01*
X43747142Y-51940357D01*
X43651904Y-51892738D01*
X43366190Y-51892738D01*
X43270952Y-51940357D01*
X43223333Y-51987976D01*
X43175714Y-52083214D01*
X43175714Y-52273690D01*
X43223333Y-52368928D01*
X43842380Y-53607023D02*
X42842380Y-53607023D01*
X43842380Y-54178452D01*
X42842380Y-54178452D01*
X43842380Y-55083214D02*
X43318571Y-55083214D01*
X43223333Y-55035595D01*
X43175714Y-54940357D01*
X43175714Y-54749880D01*
X43223333Y-54654642D01*
X43794761Y-55083214D02*
X43842380Y-54987976D01*
X43842380Y-54749880D01*
X43794761Y-54654642D01*
X43699523Y-54607023D01*
X43604285Y-54607023D01*
X43509047Y-54654642D01*
X43461428Y-54749880D01*
X43461428Y-54987976D01*
X43413809Y-55083214D01*
X43175714Y-55987976D02*
X43842380Y-55987976D01*
X43175714Y-55559404D02*
X43699523Y-55559404D01*
X43794761Y-55607023D01*
X43842380Y-55702261D01*
X43842380Y-55845119D01*
X43794761Y-55940357D01*
X43747142Y-55987976D01*
X43794761Y-56892738D02*
X43842380Y-56797500D01*
X43842380Y-56607023D01*
X43794761Y-56511785D01*
X43747142Y-56464166D01*
X43651904Y-56416547D01*
X43366190Y-56416547D01*
X43270952Y-56464166D01*
X43223333Y-56511785D01*
X43175714Y-56607023D01*
X43175714Y-56797500D01*
X43223333Y-56892738D01*
X43842380Y-57464166D02*
X43794761Y-57368928D01*
X43699523Y-57321309D01*
X42842380Y-57321309D01*
X43794761Y-58226071D02*
X43842380Y-58130833D01*
X43842380Y-57940357D01*
X43794761Y-57845119D01*
X43699523Y-57797500D01*
X43318571Y-57797500D01*
X43223333Y-57845119D01*
X43175714Y-57940357D01*
X43175714Y-58130833D01*
X43223333Y-58226071D01*
X43318571Y-58273690D01*
X43413809Y-58273690D01*
X43509047Y-57797500D01*
X43842380Y-58702261D02*
X43175714Y-58702261D01*
X43366190Y-58702261D02*
X43270952Y-58749880D01*
X43223333Y-58797500D01*
X43175714Y-58892738D01*
X43175714Y-58987976D01*
X44928571Y-40035595D02*
X44928571Y-40368928D01*
X45452380Y-40511785D02*
X45452380Y-40035595D01*
X44452380Y-40035595D01*
X44452380Y-40511785D01*
X45404761Y-40892738D02*
X45452380Y-40987976D01*
X45452380Y-41178452D01*
X45404761Y-41273690D01*
X45309523Y-41321309D01*
X45261904Y-41321309D01*
X45166666Y-41273690D01*
X45119047Y-41178452D01*
X45119047Y-41035595D01*
X45071428Y-40940357D01*
X44976190Y-40892738D01*
X44928571Y-40892738D01*
X44833333Y-40940357D01*
X44785714Y-41035595D01*
X44785714Y-41178452D01*
X44833333Y-41273690D01*
X45452380Y-41749880D02*
X44452380Y-41749880D01*
X45452380Y-42178452D02*
X44928571Y-42178452D01*
X44833333Y-42130833D01*
X44785714Y-42035595D01*
X44785714Y-41892738D01*
X44833333Y-41797500D01*
X44880952Y-41749880D01*
X44785714Y-43083214D02*
X45452380Y-43083214D01*
X44785714Y-42654642D02*
X45309523Y-42654642D01*
X45404761Y-42702261D01*
X45452380Y-42797500D01*
X45452380Y-42940357D01*
X45404761Y-43035595D01*
X45357142Y-43083214D01*
X44452380Y-44511785D02*
X44452380Y-44702261D01*
X44500000Y-44797500D01*
X44595238Y-44892738D01*
X44785714Y-44940357D01*
X45119047Y-44940357D01*
X45309523Y-44892738D01*
X45404761Y-44797500D01*
X45452380Y-44702261D01*
X45452380Y-44511785D01*
X45404761Y-44416547D01*
X45309523Y-44321309D01*
X45119047Y-44273690D01*
X44785714Y-44273690D01*
X44595238Y-44321309D01*
X44500000Y-44416547D01*
X44452380Y-44511785D01*
X45452380Y-45511785D02*
X45404761Y-45416547D01*
X45357142Y-45368928D01*
X45261904Y-45321309D01*
X44976190Y-45321309D01*
X44880952Y-45368928D01*
X44833333Y-45416547D01*
X44785714Y-45511785D01*
X44785714Y-45654642D01*
X44833333Y-45749880D01*
X44880952Y-45797500D01*
X44976190Y-45845119D01*
X45261904Y-45845119D01*
X45357142Y-45797500D01*
X45404761Y-45749880D01*
X45452380Y-45654642D01*
X45452380Y-45511785D01*
X45404761Y-46226071D02*
X45452380Y-46321309D01*
X45452380Y-46511785D01*
X45404761Y-46607023D01*
X45309523Y-46654642D01*
X45261904Y-46654642D01*
X45166666Y-46607023D01*
X45119047Y-46511785D01*
X45119047Y-46368928D01*
X45071428Y-46273690D01*
X44976190Y-46226071D01*
X44928571Y-46226071D01*
X44833333Y-46273690D01*
X44785714Y-46368928D01*
X44785714Y-46511785D01*
X44833333Y-46607023D01*
X44785714Y-46940357D02*
X44785714Y-47321309D01*
X44452380Y-47083214D02*
X45309523Y-47083214D01*
X45404761Y-47130833D01*
X45452380Y-47226071D01*
X45452380Y-47321309D01*
X45404761Y-48035595D02*
X45452380Y-47940357D01*
X45452380Y-47749880D01*
X45404761Y-47654642D01*
X45309523Y-47607023D01*
X44928571Y-47607023D01*
X44833333Y-47654642D01*
X44785714Y-47749880D01*
X44785714Y-47940357D01*
X44833333Y-48035595D01*
X44928571Y-48083214D01*
X45023809Y-48083214D01*
X45119047Y-47607023D01*
X45452380Y-48511785D02*
X44785714Y-48511785D01*
X44976190Y-48511785D02*
X44880952Y-48559404D01*
X44833333Y-48607023D01*
X44785714Y-48702261D01*
X44785714Y-48797500D01*
X45452380Y-49130833D02*
X44452380Y-49130833D01*
X45452380Y-49559404D02*
X44928571Y-49559404D01*
X44833333Y-49511785D01*
X44785714Y-49416547D01*
X44785714Y-49273690D01*
X44833333Y-49178452D01*
X44880952Y-49130833D01*
X45452380Y-50178452D02*
X45404761Y-50083214D01*
X45357142Y-50035595D01*
X45261904Y-49987976D01*
X44976190Y-49987976D01*
X44880952Y-50035595D01*
X44833333Y-50083214D01*
X44785714Y-50178452D01*
X44785714Y-50321309D01*
X44833333Y-50416547D01*
X44880952Y-50464166D01*
X44976190Y-50511785D01*
X45261904Y-50511785D01*
X45357142Y-50464166D01*
X45404761Y-50416547D01*
X45452380Y-50321309D01*
X45452380Y-50178452D01*
X44785714Y-50797500D02*
X44785714Y-51178452D01*
X45452380Y-50940357D02*
X44595238Y-50940357D01*
X44500000Y-50987976D01*
X44452380Y-51083214D01*
X44452380Y-51178452D01*
X45452380Y-52273690D02*
X44452380Y-52273690D01*
X45452380Y-52845119D01*
X44452380Y-52845119D01*
X45452380Y-53749880D02*
X44928571Y-53749880D01*
X44833333Y-53702261D01*
X44785714Y-53607023D01*
X44785714Y-53416547D01*
X44833333Y-53321309D01*
X45404761Y-53749880D02*
X45452380Y-53654642D01*
X45452380Y-53416547D01*
X45404761Y-53321309D01*
X45309523Y-53273690D01*
X45214285Y-53273690D01*
X45119047Y-53321309D01*
X45071428Y-53416547D01*
X45071428Y-53654642D01*
X45023809Y-53749880D01*
X44785714Y-54654642D02*
X45452380Y-54654642D01*
X44785714Y-54226071D02*
X45309523Y-54226071D01*
X45404761Y-54273690D01*
X45452380Y-54368928D01*
X45452380Y-54511785D01*
X45404761Y-54607023D01*
X45357142Y-54654642D01*
X45404761Y-55559404D02*
X45452380Y-55464166D01*
X45452380Y-55273690D01*
X45404761Y-55178452D01*
X45357142Y-55130833D01*
X45261904Y-55083214D01*
X44976190Y-55083214D01*
X44880952Y-55130833D01*
X44833333Y-55178452D01*
X44785714Y-55273690D01*
X44785714Y-55464166D01*
X44833333Y-55559404D01*
X45452380Y-56130833D02*
X45404761Y-56035595D01*
X45309523Y-55987976D01*
X44452380Y-55987976D01*
X45404761Y-56892738D02*
X45452380Y-56797500D01*
X45452380Y-56607023D01*
X45404761Y-56511785D01*
X45309523Y-56464166D01*
X44928571Y-56464166D01*
X44833333Y-56511785D01*
X44785714Y-56607023D01*
X44785714Y-56797500D01*
X44833333Y-56892738D01*
X44928571Y-56940357D01*
X45023809Y-56940357D01*
X45119047Y-56464166D01*
X45452380Y-57368928D02*
X44785714Y-57368928D01*
X44976190Y-57368928D02*
X44880952Y-57416547D01*
X44833333Y-57464166D01*
X44785714Y-57559404D01*
X44785714Y-57654642D01*
X46395714Y-40035595D02*
X47395714Y-40035595D01*
X46443333Y-40035595D02*
X46395714Y-40130833D01*
X46395714Y-40321309D01*
X46443333Y-40416547D01*
X46490952Y-40464166D01*
X46586190Y-40511785D01*
X46871904Y-40511785D01*
X46967142Y-40464166D01*
X47014761Y-40416547D01*
X47062380Y-40321309D01*
X47062380Y-40130833D01*
X47014761Y-40035595D01*
X47014761Y-41368928D02*
X47062380Y-41273690D01*
X47062380Y-41083214D01*
X47014761Y-40987976D01*
X46967142Y-40940357D01*
X46871904Y-40892738D01*
X46586190Y-40892738D01*
X46490952Y-40940357D01*
X46443333Y-40987976D01*
X46395714Y-41083214D01*
X46395714Y-41273690D01*
X46443333Y-41368928D01*
X47062380Y-41797500D02*
X46062380Y-41797500D01*
X46443333Y-41797500D02*
X46395714Y-41892738D01*
X46395714Y-42083214D01*
X46443333Y-42178452D01*
X46490952Y-42226071D01*
X46586190Y-42273690D01*
X46871904Y-42273690D01*
X46967142Y-42226071D01*
X47014761Y-42178452D01*
X47062380Y-42083214D01*
X47062380Y-41892738D01*
X47014761Y-41797500D01*
X47062380Y-43464166D02*
X46395714Y-43464166D01*
X46586190Y-43464166D02*
X46490952Y-43511785D01*
X46443333Y-43559404D01*
X46395714Y-43654642D01*
X46395714Y-43749880D01*
X47014761Y-44464166D02*
X47062380Y-44368928D01*
X47062380Y-44178452D01*
X47014761Y-44083214D01*
X46919523Y-44035595D01*
X46538571Y-44035595D01*
X46443333Y-44083214D01*
X46395714Y-44178452D01*
X46395714Y-44368928D01*
X46443333Y-44464166D01*
X46538571Y-44511785D01*
X46633809Y-44511785D01*
X46729047Y-44035595D01*
X46395714Y-44845119D02*
X47062380Y-45083214D01*
X46395714Y-45321309D01*
X46967142Y-45702261D02*
X47014761Y-45749880D01*
X47062380Y-45702261D01*
X47014761Y-45654642D01*
X46967142Y-45702261D01*
X47062380Y-45702261D01*
X46062380Y-47130833D02*
X46062380Y-47226071D01*
X46110000Y-47321309D01*
X46157619Y-47368928D01*
X46252857Y-47416547D01*
X46443333Y-47464166D01*
X46681428Y-47464166D01*
X46871904Y-47416547D01*
X46967142Y-47368928D01*
X47014761Y-47321309D01*
X47062380Y-47226071D01*
X47062380Y-47130833D01*
X47014761Y-47035595D01*
X46967142Y-46987976D01*
X46871904Y-46940357D01*
X46681428Y-46892738D01*
X46443333Y-46892738D01*
X46252857Y-46940357D01*
X46157619Y-46987976D01*
X46110000Y-47035595D01*
X46062380Y-47130833D01*
X47062380Y-48416547D02*
X47062380Y-47845119D01*
X47062380Y-48130833D02*
X46062380Y-48130833D01*
X46205238Y-48035595D01*
X46300476Y-47940357D01*
X46348095Y-47845119D01*
X46681428Y-49607023D02*
X46681428Y-50368928D01*
X46157619Y-51559404D02*
X46110000Y-51607023D01*
X46062380Y-51702261D01*
X46062380Y-51940357D01*
X46110000Y-52035595D01*
X46157619Y-52083214D01*
X46252857Y-52130833D01*
X46348095Y-52130833D01*
X46490952Y-52083214D01*
X47062380Y-51511785D01*
X47062380Y-52130833D01*
X46062380Y-52749880D02*
X46062380Y-52845119D01*
X46110000Y-52940357D01*
X46157619Y-52987976D01*
X46252857Y-53035595D01*
X46443333Y-53083214D01*
X46681428Y-53083214D01*
X46871904Y-53035595D01*
X46967142Y-52987976D01*
X47014761Y-52940357D01*
X47062380Y-52845119D01*
X47062380Y-52749880D01*
X47014761Y-52654642D01*
X46967142Y-52607023D01*
X46871904Y-52559404D01*
X46681428Y-52511785D01*
X46443333Y-52511785D01*
X46252857Y-52559404D01*
X46157619Y-52607023D01*
X46110000Y-52654642D01*
X46062380Y-52749880D01*
X46157619Y-53464166D02*
X46110000Y-53511785D01*
X46062380Y-53607023D01*
X46062380Y-53845119D01*
X46110000Y-53940357D01*
X46157619Y-53987976D01*
X46252857Y-54035595D01*
X46348095Y-54035595D01*
X46490952Y-53987976D01*
X47062380Y-53416547D01*
X47062380Y-54035595D01*
X46157619Y-54416547D02*
X46110000Y-54464166D01*
X46062380Y-54559404D01*
X46062380Y-54797500D01*
X46110000Y-54892738D01*
X46157619Y-54940357D01*
X46252857Y-54987976D01*
X46348095Y-54987976D01*
X46490952Y-54940357D01*
X47062380Y-54368928D01*
X47062380Y-54987976D01*
X60652380Y-71733333D02*
X60176190Y-71400000D01*
X60652380Y-71161904D02*
X59652380Y-71161904D01*
X59652380Y-71542857D01*
X59700000Y-71638095D01*
X59747619Y-71685714D01*
X59842857Y-71733333D01*
X59985714Y-71733333D01*
X60080952Y-71685714D01*
X60128571Y-71638095D01*
X60176190Y-71542857D01*
X60176190Y-71161904D01*
X59652380Y-72066666D02*
X60652380Y-72733333D01*
X59652380Y-72733333D02*
X60652380Y-72066666D01*
D11*
X87033571Y-32796071D02*
X87747857Y-32796071D01*
X87747857Y-31296071D01*
X86319285Y-32796071D02*
X86462142Y-32724642D01*
X86533571Y-32653214D01*
X86605000Y-32510357D01*
X86605000Y-32081785D01*
X86533571Y-31938928D01*
X86462142Y-31867500D01*
X86319285Y-31796071D01*
X86105000Y-31796071D01*
X85962142Y-31867500D01*
X85890714Y-31938928D01*
X85819285Y-32081785D01*
X85819285Y-32510357D01*
X85890714Y-32653214D01*
X85962142Y-32724642D01*
X86105000Y-32796071D01*
X86319285Y-32796071D01*
X85176428Y-31796071D02*
X85176428Y-32796071D01*
X85176428Y-31938928D02*
X85105000Y-31867500D01*
X84962142Y-31796071D01*
X84747857Y-31796071D01*
X84605000Y-31867500D01*
X84533571Y-32010357D01*
X84533571Y-32796071D01*
X83176428Y-31796071D02*
X83176428Y-33010357D01*
X83247857Y-33153214D01*
X83319285Y-33224642D01*
X83462142Y-33296071D01*
X83676428Y-33296071D01*
X83819285Y-33224642D01*
X83176428Y-32724642D02*
X83319285Y-32796071D01*
X83605000Y-32796071D01*
X83747857Y-32724642D01*
X83819285Y-32653214D01*
X83890714Y-32510357D01*
X83890714Y-32081785D01*
X83819285Y-31938928D01*
X83747857Y-31867500D01*
X83605000Y-31796071D01*
X83319285Y-31796071D01*
X83176428Y-31867500D01*
X81319285Y-31796071D02*
X81319285Y-33296071D01*
X81319285Y-31867500D02*
X81176428Y-31796071D01*
X80890714Y-31796071D01*
X80747857Y-31867500D01*
X80676428Y-31938928D01*
X80605000Y-32081785D01*
X80605000Y-32510357D01*
X80676428Y-32653214D01*
X80747857Y-32724642D01*
X80890714Y-32796071D01*
X81176428Y-32796071D01*
X81319285Y-32724642D01*
X79962142Y-32796071D02*
X79962142Y-31796071D01*
X79962142Y-32081785D02*
X79890714Y-31938928D01*
X79819285Y-31867500D01*
X79676428Y-31796071D01*
X79533571Y-31796071D01*
X78462142Y-32724642D02*
X78605000Y-32796071D01*
X78890714Y-32796071D01*
X79033571Y-32724642D01*
X79105000Y-32581785D01*
X79105000Y-32010357D01*
X79033571Y-31867500D01*
X78890714Y-31796071D01*
X78605000Y-31796071D01*
X78462142Y-31867500D01*
X78390714Y-32010357D01*
X78390714Y-32153214D01*
X79105000Y-32296071D01*
X77819285Y-32724642D02*
X77676428Y-32796071D01*
X77390714Y-32796071D01*
X77247857Y-32724642D01*
X77176428Y-32581785D01*
X77176428Y-32510357D01*
X77247857Y-32367500D01*
X77390714Y-32296071D01*
X77605000Y-32296071D01*
X77747857Y-32224642D01*
X77819285Y-32081785D01*
X77819285Y-32010357D01*
X77747857Y-31867500D01*
X77605000Y-31796071D01*
X77390714Y-31796071D01*
X77247857Y-31867500D01*
X76605000Y-32724642D02*
X76462142Y-32796071D01*
X76176428Y-32796071D01*
X76033571Y-32724642D01*
X75962142Y-32581785D01*
X75962142Y-32510357D01*
X76033571Y-32367500D01*
X76176428Y-32296071D01*
X76390714Y-32296071D01*
X76533571Y-32224642D01*
X76605000Y-32081785D01*
X76605000Y-32010357D01*
X76533571Y-31867500D01*
X76390714Y-31796071D01*
X76176428Y-31796071D01*
X76033571Y-31867500D01*
X74247857Y-32724642D02*
X74033571Y-32796071D01*
X73676428Y-32796071D01*
X73533571Y-32724642D01*
X73462142Y-32653214D01*
X73390714Y-32510357D01*
X73390714Y-32367500D01*
X73462142Y-32224642D01*
X73533571Y-32153214D01*
X73676428Y-32081785D01*
X73962142Y-32010357D01*
X74105000Y-31938928D01*
X74176428Y-31867500D01*
X74247857Y-31724642D01*
X74247857Y-31581785D01*
X74176428Y-31438928D01*
X74105000Y-31367500D01*
X73962142Y-31296071D01*
X73605000Y-31296071D01*
X73390714Y-31367500D01*
X71962142Y-32796071D02*
X72819285Y-32796071D01*
X72390714Y-32796071D02*
X72390714Y-31296071D01*
X72533571Y-31510357D01*
X72676428Y-31653214D01*
X72819285Y-31724642D01*
X71319285Y-32653214D02*
X71247857Y-32724642D01*
X71319285Y-32796071D01*
X71390714Y-32724642D01*
X71319285Y-32653214D01*
X71319285Y-32796071D01*
X71319285Y-31867500D02*
X71247857Y-31938928D01*
X71319285Y-32010357D01*
X71390714Y-31938928D01*
X71319285Y-31867500D01*
X71319285Y-32010357D01*
X69533571Y-32724642D02*
X69390714Y-32796071D01*
X69105000Y-32796071D01*
X68962142Y-32724642D01*
X68890714Y-32581785D01*
X68890714Y-32510357D01*
X68962142Y-32367500D01*
X69105000Y-32296071D01*
X69319285Y-32296071D01*
X69462142Y-32224642D01*
X69533571Y-32081785D01*
X69533571Y-32010357D01*
X69462142Y-31867500D01*
X69319285Y-31796071D01*
X69105000Y-31796071D01*
X68962142Y-31867500D01*
X67676428Y-32724642D02*
X67819285Y-32796071D01*
X68105000Y-32796071D01*
X68247857Y-32724642D01*
X68319285Y-32581785D01*
X68319285Y-32010357D01*
X68247857Y-31867500D01*
X68105000Y-31796071D01*
X67819285Y-31796071D01*
X67676428Y-31867500D01*
X67605000Y-32010357D01*
X67605000Y-32153214D01*
X68319285Y-32296071D01*
X66747857Y-32796071D02*
X66890714Y-32724642D01*
X66962142Y-32581785D01*
X66962142Y-31296071D01*
X65604999Y-32724642D02*
X65747857Y-32796071D01*
X66033571Y-32796071D01*
X66176428Y-32724642D01*
X66247857Y-32581785D01*
X66247857Y-32010357D01*
X66176428Y-31867500D01*
X66033571Y-31796071D01*
X65747857Y-31796071D01*
X65604999Y-31867500D01*
X65533571Y-32010357D01*
X65533571Y-32153214D01*
X66247857Y-32296071D01*
X64247857Y-32724642D02*
X64390714Y-32796071D01*
X64676428Y-32796071D01*
X64819285Y-32724642D01*
X64890714Y-32653214D01*
X64962142Y-32510357D01*
X64962142Y-32081785D01*
X64890714Y-31938928D01*
X64819285Y-31867500D01*
X64676428Y-31796071D01*
X64390714Y-31796071D01*
X64247857Y-31867500D01*
X63819285Y-31796071D02*
X63247857Y-31796071D01*
X63604999Y-31296071D02*
X63604999Y-32581785D01*
X63533571Y-32724642D01*
X63390714Y-32796071D01*
X63247857Y-32796071D01*
X61604999Y-32796071D02*
X61604999Y-31796071D01*
X61604999Y-31938928D02*
X61533571Y-31867500D01*
X61390714Y-31796071D01*
X61176428Y-31796071D01*
X61033571Y-31867500D01*
X60962142Y-32010357D01*
X60962142Y-32796071D01*
X60962142Y-32010357D02*
X60890714Y-31867500D01*
X60747857Y-31796071D01*
X60533571Y-31796071D01*
X60390714Y-31867500D01*
X60319285Y-32010357D01*
X60319285Y-32796071D01*
X59390714Y-32796071D02*
X59533571Y-32724642D01*
X59604999Y-32653214D01*
X59676428Y-32510357D01*
X59676428Y-32081785D01*
X59604999Y-31938928D01*
X59533571Y-31867500D01*
X59390714Y-31796071D01*
X59176428Y-31796071D01*
X59033571Y-31867500D01*
X58962142Y-31938928D01*
X58890714Y-32081785D01*
X58890714Y-32510357D01*
X58962142Y-32653214D01*
X59033571Y-32724642D01*
X59176428Y-32796071D01*
X59390714Y-32796071D01*
X57604999Y-32796071D02*
X57604999Y-31296071D01*
X57604999Y-32724642D02*
X57747857Y-32796071D01*
X58033571Y-32796071D01*
X58176428Y-32724642D01*
X58247857Y-32653214D01*
X58319285Y-32510357D01*
X58319285Y-32081785D01*
X58247857Y-31938928D01*
X58176428Y-31867500D01*
X58033571Y-31796071D01*
X57747857Y-31796071D01*
X57604999Y-31867500D01*
X56319285Y-32724642D02*
X56462142Y-32796071D01*
X56747857Y-32796071D01*
X56890714Y-32724642D01*
X56962142Y-32581785D01*
X56962142Y-32010357D01*
X56890714Y-31867500D01*
X56747857Y-31796071D01*
X56462142Y-31796071D01*
X56319285Y-31867500D01*
X56247857Y-32010357D01*
X56247857Y-32153214D01*
X56962142Y-32296071D01*
X87033571Y-37626071D02*
X87747857Y-37626071D01*
X87747857Y-36126071D01*
X86533571Y-36840357D02*
X86033571Y-36840357D01*
X85819285Y-37626071D02*
X86533571Y-37626071D01*
X86533571Y-36126071D01*
X85819285Y-36126071D01*
X85176428Y-37626071D02*
X85176428Y-36126071D01*
X84819285Y-36126071D01*
X84605000Y-36197500D01*
X84462142Y-36340357D01*
X84390714Y-36483214D01*
X84319285Y-36768928D01*
X84319285Y-36983214D01*
X84390714Y-37268928D01*
X84462142Y-37411785D01*
X84605000Y-37554642D01*
X84819285Y-37626071D01*
X85176428Y-37626071D01*
X82533571Y-37626071D02*
X82533571Y-36126071D01*
X82033571Y-37197500D01*
X81533571Y-36126071D01*
X81533571Y-37626071D01*
X80605000Y-37626071D02*
X80747857Y-37554642D01*
X80819285Y-37483214D01*
X80890714Y-37340357D01*
X80890714Y-36911785D01*
X80819285Y-36768928D01*
X80747857Y-36697500D01*
X80605000Y-36626071D01*
X80390714Y-36626071D01*
X80247857Y-36697500D01*
X80176428Y-36768928D01*
X80105000Y-36911785D01*
X80105000Y-37340357D01*
X80176428Y-37483214D01*
X80247857Y-37554642D01*
X80390714Y-37626071D01*
X80605000Y-37626071D01*
X78819285Y-37626071D02*
X78819285Y-36126071D01*
X78819285Y-37554642D02*
X78962142Y-37626071D01*
X79247857Y-37626071D01*
X79390714Y-37554642D01*
X79462142Y-37483214D01*
X79533571Y-37340357D01*
X79533571Y-36911785D01*
X79462142Y-36768928D01*
X79390714Y-36697500D01*
X79247857Y-36626071D01*
X78962142Y-36626071D01*
X78819285Y-36697500D01*
X77533571Y-37554642D02*
X77676428Y-37626071D01*
X77962142Y-37626071D01*
X78105000Y-37554642D01*
X78176428Y-37411785D01*
X78176428Y-36840357D01*
X78105000Y-36697500D01*
X77962142Y-36626071D01*
X77676428Y-36626071D01*
X77533571Y-36697500D01*
X77462142Y-36840357D01*
X77462142Y-36983214D01*
X78176428Y-37126071D01*
X86962142Y-40041071D02*
X87819285Y-40041071D01*
X87390714Y-40041071D02*
X87390714Y-38541071D01*
X87533571Y-38755357D01*
X87676428Y-38898214D01*
X87819285Y-38969642D01*
X82105000Y-38612500D02*
X82247857Y-38541071D01*
X82462142Y-38541071D01*
X82676428Y-38612500D01*
X82819285Y-38755357D01*
X82890714Y-38898214D01*
X82962142Y-39183928D01*
X82962142Y-39398214D01*
X82890714Y-39683928D01*
X82819285Y-39826785D01*
X82676428Y-39969642D01*
X82462142Y-40041071D01*
X82319285Y-40041071D01*
X82105000Y-39969642D01*
X82033571Y-39898214D01*
X82033571Y-39398214D01*
X82319285Y-39398214D01*
X80747857Y-40041071D02*
X80747857Y-39255357D01*
X80819285Y-39112500D01*
X80962142Y-39041071D01*
X81247857Y-39041071D01*
X81390714Y-39112500D01*
X80747857Y-39969642D02*
X80890714Y-40041071D01*
X81247857Y-40041071D01*
X81390714Y-39969642D01*
X81462142Y-39826785D01*
X81462142Y-39683928D01*
X81390714Y-39541071D01*
X81247857Y-39469642D01*
X80890714Y-39469642D01*
X80747857Y-39398214D01*
X80033571Y-40041071D02*
X80033571Y-39041071D01*
X80033571Y-39183928D02*
X79962142Y-39112500D01*
X79819285Y-39041071D01*
X79605000Y-39041071D01*
X79462142Y-39112500D01*
X79390714Y-39255357D01*
X79390714Y-40041071D01*
X79390714Y-39255357D02*
X79319285Y-39112500D01*
X79176428Y-39041071D01*
X78962142Y-39041071D01*
X78819285Y-39112500D01*
X78747857Y-39255357D01*
X78747857Y-40041071D01*
X77462142Y-39969642D02*
X77605000Y-40041071D01*
X77890714Y-40041071D01*
X78033571Y-39969642D01*
X78105000Y-39826785D01*
X78105000Y-39255357D01*
X78033571Y-39112500D01*
X77890714Y-39041071D01*
X77605000Y-39041071D01*
X77462142Y-39112500D01*
X77390714Y-39255357D01*
X77390714Y-39398214D01*
X78105000Y-39541071D01*
X76747857Y-39898214D02*
X76676428Y-39969642D01*
X76747857Y-40041071D01*
X76819285Y-39969642D01*
X76747857Y-39898214D01*
X76747857Y-40041071D01*
X76747857Y-39112500D02*
X76676428Y-39183928D01*
X76747857Y-39255357D01*
X76819285Y-39183928D01*
X76747857Y-39112500D01*
X76747857Y-39255357D01*
X74390714Y-39255357D02*
X74890714Y-39255357D01*
X74890714Y-40041071D02*
X74890714Y-38541071D01*
X74176428Y-38541071D01*
X73390714Y-40041071D02*
X73533571Y-39969642D01*
X73605000Y-39826785D01*
X73605000Y-38541071D01*
X72819285Y-40041071D02*
X72819285Y-39041071D01*
X72819285Y-38541071D02*
X72890714Y-38612500D01*
X72819285Y-38683928D01*
X72747857Y-38612500D01*
X72819285Y-38541071D01*
X72819285Y-38683928D01*
X72105000Y-39041071D02*
X72105000Y-40541071D01*
X72105000Y-39112500D02*
X71962142Y-39041071D01*
X71676428Y-39041071D01*
X71533571Y-39112500D01*
X71462142Y-39183928D01*
X71390714Y-39326785D01*
X71390714Y-39755357D01*
X71462142Y-39898214D01*
X71533571Y-39969642D01*
X71676428Y-40041071D01*
X71962142Y-40041071D01*
X72105000Y-39969642D01*
X87819285Y-41098928D02*
X87747857Y-41027500D01*
X87605000Y-40956071D01*
X87247857Y-40956071D01*
X87105000Y-41027500D01*
X87033571Y-41098928D01*
X86962142Y-41241785D01*
X86962142Y-41384642D01*
X87033571Y-41598928D01*
X87890714Y-42456071D01*
X86962142Y-42456071D01*
X82105000Y-41027500D02*
X82247857Y-40956071D01*
X82462142Y-40956071D01*
X82676428Y-41027500D01*
X82819285Y-41170357D01*
X82890714Y-41313214D01*
X82962142Y-41598928D01*
X82962142Y-41813214D01*
X82890714Y-42098928D01*
X82819285Y-42241785D01*
X82676428Y-42384642D01*
X82462142Y-42456071D01*
X82319285Y-42456071D01*
X82105000Y-42384642D01*
X82033571Y-42313214D01*
X82033571Y-41813214D01*
X82319285Y-41813214D01*
X80747857Y-42456071D02*
X80747857Y-41670357D01*
X80819285Y-41527500D01*
X80962142Y-41456071D01*
X81247857Y-41456071D01*
X81390714Y-41527500D01*
X80747857Y-42384642D02*
X80890714Y-42456071D01*
X81247857Y-42456071D01*
X81390714Y-42384642D01*
X81462142Y-42241785D01*
X81462142Y-42098928D01*
X81390714Y-41956071D01*
X81247857Y-41884642D01*
X80890714Y-41884642D01*
X80747857Y-41813214D01*
X80033571Y-42456071D02*
X80033571Y-41456071D01*
X80033571Y-41598928D02*
X79962142Y-41527500D01*
X79819285Y-41456071D01*
X79605000Y-41456071D01*
X79462142Y-41527500D01*
X79390714Y-41670357D01*
X79390714Y-42456071D01*
X79390714Y-41670357D02*
X79319285Y-41527500D01*
X79176428Y-41456071D01*
X78962142Y-41456071D01*
X78819285Y-41527500D01*
X78747857Y-41670357D01*
X78747857Y-42456071D01*
X77462142Y-42384642D02*
X77605000Y-42456071D01*
X77890714Y-42456071D01*
X78033571Y-42384642D01*
X78105000Y-42241785D01*
X78105000Y-41670357D01*
X78033571Y-41527500D01*
X77890714Y-41456071D01*
X77605000Y-41456071D01*
X77462142Y-41527500D01*
X77390714Y-41670357D01*
X77390714Y-41813214D01*
X78105000Y-41956071D01*
X76747857Y-42313214D02*
X76676428Y-42384642D01*
X76747857Y-42456071D01*
X76819285Y-42384642D01*
X76747857Y-42313214D01*
X76747857Y-42456071D01*
X76747857Y-41527500D02*
X76676428Y-41598928D01*
X76747857Y-41670357D01*
X76819285Y-41598928D01*
X76747857Y-41527500D01*
X76747857Y-41670357D01*
X74033571Y-42456071D02*
X74533571Y-41741785D01*
X74890714Y-42456071D02*
X74890714Y-40956071D01*
X74319285Y-40956071D01*
X74176428Y-41027500D01*
X74105000Y-41098928D01*
X74033571Y-41241785D01*
X74033571Y-41456071D01*
X74105000Y-41598928D01*
X74176428Y-41670357D01*
X74319285Y-41741785D01*
X74890714Y-41741785D01*
X73390714Y-42456071D02*
X73390714Y-40956071D01*
X72890714Y-42027500D01*
X72390714Y-40956071D01*
X72390714Y-42456071D01*
X71176428Y-41670357D02*
X70962142Y-41741785D01*
X70890714Y-41813214D01*
X70819285Y-41956071D01*
X70819285Y-42170357D01*
X70890714Y-42313214D01*
X70962142Y-42384642D01*
X71105000Y-42456071D01*
X71676428Y-42456071D01*
X71676428Y-40956071D01*
X71176428Y-40956071D01*
X71033571Y-41027500D01*
X70962142Y-41098928D01*
X70890714Y-41241785D01*
X70890714Y-41384642D01*
X70962142Y-41527500D01*
X71033571Y-41598928D01*
X71176428Y-41670357D01*
X71676428Y-41670357D01*
X69319285Y-42456071D02*
X69819285Y-41741785D01*
X70176428Y-42456071D02*
X70176428Y-40956071D01*
X69605000Y-40956071D01*
X69462142Y-41027500D01*
X69390714Y-41098928D01*
X69319285Y-41241785D01*
X69319285Y-41456071D01*
X69390714Y-41598928D01*
X69462142Y-41670357D01*
X69605000Y-41741785D01*
X70176428Y-41741785D01*
X87890714Y-43371071D02*
X86962142Y-43371071D01*
X87462142Y-43942500D01*
X87247857Y-43942500D01*
X87105000Y-44013928D01*
X87033571Y-44085357D01*
X86962142Y-44228214D01*
X86962142Y-44585357D01*
X87033571Y-44728214D01*
X87105000Y-44799642D01*
X87247857Y-44871071D01*
X87676428Y-44871071D01*
X87819285Y-44799642D01*
X87890714Y-44728214D01*
X82105000Y-43442500D02*
X82247857Y-43371071D01*
X82462142Y-43371071D01*
X82676428Y-43442500D01*
X82819285Y-43585357D01*
X82890714Y-43728214D01*
X82962142Y-44013928D01*
X82962142Y-44228214D01*
X82890714Y-44513928D01*
X82819285Y-44656785D01*
X82676428Y-44799642D01*
X82462142Y-44871071D01*
X82319285Y-44871071D01*
X82105000Y-44799642D01*
X82033571Y-44728214D01*
X82033571Y-44228214D01*
X82319285Y-44228214D01*
X80747857Y-44871071D02*
X80747857Y-44085357D01*
X80819285Y-43942500D01*
X80962142Y-43871071D01*
X81247857Y-43871071D01*
X81390714Y-43942500D01*
X80747857Y-44799642D02*
X80890714Y-44871071D01*
X81247857Y-44871071D01*
X81390714Y-44799642D01*
X81462142Y-44656785D01*
X81462142Y-44513928D01*
X81390714Y-44371071D01*
X81247857Y-44299642D01*
X80890714Y-44299642D01*
X80747857Y-44228214D01*
X80033571Y-44871071D02*
X80033571Y-43871071D01*
X80033571Y-44013928D02*
X79962142Y-43942500D01*
X79819285Y-43871071D01*
X79605000Y-43871071D01*
X79462142Y-43942500D01*
X79390714Y-44085357D01*
X79390714Y-44871071D01*
X79390714Y-44085357D02*
X79319285Y-43942500D01*
X79176428Y-43871071D01*
X78962142Y-43871071D01*
X78819285Y-43942500D01*
X78747857Y-44085357D01*
X78747857Y-44871071D01*
X77462142Y-44799642D02*
X77605000Y-44871071D01*
X77890714Y-44871071D01*
X78033571Y-44799642D01*
X78105000Y-44656785D01*
X78105000Y-44085357D01*
X78033571Y-43942500D01*
X77890714Y-43871071D01*
X77605000Y-43871071D01*
X77462142Y-43942500D01*
X77390714Y-44085357D01*
X77390714Y-44228214D01*
X78105000Y-44371071D01*
X76747857Y-44728214D02*
X76676428Y-44799642D01*
X76747857Y-44871071D01*
X76819285Y-44799642D01*
X76747857Y-44728214D01*
X76747857Y-44871071D01*
X76747857Y-43942500D02*
X76676428Y-44013928D01*
X76747857Y-44085357D01*
X76819285Y-44013928D01*
X76747857Y-43942500D01*
X76747857Y-44085357D01*
X74962142Y-43513928D02*
X74890714Y-43442500D01*
X74747857Y-43371071D01*
X74390714Y-43371071D01*
X74247857Y-43442500D01*
X74176428Y-43513928D01*
X74105000Y-43656785D01*
X74105000Y-43799642D01*
X74176428Y-44013928D01*
X75033571Y-44871071D01*
X74105000Y-44871071D01*
X73176428Y-43371071D02*
X73033571Y-43371071D01*
X72890714Y-43442500D01*
X72819285Y-43513928D01*
X72747857Y-43656785D01*
X72676428Y-43942500D01*
X72676428Y-44299642D01*
X72747857Y-44585357D01*
X72819285Y-44728214D01*
X72890714Y-44799642D01*
X73033571Y-44871071D01*
X73176428Y-44871071D01*
X73319285Y-44799642D01*
X73390714Y-44728214D01*
X73462142Y-44585357D01*
X73533571Y-44299642D01*
X73533571Y-43942500D01*
X73462142Y-43656785D01*
X73390714Y-43513928D01*
X73319285Y-43442500D01*
X73176428Y-43371071D01*
X71390714Y-43871071D02*
X71390714Y-44871071D01*
X71747857Y-43299642D02*
X72105000Y-44371071D01*
X71176428Y-44371071D01*
X70390714Y-44013928D02*
X70533571Y-43942500D01*
X70605000Y-43871071D01*
X70676428Y-43728214D01*
X70676428Y-43656785D01*
X70605000Y-43513928D01*
X70533571Y-43442500D01*
X70390714Y-43371071D01*
X70105000Y-43371071D01*
X69962142Y-43442500D01*
X69890714Y-43513928D01*
X69819285Y-43656785D01*
X69819285Y-43728214D01*
X69890714Y-43871071D01*
X69962142Y-43942500D01*
X70105000Y-44013928D01*
X70390714Y-44013928D01*
X70533571Y-44085357D01*
X70605000Y-44156785D01*
X70676428Y-44299642D01*
X70676428Y-44585357D01*
X70605000Y-44728214D01*
X70533571Y-44799642D01*
X70390714Y-44871071D01*
X70105000Y-44871071D01*
X69962142Y-44799642D01*
X69890714Y-44728214D01*
X69819285Y-44585357D01*
X69819285Y-44299642D01*
X69890714Y-44156785D01*
X69962142Y-44085357D01*
X70105000Y-44013928D01*
X87105000Y-46286071D02*
X87105000Y-47286071D01*
X87462142Y-45714642D02*
X87819285Y-46786071D01*
X86890714Y-46786071D01*
X82390714Y-46500357D02*
X82890714Y-46500357D01*
X82890714Y-47286071D02*
X82890714Y-45786071D01*
X82176428Y-45786071D01*
X81390714Y-47286071D02*
X81533571Y-47214642D01*
X81605000Y-47071785D01*
X81605000Y-45786071D01*
X80176428Y-47286071D02*
X80176428Y-46500357D01*
X80247857Y-46357500D01*
X80390714Y-46286071D01*
X80676428Y-46286071D01*
X80819285Y-46357500D01*
X80176428Y-47214642D02*
X80319285Y-47286071D01*
X80676428Y-47286071D01*
X80819285Y-47214642D01*
X80890714Y-47071785D01*
X80890714Y-46928928D01*
X80819285Y-46786071D01*
X80676428Y-46714642D01*
X80319285Y-46714642D01*
X80176428Y-46643214D01*
X79533571Y-47214642D02*
X79390714Y-47286071D01*
X79105000Y-47286071D01*
X78962142Y-47214642D01*
X78890714Y-47071785D01*
X78890714Y-47000357D01*
X78962142Y-46857500D01*
X79105000Y-46786071D01*
X79319285Y-46786071D01*
X79462142Y-46714642D01*
X79533571Y-46571785D01*
X79533571Y-46500357D01*
X79462142Y-46357500D01*
X79319285Y-46286071D01*
X79105000Y-46286071D01*
X78962142Y-46357500D01*
X78247857Y-47286071D02*
X78247857Y-45786071D01*
X77605000Y-47286071D02*
X77605000Y-46500357D01*
X77676428Y-46357500D01*
X77819285Y-46286071D01*
X78033571Y-46286071D01*
X78176428Y-46357500D01*
X78247857Y-46428928D01*
X76676428Y-47286071D02*
X76819285Y-47214642D01*
X76890714Y-47071785D01*
X76890714Y-45786071D01*
X76105000Y-47286071D02*
X76105000Y-46286071D01*
X76105000Y-45786071D02*
X76176428Y-45857500D01*
X76105000Y-45928928D01*
X76033571Y-45857500D01*
X76105000Y-45786071D01*
X76105000Y-45928928D01*
X74747857Y-46286071D02*
X74747857Y-47500357D01*
X74819285Y-47643214D01*
X74890714Y-47714642D01*
X75033571Y-47786071D01*
X75247857Y-47786071D01*
X75390714Y-47714642D01*
X74747857Y-47214642D02*
X74890714Y-47286071D01*
X75176428Y-47286071D01*
X75319285Y-47214642D01*
X75390714Y-47143214D01*
X75462142Y-47000357D01*
X75462142Y-46571785D01*
X75390714Y-46428928D01*
X75319285Y-46357500D01*
X75176428Y-46286071D01*
X74890714Y-46286071D01*
X74747857Y-46357500D01*
X74033571Y-47286071D02*
X74033571Y-45786071D01*
X73390714Y-47286071D02*
X73390714Y-46500357D01*
X73462142Y-46357500D01*
X73605000Y-46286071D01*
X73819285Y-46286071D01*
X73962142Y-46357500D01*
X74033571Y-46428928D01*
X72890714Y-46286071D02*
X72319285Y-46286071D01*
X72676428Y-45786071D02*
X72676428Y-47071785D01*
X72605000Y-47214642D01*
X72462142Y-47286071D01*
X72319285Y-47286071D01*
X87033571Y-48201071D02*
X87747857Y-48201071D01*
X87819285Y-48915357D01*
X87747857Y-48843928D01*
X87605000Y-48772500D01*
X87247857Y-48772500D01*
X87105000Y-48843928D01*
X87033571Y-48915357D01*
X86962142Y-49058214D01*
X86962142Y-49415357D01*
X87033571Y-49558214D01*
X87105000Y-49629642D01*
X87247857Y-49701071D01*
X87605000Y-49701071D01*
X87747857Y-49629642D01*
X87819285Y-49558214D01*
X82033571Y-49701071D02*
X82533571Y-48986785D01*
X82890714Y-49701071D02*
X82890714Y-48201071D01*
X82319285Y-48201071D01*
X82176428Y-48272500D01*
X82105000Y-48343928D01*
X82033571Y-48486785D01*
X82033571Y-48701071D01*
X82105000Y-48843928D01*
X82176428Y-48915357D01*
X82319285Y-48986785D01*
X82890714Y-48986785D01*
X80747857Y-49701071D02*
X80747857Y-48915357D01*
X80819285Y-48772500D01*
X80962142Y-48701071D01*
X81247857Y-48701071D01*
X81390714Y-48772500D01*
X80747857Y-49629642D02*
X80890714Y-49701071D01*
X81247857Y-49701071D01*
X81390714Y-49629642D01*
X81462142Y-49486785D01*
X81462142Y-49343928D01*
X81390714Y-49201071D01*
X81247857Y-49129642D01*
X80890714Y-49129642D01*
X80747857Y-49058214D01*
X80033571Y-49701071D02*
X80033571Y-48701071D01*
X80033571Y-48201071D02*
X80105000Y-48272500D01*
X80033571Y-48343928D01*
X79962142Y-48272500D01*
X80033571Y-48201071D01*
X80033571Y-48343928D01*
X79319285Y-48701071D02*
X79319285Y-49701071D01*
X79319285Y-48843928D02*
X79247857Y-48772500D01*
X79105000Y-48701071D01*
X78890714Y-48701071D01*
X78747857Y-48772500D01*
X78676428Y-48915357D01*
X78676428Y-49701071D01*
X77962142Y-49701071D02*
X77962142Y-48201071D01*
X77962142Y-48772500D02*
X77819285Y-48701071D01*
X77533571Y-48701071D01*
X77390714Y-48772500D01*
X77319285Y-48843928D01*
X77247857Y-48986785D01*
X77247857Y-49415357D01*
X77319285Y-49558214D01*
X77390714Y-49629642D01*
X77533571Y-49701071D01*
X77819285Y-49701071D01*
X77962142Y-49629642D01*
X76390714Y-49701071D02*
X76533571Y-49629642D01*
X76605000Y-49558214D01*
X76676428Y-49415357D01*
X76676428Y-48986785D01*
X76605000Y-48843928D01*
X76533571Y-48772500D01*
X76390714Y-48701071D01*
X76176428Y-48701071D01*
X76033571Y-48772500D01*
X75962142Y-48843928D01*
X75890714Y-48986785D01*
X75890714Y-49415357D01*
X75962142Y-49558214D01*
X76033571Y-49629642D01*
X76176428Y-49701071D01*
X76390714Y-49701071D01*
X75390714Y-48701071D02*
X75105000Y-49701071D01*
X74819285Y-48986785D01*
X74533571Y-49701071D01*
X74247857Y-48701071D01*
X72533571Y-48701071D02*
X72533571Y-50201071D01*
X72533571Y-48772500D02*
X72390714Y-48701071D01*
X72105000Y-48701071D01*
X71962142Y-48772500D01*
X71890714Y-48843928D01*
X71819285Y-48986785D01*
X71819285Y-49415357D01*
X71890714Y-49558214D01*
X71962142Y-49629642D01*
X72105000Y-49701071D01*
X72390714Y-49701071D01*
X72533571Y-49629642D01*
X70605000Y-49629642D02*
X70747857Y-49701071D01*
X71033571Y-49701071D01*
X71176428Y-49629642D01*
X71247857Y-49486785D01*
X71247857Y-48915357D01*
X71176428Y-48772500D01*
X71033571Y-48701071D01*
X70747857Y-48701071D01*
X70605000Y-48772500D01*
X70533571Y-48915357D01*
X70533571Y-49058214D01*
X71247857Y-49201071D01*
X69890714Y-48701071D02*
X69890714Y-49701071D01*
X69890714Y-48843928D02*
X69819285Y-48772500D01*
X69676428Y-48701071D01*
X69462142Y-48701071D01*
X69319285Y-48772500D01*
X69247857Y-48915357D01*
X69247857Y-49701071D01*
X67890714Y-49701071D02*
X67890714Y-48201071D01*
X67890714Y-49629642D02*
X68033571Y-49701071D01*
X68319285Y-49701071D01*
X68462142Y-49629642D01*
X68533571Y-49558214D01*
X68605000Y-49415357D01*
X68605000Y-48986785D01*
X68533571Y-48843928D01*
X68462142Y-48772500D01*
X68319285Y-48701071D01*
X68033571Y-48701071D01*
X67890714Y-48772500D01*
X66533571Y-49701071D02*
X66533571Y-48915357D01*
X66605000Y-48772500D01*
X66747857Y-48701071D01*
X67033571Y-48701071D01*
X67176428Y-48772500D01*
X66533571Y-49629642D02*
X66676428Y-49701071D01*
X67033571Y-49701071D01*
X67176428Y-49629642D01*
X67247857Y-49486785D01*
X67247857Y-49343928D01*
X67176428Y-49201071D01*
X67033571Y-49129642D01*
X66676428Y-49129642D01*
X66533571Y-49058214D01*
X65819285Y-48701071D02*
X65819285Y-49701071D01*
X65819285Y-48843928D02*
X65747857Y-48772500D01*
X65605000Y-48701071D01*
X65390714Y-48701071D01*
X65247857Y-48772500D01*
X65176428Y-48915357D01*
X65176428Y-49701071D01*
X64676428Y-48701071D02*
X64105000Y-48701071D01*
X64462142Y-48201071D02*
X64462142Y-49486785D01*
X64390714Y-49629642D01*
X64247857Y-49701071D01*
X64105000Y-49701071D01*
X87105000Y-50616071D02*
X87390714Y-50616071D01*
X87533571Y-50687500D01*
X87605000Y-50758928D01*
X87747857Y-50973214D01*
X87819285Y-51258928D01*
X87819285Y-51830357D01*
X87747857Y-51973214D01*
X87676428Y-52044642D01*
X87533571Y-52116071D01*
X87247857Y-52116071D01*
X87105000Y-52044642D01*
X87033571Y-51973214D01*
X86962142Y-51830357D01*
X86962142Y-51473214D01*
X87033571Y-51330357D01*
X87105000Y-51258928D01*
X87247857Y-51187500D01*
X87533571Y-51187500D01*
X87676428Y-51258928D01*
X87747857Y-51330357D01*
X87819285Y-51473214D01*
X82390714Y-51330357D02*
X82176428Y-51401785D01*
X82105000Y-51473214D01*
X82033571Y-51616071D01*
X82033571Y-51830357D01*
X82105000Y-51973214D01*
X82176428Y-52044642D01*
X82319285Y-52116071D01*
X82890714Y-52116071D01*
X82890714Y-50616071D01*
X82390714Y-50616071D01*
X82247857Y-50687500D01*
X82176428Y-50758928D01*
X82105000Y-50901785D01*
X82105000Y-51044642D01*
X82176428Y-51187500D01*
X82247857Y-51258928D01*
X82390714Y-51330357D01*
X82890714Y-51330357D01*
X81176428Y-52116071D02*
X81319285Y-52044642D01*
X81390714Y-51901785D01*
X81390714Y-50616071D01*
X80033571Y-52044642D02*
X80176428Y-52116071D01*
X80462142Y-52116071D01*
X80605000Y-52044642D01*
X80676428Y-51901785D01*
X80676428Y-51330357D01*
X80605000Y-51187500D01*
X80462142Y-51116071D01*
X80176428Y-51116071D01*
X80033571Y-51187500D01*
X79962142Y-51330357D01*
X79962142Y-51473214D01*
X80676428Y-51616071D01*
X78747857Y-52044642D02*
X78890714Y-52116071D01*
X79176428Y-52116071D01*
X79319285Y-52044642D01*
X79390714Y-51901785D01*
X79390714Y-51330357D01*
X79319285Y-51187500D01*
X79176428Y-51116071D01*
X78890714Y-51116071D01*
X78747857Y-51187500D01*
X78676428Y-51330357D01*
X78676428Y-51473214D01*
X79390714Y-51616071D01*
X78033571Y-51116071D02*
X78033571Y-52616071D01*
X78033571Y-51187500D02*
X77890714Y-51116071D01*
X77605000Y-51116071D01*
X77462142Y-51187500D01*
X77390714Y-51258928D01*
X77319285Y-51401785D01*
X77319285Y-51830357D01*
X77390714Y-51973214D01*
X77462142Y-52044642D01*
X77605000Y-52116071D01*
X77890714Y-52116071D01*
X78033571Y-52044642D01*
X76676428Y-51544642D02*
X75533571Y-51544642D01*
X74819285Y-52116071D02*
X74819285Y-50616071D01*
X74819285Y-51187500D02*
X74676428Y-51116071D01*
X74390714Y-51116071D01*
X74247857Y-51187500D01*
X74176428Y-51258928D01*
X74105000Y-51401785D01*
X74105000Y-51830357D01*
X74176428Y-51973214D01*
X74247857Y-52044642D01*
X74390714Y-52116071D01*
X74676428Y-52116071D01*
X74819285Y-52044642D01*
X73247857Y-52116071D02*
X73390714Y-52044642D01*
X73462142Y-51901785D01*
X73462142Y-50616071D01*
X72462142Y-52116071D02*
X72605000Y-52044642D01*
X72676428Y-51973214D01*
X72747857Y-51830357D01*
X72747857Y-51401785D01*
X72676428Y-51258928D01*
X72605000Y-51187500D01*
X72462142Y-51116071D01*
X72247857Y-51116071D01*
X72105000Y-51187500D01*
X72033571Y-51258928D01*
X71962142Y-51401785D01*
X71962142Y-51830357D01*
X72033571Y-51973214D01*
X72105000Y-52044642D01*
X72247857Y-52116071D01*
X72462142Y-52116071D01*
X71105000Y-52116071D02*
X71247857Y-52044642D01*
X71319285Y-51973214D01*
X71390714Y-51830357D01*
X71390714Y-51401785D01*
X71319285Y-51258928D01*
X71247857Y-51187500D01*
X71105000Y-51116071D01*
X70890714Y-51116071D01*
X70747857Y-51187500D01*
X70676428Y-51258928D01*
X70605000Y-51401785D01*
X70605000Y-51830357D01*
X70676428Y-51973214D01*
X70747857Y-52044642D01*
X70890714Y-52116071D01*
X71105000Y-52116071D01*
X69962142Y-51116071D02*
X69962142Y-52616071D01*
X69962142Y-51187500D02*
X69819285Y-51116071D01*
X69533571Y-51116071D01*
X69390714Y-51187500D01*
X69319285Y-51258928D01*
X69247857Y-51401785D01*
X69247857Y-51830357D01*
X69319285Y-51973214D01*
X69390714Y-52044642D01*
X69533571Y-52116071D01*
X69819285Y-52116071D01*
X69962142Y-52044642D01*
X68033571Y-52044642D02*
X68176428Y-52116071D01*
X68462142Y-52116071D01*
X68605000Y-52044642D01*
X68676428Y-51901785D01*
X68676428Y-51330357D01*
X68605000Y-51187500D01*
X68462142Y-51116071D01*
X68176428Y-51116071D01*
X68033571Y-51187500D01*
X67962142Y-51330357D01*
X67962142Y-51473214D01*
X68676428Y-51616071D01*
X67319285Y-52116071D02*
X67319285Y-51116071D01*
X67319285Y-51401785D02*
X67247857Y-51258928D01*
X67176428Y-51187500D01*
X67033571Y-51116071D01*
X66890714Y-51116071D01*
X87890714Y-53031071D02*
X86890714Y-53031071D01*
X87533571Y-54531071D01*
X82962142Y-54459642D02*
X82747857Y-54531071D01*
X82390714Y-54531071D01*
X82247857Y-54459642D01*
X82176428Y-54388214D01*
X82105000Y-54245357D01*
X82105000Y-54102500D01*
X82176428Y-53959642D01*
X82247857Y-53888214D01*
X82390714Y-53816785D01*
X82676428Y-53745357D01*
X82819285Y-53673928D01*
X82890714Y-53602500D01*
X82962142Y-53459642D01*
X82962142Y-53316785D01*
X82890714Y-53173928D01*
X82819285Y-53102500D01*
X82676428Y-53031071D01*
X82319285Y-53031071D01*
X82105000Y-53102500D01*
X80890714Y-54459642D02*
X81033571Y-54531071D01*
X81319285Y-54531071D01*
X81462142Y-54459642D01*
X81533571Y-54316785D01*
X81533571Y-53745357D01*
X81462142Y-53602500D01*
X81319285Y-53531071D01*
X81033571Y-53531071D01*
X80890714Y-53602500D01*
X80819285Y-53745357D01*
X80819285Y-53888214D01*
X81533571Y-54031071D01*
X80390714Y-53531071D02*
X79819285Y-53531071D01*
X80176428Y-53031071D02*
X80176428Y-54316785D01*
X80105000Y-54459642D01*
X79962142Y-54531071D01*
X79819285Y-54531071D01*
X78176428Y-54531071D02*
X78176428Y-53031071D01*
X78176428Y-53602500D02*
X78033571Y-53531071D01*
X77747857Y-53531071D01*
X77605000Y-53602500D01*
X77533571Y-53673928D01*
X77462142Y-53816785D01*
X77462142Y-54245357D01*
X77533571Y-54388214D01*
X77605000Y-54459642D01*
X77747857Y-54531071D01*
X78033571Y-54531071D01*
X78176428Y-54459642D01*
X76819285Y-54531071D02*
X76819285Y-53531071D01*
X76819285Y-53816785D02*
X76747857Y-53673928D01*
X76676428Y-53602500D01*
X76533571Y-53531071D01*
X76390714Y-53531071D01*
X75890714Y-54531071D02*
X75890714Y-53531071D01*
X75890714Y-53031071D02*
X75962142Y-53102500D01*
X75890714Y-53173928D01*
X75819285Y-53102500D01*
X75890714Y-53031071D01*
X75890714Y-53173928D01*
X74533571Y-53531071D02*
X74533571Y-54745357D01*
X74605000Y-54888214D01*
X74676428Y-54959642D01*
X74819285Y-55031071D01*
X75033571Y-55031071D01*
X75176428Y-54959642D01*
X74533571Y-54459642D02*
X74676428Y-54531071D01*
X74962142Y-54531071D01*
X75105000Y-54459642D01*
X75176428Y-54388214D01*
X75247857Y-54245357D01*
X75247857Y-53816785D01*
X75176428Y-53673928D01*
X75105000Y-53602500D01*
X74962142Y-53531071D01*
X74676428Y-53531071D01*
X74533571Y-53602500D01*
X73819285Y-54531071D02*
X73819285Y-53031071D01*
X73176428Y-54531071D02*
X73176428Y-53745357D01*
X73247857Y-53602500D01*
X73390714Y-53531071D01*
X73605000Y-53531071D01*
X73747857Y-53602500D01*
X73819285Y-53673928D01*
X72676428Y-53531071D02*
X72105000Y-53531071D01*
X72462142Y-53031071D02*
X72462142Y-54316785D01*
X72390714Y-54459642D01*
X72247857Y-54531071D01*
X72105000Y-54531071D01*
X71605000Y-53531071D02*
X71605000Y-54531071D01*
X71605000Y-53673928D02*
X71533571Y-53602500D01*
X71390714Y-53531071D01*
X71176428Y-53531071D01*
X71033571Y-53602500D01*
X70962142Y-53745357D01*
X70962142Y-54531071D01*
X69676428Y-54459642D02*
X69819285Y-54531071D01*
X70105000Y-54531071D01*
X70247857Y-54459642D01*
X70319285Y-54316785D01*
X70319285Y-53745357D01*
X70247857Y-53602500D01*
X70105000Y-53531071D01*
X69819285Y-53531071D01*
X69676428Y-53602500D01*
X69605000Y-53745357D01*
X69605000Y-53888214D01*
X70319285Y-54031071D01*
X69033571Y-54459642D02*
X68890714Y-54531071D01*
X68605000Y-54531071D01*
X68462142Y-54459642D01*
X68390714Y-54316785D01*
X68390714Y-54245357D01*
X68462142Y-54102500D01*
X68605000Y-54031071D01*
X68819285Y-54031071D01*
X68962142Y-53959642D01*
X69033571Y-53816785D01*
X69033571Y-53745357D01*
X68962142Y-53602500D01*
X68819285Y-53531071D01*
X68605000Y-53531071D01*
X68462142Y-53602500D01*
X67819285Y-54459642D02*
X67676428Y-54531071D01*
X67390714Y-54531071D01*
X67247857Y-54459642D01*
X67176428Y-54316785D01*
X67176428Y-54245357D01*
X67247857Y-54102500D01*
X67390714Y-54031071D01*
X67605000Y-54031071D01*
X67747857Y-53959642D01*
X67819285Y-53816785D01*
X67819285Y-53745357D01*
X67747857Y-53602500D01*
X67605000Y-53531071D01*
X67390714Y-53531071D01*
X67247857Y-53602500D01*
X87533571Y-56088928D02*
X87676428Y-56017500D01*
X87747857Y-55946071D01*
X87819285Y-55803214D01*
X87819285Y-55731785D01*
X87747857Y-55588928D01*
X87676428Y-55517500D01*
X87533571Y-55446071D01*
X87247857Y-55446071D01*
X87105000Y-55517500D01*
X87033571Y-55588928D01*
X86962142Y-55731785D01*
X86962142Y-55803214D01*
X87033571Y-55946071D01*
X87105000Y-56017500D01*
X87247857Y-56088928D01*
X87533571Y-56088928D01*
X87676428Y-56160357D01*
X87747857Y-56231785D01*
X87819285Y-56374642D01*
X87819285Y-56660357D01*
X87747857Y-56803214D01*
X87676428Y-56874642D01*
X87533571Y-56946071D01*
X87247857Y-56946071D01*
X87105000Y-56874642D01*
X87033571Y-56803214D01*
X86962142Y-56660357D01*
X86962142Y-56374642D01*
X87033571Y-56231785D01*
X87105000Y-56160357D01*
X87247857Y-56088928D01*
X83105000Y-55446071D02*
X82247857Y-55446071D01*
X82676428Y-56946071D02*
X82676428Y-55446071D01*
X81533571Y-56946071D02*
X81676428Y-56874642D01*
X81747857Y-56803214D01*
X81819285Y-56660357D01*
X81819285Y-56231785D01*
X81747857Y-56088928D01*
X81676428Y-56017500D01*
X81533571Y-55946071D01*
X81319285Y-55946071D01*
X81176428Y-56017500D01*
X81105000Y-56088928D01*
X81033571Y-56231785D01*
X81033571Y-56660357D01*
X81105000Y-56803214D01*
X81176428Y-56874642D01*
X81319285Y-56946071D01*
X81533571Y-56946071D01*
X79747857Y-55946071D02*
X79747857Y-57160357D01*
X79819285Y-57303214D01*
X79890714Y-57374642D01*
X80033571Y-57446071D01*
X80247857Y-57446071D01*
X80390714Y-57374642D01*
X79747857Y-56874642D02*
X79890714Y-56946071D01*
X80176428Y-56946071D01*
X80319285Y-56874642D01*
X80390714Y-56803214D01*
X80462142Y-56660357D01*
X80462142Y-56231785D01*
X80390714Y-56088928D01*
X80319285Y-56017500D01*
X80176428Y-55946071D01*
X79890714Y-55946071D01*
X79747857Y-56017500D01*
X78390714Y-55946071D02*
X78390714Y-57160357D01*
X78462142Y-57303214D01*
X78533571Y-57374642D01*
X78676428Y-57446071D01*
X78890714Y-57446071D01*
X79033571Y-57374642D01*
X78390714Y-56874642D02*
X78533571Y-56946071D01*
X78819285Y-56946071D01*
X78962142Y-56874642D01*
X79033571Y-56803214D01*
X79105000Y-56660357D01*
X79105000Y-56231785D01*
X79033571Y-56088928D01*
X78962142Y-56017500D01*
X78819285Y-55946071D01*
X78533571Y-55946071D01*
X78390714Y-56017500D01*
X77462142Y-56946071D02*
X77605000Y-56874642D01*
X77676428Y-56731785D01*
X77676428Y-55446071D01*
X76319285Y-56874642D02*
X76462142Y-56946071D01*
X76747857Y-56946071D01*
X76890714Y-56874642D01*
X76962142Y-56731785D01*
X76962142Y-56160357D01*
X76890714Y-56017500D01*
X76747857Y-55946071D01*
X76462142Y-55946071D01*
X76319285Y-56017500D01*
X76247857Y-56160357D01*
X76247857Y-56303214D01*
X76962142Y-56446071D01*
X73819285Y-56946071D02*
X73819285Y-56160357D01*
X73890714Y-56017500D01*
X74033571Y-55946071D01*
X74319285Y-55946071D01*
X74462142Y-56017500D01*
X73819285Y-56874642D02*
X73962142Y-56946071D01*
X74319285Y-56946071D01*
X74462142Y-56874642D01*
X74533571Y-56731785D01*
X74533571Y-56588928D01*
X74462142Y-56446071D01*
X74319285Y-56374642D01*
X73962142Y-56374642D01*
X73819285Y-56303214D01*
X72462142Y-55946071D02*
X72462142Y-56946071D01*
X73105000Y-55946071D02*
X73105000Y-56731785D01*
X73033571Y-56874642D01*
X72890714Y-56946071D01*
X72676428Y-56946071D01*
X72533571Y-56874642D01*
X72462142Y-56803214D01*
X71105000Y-56946071D02*
X71105000Y-55446071D01*
X71105000Y-56874642D02*
X71247857Y-56946071D01*
X71533571Y-56946071D01*
X71676428Y-56874642D01*
X71747857Y-56803214D01*
X71819285Y-56660357D01*
X71819285Y-56231785D01*
X71747857Y-56088928D01*
X71676428Y-56017500D01*
X71533571Y-55946071D01*
X71247857Y-55946071D01*
X71105000Y-56017500D01*
X70390714Y-56946071D02*
X70390714Y-55946071D01*
X70390714Y-55446071D02*
X70462142Y-55517500D01*
X70390714Y-55588928D01*
X70319285Y-55517500D01*
X70390714Y-55446071D01*
X70390714Y-55588928D01*
X69462142Y-56946071D02*
X69605000Y-56874642D01*
X69676428Y-56803214D01*
X69747857Y-56660357D01*
X69747857Y-56231785D01*
X69676428Y-56088928D01*
X69605000Y-56017500D01*
X69462142Y-55946071D01*
X69247857Y-55946071D01*
X69105000Y-56017500D01*
X69033571Y-56088928D01*
X68962142Y-56231785D01*
X68962142Y-56660357D01*
X69033571Y-56803214D01*
X69105000Y-56874642D01*
X69247857Y-56946071D01*
X69462142Y-56946071D01*
X66962142Y-56946071D02*
X67105000Y-56874642D01*
X67176428Y-56803214D01*
X67247857Y-56660357D01*
X67247857Y-56231785D01*
X67176428Y-56088928D01*
X67105000Y-56017500D01*
X66962142Y-55946071D01*
X66747857Y-55946071D01*
X66605000Y-56017500D01*
X66533571Y-56088928D01*
X66462142Y-56231785D01*
X66462142Y-56660357D01*
X66533571Y-56803214D01*
X66605000Y-56874642D01*
X66747857Y-56946071D01*
X66962142Y-56946071D01*
X65176428Y-55946071D02*
X65176428Y-56946071D01*
X65819285Y-55946071D02*
X65819285Y-56731785D01*
X65747857Y-56874642D01*
X65605000Y-56946071D01*
X65390714Y-56946071D01*
X65247857Y-56874642D01*
X65176428Y-56803214D01*
X64676428Y-55946071D02*
X64105000Y-55946071D01*
X64462142Y-55446071D02*
X64462142Y-56731785D01*
X64390714Y-56874642D01*
X64247857Y-56946071D01*
X64105000Y-56946071D01*
X63605000Y-55946071D02*
X63605000Y-57446071D01*
X63605000Y-56017500D02*
X63462142Y-55946071D01*
X63176428Y-55946071D01*
X63033571Y-56017500D01*
X62962142Y-56088928D01*
X62890714Y-56231785D01*
X62890714Y-56660357D01*
X62962142Y-56803214D01*
X63033571Y-56874642D01*
X63176428Y-56946071D01*
X63462142Y-56946071D01*
X63605000Y-56874642D01*
X61605000Y-55946071D02*
X61605000Y-56946071D01*
X62247857Y-55946071D02*
X62247857Y-56731785D01*
X62176428Y-56874642D01*
X62033571Y-56946071D01*
X61819285Y-56946071D01*
X61676428Y-56874642D01*
X61605000Y-56803214D01*
X61105000Y-55946071D02*
X60533571Y-55946071D01*
X60890714Y-55446071D02*
X60890714Y-56731785D01*
X60819285Y-56874642D01*
X60676428Y-56946071D01*
X60533571Y-56946071D01*
D10*
X73066666Y-71185714D02*
X73066666Y-71661904D01*
X73352380Y-71090476D02*
X72352380Y-71423809D01*
X73352380Y-71757142D01*
X72352380Y-71995238D02*
X72352380Y-72661904D01*
X73352380Y-72233333D01*
X85100000Y-70538095D02*
X85052380Y-70442857D01*
X85052380Y-70300000D01*
X85100000Y-70157142D01*
X85195238Y-70061904D01*
X85290476Y-70014285D01*
X85480952Y-69966666D01*
X85623809Y-69966666D01*
X85814285Y-70014285D01*
X85909523Y-70061904D01*
X86004761Y-70157142D01*
X86052380Y-70300000D01*
X86052380Y-70395238D01*
X86004761Y-70538095D01*
X85957142Y-70585714D01*
X85623809Y-70585714D01*
X85623809Y-70395238D01*
X86052380Y-71014285D02*
X85052380Y-71014285D01*
X86052380Y-71585714D01*
X85052380Y-71585714D01*
X86052380Y-72061904D02*
X85052380Y-72061904D01*
X85052380Y-72300000D01*
X85100000Y-72442857D01*
X85195238Y-72538095D01*
X85290476Y-72585714D01*
X85480952Y-72633333D01*
X85623809Y-72633333D01*
X85814285Y-72585714D01*
X85909523Y-72538095D01*
X86004761Y-72442857D01*
X86052380Y-72300000D01*
X86052380Y-72061904D01*
X75904761Y-79109523D02*
X75952380Y-79252380D01*
X75952380Y-79490476D01*
X75904761Y-79585714D01*
X75857142Y-79633333D01*
X75761904Y-79680952D01*
X75666666Y-79680952D01*
X75571428Y-79633333D01*
X75523809Y-79585714D01*
X75476190Y-79490476D01*
X75428571Y-79300000D01*
X75380952Y-79204761D01*
X75333333Y-79157142D01*
X75238095Y-79109523D01*
X75142857Y-79109523D01*
X75047619Y-79157142D01*
X75000000Y-79204761D01*
X74952380Y-79300000D01*
X74952380Y-79538095D01*
X75000000Y-79680952D01*
X75857142Y-80680952D02*
X75904761Y-80633333D01*
X75952380Y-80490476D01*
X75952380Y-80395238D01*
X75904761Y-80252380D01*
X75809523Y-80157142D01*
X75714285Y-80109523D01*
X75523809Y-80061904D01*
X75380952Y-80061904D01*
X75190476Y-80109523D01*
X75095238Y-80157142D01*
X75000000Y-80252380D01*
X74952380Y-80395238D01*
X74952380Y-80490476D01*
X75000000Y-80633333D01*
X75047619Y-80680952D01*
X75952380Y-81585714D02*
X75952380Y-81109523D01*
X74952380Y-81109523D01*
X54652380Y-79609523D02*
X54652380Y-79133333D01*
X55128571Y-79085714D01*
X55080952Y-79133333D01*
X55033333Y-79228571D01*
X55033333Y-79466666D01*
X55080952Y-79561904D01*
X55128571Y-79609523D01*
X55223809Y-79657142D01*
X55461904Y-79657142D01*
X55557142Y-79609523D01*
X55604761Y-79561904D01*
X55652380Y-79466666D01*
X55652380Y-79228571D01*
X55604761Y-79133333D01*
X55557142Y-79085714D01*
X54652380Y-79942857D02*
X55652380Y-80276190D01*
X54652380Y-80609523D01*
X55366666Y-70138095D02*
X55366666Y-70614285D01*
X55652380Y-70042857D02*
X54652380Y-70376190D01*
X55652380Y-70709523D01*
X55557142Y-71614285D02*
X55604761Y-71566666D01*
X55652380Y-71423809D01*
X55652380Y-71328571D01*
X55604761Y-71185714D01*
X55509523Y-71090476D01*
X55414285Y-71042857D01*
X55223809Y-70995238D01*
X55080952Y-70995238D01*
X54890476Y-71042857D01*
X54795238Y-71090476D01*
X54700000Y-71185714D01*
X54652380Y-71328571D01*
X54652380Y-71423809D01*
X54700000Y-71566666D01*
X54747619Y-71614285D01*
X54652380Y-72233333D02*
X54652380Y-72423809D01*
X54700000Y-72519047D01*
X54795238Y-72614285D01*
X54985714Y-72661904D01*
X55319047Y-72661904D01*
X55509523Y-72614285D01*
X55604761Y-72519047D01*
X55652380Y-72423809D01*
X55652380Y-72233333D01*
X55604761Y-72138095D01*
X55509523Y-72042857D01*
X55319047Y-71995238D01*
X54985714Y-71995238D01*
X54795238Y-72042857D01*
X54700000Y-72138095D01*
X54652380Y-72233333D01*
X96319047Y-116552380D02*
X96319047Y-117266666D01*
X96366666Y-117409523D01*
X96461904Y-117504761D01*
X96604761Y-117552380D01*
X96700000Y-117552380D01*
X95366666Y-117552380D02*
X95842857Y-117552380D01*
X95842857Y-116552380D01*
X94461904Y-117457142D02*
X94509523Y-117504761D01*
X94652380Y-117552380D01*
X94747619Y-117552380D01*
X94890476Y-117504761D01*
X94985714Y-117409523D01*
X95033333Y-117314285D01*
X95080952Y-117123809D01*
X95080952Y-116980952D01*
X95033333Y-116790476D01*
X94985714Y-116695238D01*
X94890476Y-116600000D01*
X94747619Y-116552380D01*
X94652380Y-116552380D01*
X94509523Y-116600000D01*
X94461904Y-116647619D01*
X93747619Y-116552380D02*
X93747619Y-117266666D01*
X93795238Y-117409523D01*
X93890476Y-117504761D01*
X94033333Y-117552380D01*
X94128571Y-117552380D01*
X92795238Y-117552380D02*
X93271428Y-117552380D01*
X93271428Y-116552380D01*
X91890476Y-117457142D02*
X91938095Y-117504761D01*
X92080952Y-117552380D01*
X92176190Y-117552380D01*
X92319047Y-117504761D01*
X92414285Y-117409523D01*
X92461904Y-117314285D01*
X92509523Y-117123809D01*
X92509523Y-116980952D01*
X92461904Y-116790476D01*
X92414285Y-116695238D01*
X92319047Y-116600000D01*
X92176190Y-116552380D01*
X92080952Y-116552380D01*
X91938095Y-116600000D01*
X91890476Y-116647619D01*
X91176190Y-116552380D02*
X91176190Y-117266666D01*
X91223809Y-117409523D01*
X91319047Y-117504761D01*
X91461904Y-117552380D01*
X91557142Y-117552380D01*
X90223809Y-117552380D02*
X90700000Y-117552380D01*
X90700000Y-116552380D01*
X89319047Y-117457142D02*
X89366666Y-117504761D01*
X89509523Y-117552380D01*
X89604761Y-117552380D01*
X89747619Y-117504761D01*
X89842857Y-117409523D01*
X89890476Y-117314285D01*
X89938095Y-117123809D01*
X89938095Y-116980952D01*
X89890476Y-116790476D01*
X89842857Y-116695238D01*
X89747619Y-116600000D01*
X89604761Y-116552380D01*
X89509523Y-116552380D01*
X89366666Y-116600000D01*
X89319047Y-116647619D01*
X88604761Y-116552380D02*
X88604761Y-117266666D01*
X88652380Y-117409523D01*
X88747619Y-117504761D01*
X88890476Y-117552380D01*
X88985714Y-117552380D01*
X87652380Y-117552380D02*
X88128571Y-117552380D01*
X88128571Y-116552380D01*
X86747619Y-117457142D02*
X86795238Y-117504761D01*
X86938095Y-117552380D01*
X87033333Y-117552380D01*
X87176190Y-117504761D01*
X87271428Y-117409523D01*
X87319047Y-117314285D01*
X87366666Y-117123809D01*
X87366666Y-116980952D01*
X87319047Y-116790476D01*
X87271428Y-116695238D01*
X87176190Y-116600000D01*
X87033333Y-116552380D01*
X86938095Y-116552380D01*
X86795238Y-116600000D01*
X86747619Y-116647619D01*
X80666666Y-79085714D02*
X80666666Y-79561904D01*
X80952380Y-78990476D02*
X79952380Y-79323809D01*
X80952380Y-79657142D01*
X80047619Y-79942857D02*
X80000000Y-79990476D01*
X79952380Y-80085714D01*
X79952380Y-80323809D01*
X80000000Y-80419047D01*
X80047619Y-80466666D01*
X80142857Y-80514285D01*
X80238095Y-80514285D01*
X80380952Y-80466666D01*
X80952380Y-79895238D01*
X80952380Y-80514285D01*
X70852380Y-79066666D02*
X69852380Y-79066666D01*
X70566666Y-79400000D01*
X69852380Y-79733333D01*
X70852380Y-79733333D01*
X69852380Y-80400000D02*
X69852380Y-80590476D01*
X69900000Y-80685714D01*
X69995238Y-80780952D01*
X70185714Y-80828571D01*
X70519047Y-80828571D01*
X70709523Y-80780952D01*
X70804761Y-80685714D01*
X70852380Y-80590476D01*
X70852380Y-80400000D01*
X70804761Y-80304761D01*
X70709523Y-80209523D01*
X70519047Y-80161904D01*
X70185714Y-80161904D01*
X69995238Y-80209523D01*
X69900000Y-80304761D01*
X69852380Y-80400000D01*
X70804761Y-81209523D02*
X70852380Y-81352380D01*
X70852380Y-81590476D01*
X70804761Y-81685714D01*
X70757142Y-81733333D01*
X70661904Y-81780952D01*
X70566666Y-81780952D01*
X70471428Y-81733333D01*
X70423809Y-81685714D01*
X70376190Y-81590476D01*
X70328571Y-81400000D01*
X70280952Y-81304761D01*
X70233333Y-81257142D01*
X70138095Y-81209523D01*
X70042857Y-81209523D01*
X69947619Y-81257142D01*
X69900000Y-81304761D01*
X69852380Y-81400000D01*
X69852380Y-81638095D01*
X69900000Y-81780952D01*
X78166666Y-71085714D02*
X78166666Y-71561904D01*
X78452380Y-70990476D02*
X77452380Y-71323809D01*
X78452380Y-71657142D01*
X77452380Y-72419047D02*
X77452380Y-72228571D01*
X77500000Y-72133333D01*
X77547619Y-72085714D01*
X77690476Y-71990476D01*
X77880952Y-71942857D01*
X78261904Y-71942857D01*
X78357142Y-71990476D01*
X78404761Y-72038095D01*
X78452380Y-72133333D01*
X78452380Y-72323809D01*
X78404761Y-72419047D01*
X78357142Y-72466666D01*
X78261904Y-72514285D01*
X78023809Y-72514285D01*
X77928571Y-72466666D01*
X77880952Y-72419047D01*
X77833333Y-72323809D01*
X77833333Y-72133333D01*
X77880952Y-72038095D01*
X77928571Y-71990476D01*
X78023809Y-71942857D01*
X59652380Y-79038095D02*
X59652380Y-79609523D01*
X60652380Y-79323809D02*
X59652380Y-79323809D01*
X59652380Y-79847619D02*
X60652380Y-80514285D01*
X59652380Y-80514285D02*
X60652380Y-79847619D01*
X73304761Y-79014285D02*
X73352380Y-79157142D01*
X73352380Y-79395238D01*
X73304761Y-79490476D01*
X73257142Y-79538095D01*
X73161904Y-79585714D01*
X73066666Y-79585714D01*
X72971428Y-79538095D01*
X72923809Y-79490476D01*
X72876190Y-79395238D01*
X72828571Y-79204761D01*
X72780952Y-79109523D01*
X72733333Y-79061904D01*
X72638095Y-79014285D01*
X72542857Y-79014285D01*
X72447619Y-79061904D01*
X72400000Y-79109523D01*
X72352380Y-79204761D01*
X72352380Y-79442857D01*
X72400000Y-79585714D01*
X73257142Y-80585714D02*
X73304761Y-80538095D01*
X73352380Y-80395238D01*
X73352380Y-80300000D01*
X73304761Y-80157142D01*
X73209523Y-80061904D01*
X73114285Y-80014285D01*
X72923809Y-79966666D01*
X72780952Y-79966666D01*
X72590476Y-80014285D01*
X72495238Y-80061904D01*
X72400000Y-80157142D01*
X72352380Y-80300000D01*
X72352380Y-80395238D01*
X72400000Y-80538095D01*
X72447619Y-80585714D01*
X73352380Y-81014285D02*
X72352380Y-81014285D01*
X73352380Y-81585714D02*
X72780952Y-81157142D01*
X72352380Y-81585714D02*
X72923809Y-81014285D01*
X78166666Y-79085714D02*
X78166666Y-79561904D01*
X78452380Y-78990476D02*
X77452380Y-79323809D01*
X78452380Y-79657142D01*
X77452380Y-79895238D02*
X77452380Y-80514285D01*
X77833333Y-80180952D01*
X77833333Y-80323809D01*
X77880952Y-80419047D01*
X77928571Y-80466666D01*
X78023809Y-80514285D01*
X78261904Y-80514285D01*
X78357142Y-80466666D01*
X78404761Y-80419047D01*
X78452380Y-80323809D01*
X78452380Y-80038095D01*
X78404761Y-79942857D01*
X78357142Y-79895238D01*
X62252380Y-79114285D02*
X63061904Y-79114285D01*
X63157142Y-79161904D01*
X63204761Y-79209523D01*
X63252380Y-79304761D01*
X63252380Y-79495238D01*
X63204761Y-79590476D01*
X63157142Y-79638095D01*
X63061904Y-79685714D01*
X62252380Y-79685714D01*
X63252380Y-80161904D02*
X62252380Y-80161904D01*
X62252380Y-80542857D01*
X62300000Y-80638095D01*
X62347619Y-80685714D01*
X62442857Y-80733333D01*
X62585714Y-80733333D01*
X62680952Y-80685714D01*
X62728571Y-80638095D01*
X62776190Y-80542857D01*
X62776190Y-80161904D01*
X65752380Y-70042857D02*
X64752380Y-70042857D01*
X64752380Y-70280952D01*
X64800000Y-70423809D01*
X64895238Y-70519047D01*
X64990476Y-70566666D01*
X65180952Y-70614285D01*
X65323809Y-70614285D01*
X65514285Y-70566666D01*
X65609523Y-70519047D01*
X65704761Y-70423809D01*
X65752380Y-70280952D01*
X65752380Y-70042857D01*
X64752380Y-70947619D02*
X65752380Y-71185714D01*
X65038095Y-71376190D01*
X65752380Y-71566666D01*
X64752380Y-71804761D01*
X65752380Y-72185714D02*
X64752380Y-72185714D01*
X65752380Y-72757142D01*
X64752380Y-72757142D01*
X75804761Y-70185714D02*
X75852380Y-70328571D01*
X75852380Y-70566666D01*
X75804761Y-70661904D01*
X75757142Y-70709523D01*
X75661904Y-70757142D01*
X75566666Y-70757142D01*
X75471428Y-70709523D01*
X75423809Y-70661904D01*
X75376190Y-70566666D01*
X75328571Y-70376190D01*
X75280952Y-70280952D01*
X75233333Y-70233333D01*
X75138095Y-70185714D01*
X75042857Y-70185714D01*
X74947619Y-70233333D01*
X74900000Y-70280952D01*
X74852380Y-70376190D01*
X74852380Y-70614285D01*
X74900000Y-70757142D01*
X75852380Y-71185714D02*
X74852380Y-71185714D01*
X74852380Y-71423809D01*
X74900000Y-71566666D01*
X74995238Y-71661904D01*
X75090476Y-71709523D01*
X75280952Y-71757142D01*
X75423809Y-71757142D01*
X75614285Y-71709523D01*
X75709523Y-71661904D01*
X75804761Y-71566666D01*
X75852380Y-71423809D01*
X75852380Y-71185714D01*
X75566666Y-72138095D02*
X75566666Y-72614285D01*
X75852380Y-72042857D02*
X74852380Y-72376190D01*
X75852380Y-72709523D01*
D12*
X42750000Y-87950000D02*
X42750000Y-118150000D01*
X97250000Y-118150000D02*
X97250000Y-87950000D01*
X42750000Y-118150000D02*
X97250000Y-118150000D01*
X97250000Y-87950000D02*
X42750000Y-87950000D01*
%LPC*%
D13*
X52600000Y-77000000D03*
D14*
X52600000Y-74460000D03*
X55140000Y-77000000D03*
X55140000Y-74460000D03*
X57680000Y-77000000D03*
X57680000Y-74460000D03*
X60220000Y-77000000D03*
X60220000Y-74460000D03*
X62760000Y-77000000D03*
X62760000Y-74460000D03*
X65300000Y-77000000D03*
X65300000Y-74460000D03*
X67840000Y-77000000D03*
X67840000Y-74460000D03*
X70380000Y-77000000D03*
X70380000Y-74460000D03*
X72920000Y-77000000D03*
X72920000Y-74460000D03*
X75460000Y-77000000D03*
X75460000Y-74460000D03*
X78000000Y-77000000D03*
X78000000Y-74460000D03*
X80540000Y-77000000D03*
X80540000Y-74460000D03*
X83080000Y-77000000D03*
X83080000Y-74460000D03*
X85620000Y-77000000D03*
X85620000Y-74460000D03*
D15*
X43200000Y-66600000D03*
X43200000Y-63600000D03*
D16*
X55250000Y-114150000D03*
X70000000Y-91950000D03*
X83250000Y-114150000D03*
D17*
X94150000Y-96700000D03*
D18*
X94150000Y-109400000D03*
M02*
