%FSLAX45Y45*%
G04 Gerber Fmt 4.5, Leading zero omitted, Abs format (unit mm)*
G04 Created by KiCad (PCBNEW (6.0.5-0)) date 2022-11-17 16:11:58*
%MOMM*%
%LPD*%
G01*
G04 APERTURE LIST*
%TA.AperFunction,Profile*%
%ADD10C,0.100000*%
%TD*%
%ADD11C,0.200000*%
%ADD12C,0.090000*%
%ADD13C,0.260000*%
G04 APERTURE END LIST*
D10*
X4700000Y-2900000D02*
G75*
G03*
X4300000Y-2900000I-200000J0D01*
G01*
X9800000Y-12000000D02*
G75*
G03*
X10000000Y-11800000I0J200000D01*
G01*
X9800000Y-12000000D02*
X4200000Y-12000000D01*
X10000000Y-2600000D02*
X10000000Y-11800000D01*
X4000000Y-11800000D02*
G75*
G03*
X4200000Y-12000000I200000J0D01*
G01*
X4700000Y-3600000D02*
X4700000Y-2900000D01*
X4200000Y-2400000D02*
X9800000Y-2400000D01*
X4300000Y-2900000D02*
X4300000Y-3600000D01*
X4000000Y-11800000D02*
X4000000Y-2600000D01*
X4200000Y-2400000D02*
G75*
G03*
X4000000Y-2600000I0J-200000D01*
G01*
X4300000Y-3600000D02*
G75*
G03*
X4700000Y-3600000I200000J0D01*
G01*
X10000000Y-2600000D02*
G75*
G03*
X9800000Y-2400000I-200000J0D01*
G01*
D11*
D12*
X4275000Y-6315000D02*
X4365000Y-6405000D01*
X4365000Y-6315000D02*
X4275000Y-6405000D01*
X4275000Y-6615000D02*
X4365000Y-6705000D01*
X4365000Y-6615000D02*
X4275000Y-6705000D01*
D13*
X5655000Y-11415000D02*
G75*
G03*
X5655000Y-11415000I-130000J0D01*
G01*
X7130000Y-9195000D02*
G75*
G03*
X7130000Y-9195000I-130000J0D01*
G01*
X8455000Y-11415000D02*
G75*
G03*
X8455000Y-11415000I-130000J0D01*
G01*
D11*
X4252619Y-12315476D02*
X4252619Y-12115476D01*
X4300238Y-12115476D01*
X4328810Y-12125000D01*
X4347857Y-12144048D01*
X4357381Y-12163095D01*
X4366905Y-12201190D01*
X4366905Y-12229762D01*
X4357381Y-12267857D01*
X4347857Y-12286905D01*
X4328810Y-12305952D01*
X4300238Y-12315476D01*
X4252619Y-12315476D01*
X4452619Y-12315476D02*
X4452619Y-12182143D01*
X4452619Y-12220238D02*
X4462143Y-12201190D01*
X4471667Y-12191667D01*
X4490714Y-12182143D01*
X4509762Y-12182143D01*
X4576429Y-12315476D02*
X4576429Y-12182143D01*
X4576429Y-12115476D02*
X4566905Y-12125000D01*
X4576429Y-12134524D01*
X4585952Y-12125000D01*
X4576429Y-12115476D01*
X4576429Y-12134524D01*
X4700238Y-12315476D02*
X4681190Y-12305952D01*
X4671667Y-12286905D01*
X4671667Y-12115476D01*
X4805000Y-12315476D02*
X4785952Y-12305952D01*
X4776429Y-12286905D01*
X4776429Y-12115476D01*
X5033571Y-12315476D02*
X5033571Y-12115476D01*
X5100238Y-12258333D01*
X5166905Y-12115476D01*
X5166905Y-12315476D01*
X5347857Y-12315476D02*
X5347857Y-12210714D01*
X5338333Y-12191667D01*
X5319286Y-12182143D01*
X5281190Y-12182143D01*
X5262143Y-12191667D01*
X5347857Y-12305952D02*
X5328810Y-12315476D01*
X5281190Y-12315476D01*
X5262143Y-12305952D01*
X5252619Y-12286905D01*
X5252619Y-12267857D01*
X5262143Y-12248809D01*
X5281190Y-12239286D01*
X5328810Y-12239286D01*
X5347857Y-12229762D01*
X5443095Y-12182143D02*
X5443095Y-12382143D01*
X5443095Y-12191667D02*
X5462143Y-12182143D01*
X5500238Y-12182143D01*
X5519286Y-12191667D01*
X5528810Y-12201190D01*
X5538333Y-12220238D01*
X5538333Y-12277381D01*
X5528810Y-12296428D01*
X5519286Y-12305952D01*
X5500238Y-12315476D01*
X5462143Y-12315476D01*
X5443095Y-12305952D01*
X5624048Y-12296428D02*
X5633571Y-12305952D01*
X5624048Y-12315476D01*
X5614524Y-12305952D01*
X5624048Y-12296428D01*
X5624048Y-12315476D01*
X5624048Y-12191667D02*
X5633571Y-12201190D01*
X5624048Y-12210714D01*
X5614524Y-12201190D01*
X5624048Y-12191667D01*
X5624048Y-12210714D01*
D12*
X3905000Y-12600000D02*
X3995000Y-12690000D01*
X3995000Y-12600000D02*
X3905000Y-12690000D01*
D11*
X4290714Y-12535476D02*
X4309762Y-12535476D01*
X4328810Y-12545000D01*
X4338333Y-12554524D01*
X4347857Y-12573571D01*
X4357381Y-12611667D01*
X4357381Y-12659286D01*
X4347857Y-12697381D01*
X4338333Y-12716428D01*
X4328810Y-12725952D01*
X4309762Y-12735476D01*
X4290714Y-12735476D01*
X4271667Y-12725952D01*
X4262143Y-12716428D01*
X4252619Y-12697381D01*
X4243095Y-12659286D01*
X4243095Y-12611667D01*
X4252619Y-12573571D01*
X4262143Y-12554524D01*
X4271667Y-12545000D01*
X4290714Y-12535476D01*
X4443095Y-12716428D02*
X4452619Y-12725952D01*
X4443095Y-12735476D01*
X4433571Y-12725952D01*
X4443095Y-12716428D01*
X4443095Y-12735476D01*
X4547857Y-12735476D02*
X4585952Y-12735476D01*
X4605000Y-12725952D01*
X4614524Y-12716428D01*
X4633571Y-12687857D01*
X4643095Y-12649762D01*
X4643095Y-12573571D01*
X4633571Y-12554524D01*
X4624048Y-12545000D01*
X4605000Y-12535476D01*
X4566905Y-12535476D01*
X4547857Y-12545000D01*
X4538333Y-12554524D01*
X4528810Y-12573571D01*
X4528810Y-12621190D01*
X4538333Y-12640238D01*
X4547857Y-12649762D01*
X4566905Y-12659286D01*
X4605000Y-12659286D01*
X4624048Y-12649762D01*
X4633571Y-12640238D01*
X4643095Y-12621190D01*
X4766905Y-12535476D02*
X4785952Y-12535476D01*
X4805000Y-12545000D01*
X4814524Y-12554524D01*
X4824048Y-12573571D01*
X4833571Y-12611667D01*
X4833571Y-12659286D01*
X4824048Y-12697381D01*
X4814524Y-12716428D01*
X4805000Y-12725952D01*
X4785952Y-12735476D01*
X4766905Y-12735476D01*
X4747857Y-12725952D01*
X4738333Y-12716428D01*
X4728810Y-12697381D01*
X4719286Y-12659286D01*
X4719286Y-12611667D01*
X4728810Y-12573571D01*
X4738333Y-12554524D01*
X4747857Y-12545000D01*
X4766905Y-12535476D01*
X4957381Y-12535476D02*
X4976429Y-12535476D01*
X4995476Y-12545000D01*
X5005000Y-12554524D01*
X5014524Y-12573571D01*
X5024048Y-12611667D01*
X5024048Y-12659286D01*
X5014524Y-12697381D01*
X5005000Y-12716428D01*
X4995476Y-12725952D01*
X4976429Y-12735476D01*
X4957381Y-12735476D01*
X4938333Y-12725952D01*
X4928810Y-12716428D01*
X4919286Y-12697381D01*
X4909762Y-12659286D01*
X4909762Y-12611667D01*
X4919286Y-12573571D01*
X4928810Y-12554524D01*
X4938333Y-12545000D01*
X4957381Y-12535476D01*
X5109762Y-12735476D02*
X5109762Y-12602143D01*
X5109762Y-12621190D02*
X5119286Y-12611667D01*
X5138333Y-12602143D01*
X5166905Y-12602143D01*
X5185952Y-12611667D01*
X5195476Y-12630714D01*
X5195476Y-12735476D01*
X5195476Y-12630714D02*
X5205000Y-12611667D01*
X5224048Y-12602143D01*
X5252619Y-12602143D01*
X5271667Y-12611667D01*
X5281190Y-12630714D01*
X5281190Y-12735476D01*
X5376429Y-12735476D02*
X5376429Y-12602143D01*
X5376429Y-12621190D02*
X5385952Y-12611667D01*
X5405000Y-12602143D01*
X5433571Y-12602143D01*
X5452619Y-12611667D01*
X5462143Y-12630714D01*
X5462143Y-12735476D01*
X5462143Y-12630714D02*
X5471667Y-12611667D01*
X5490714Y-12602143D01*
X5519286Y-12602143D01*
X5538333Y-12611667D01*
X5547857Y-12630714D01*
X5547857Y-12735476D01*
X5938333Y-12525952D02*
X5766905Y-12783095D01*
X6195476Y-12535476D02*
X6214524Y-12535476D01*
X6233571Y-12545000D01*
X6243095Y-12554524D01*
X6252619Y-12573571D01*
X6262143Y-12611667D01*
X6262143Y-12659286D01*
X6252619Y-12697381D01*
X6243095Y-12716428D01*
X6233571Y-12725952D01*
X6214524Y-12735476D01*
X6195476Y-12735476D01*
X6176428Y-12725952D01*
X6166905Y-12716428D01*
X6157381Y-12697381D01*
X6147857Y-12659286D01*
X6147857Y-12611667D01*
X6157381Y-12573571D01*
X6166905Y-12554524D01*
X6176428Y-12545000D01*
X6195476Y-12535476D01*
X6347857Y-12716428D02*
X6357381Y-12725952D01*
X6347857Y-12735476D01*
X6338333Y-12725952D01*
X6347857Y-12716428D01*
X6347857Y-12735476D01*
X6481190Y-12535476D02*
X6500238Y-12535476D01*
X6519286Y-12545000D01*
X6528809Y-12554524D01*
X6538333Y-12573571D01*
X6547857Y-12611667D01*
X6547857Y-12659286D01*
X6538333Y-12697381D01*
X6528809Y-12716428D01*
X6519286Y-12725952D01*
X6500238Y-12735476D01*
X6481190Y-12735476D01*
X6462143Y-12725952D01*
X6452619Y-12716428D01*
X6443095Y-12697381D01*
X6433571Y-12659286D01*
X6433571Y-12611667D01*
X6443095Y-12573571D01*
X6452619Y-12554524D01*
X6462143Y-12545000D01*
X6481190Y-12535476D01*
X6614524Y-12535476D02*
X6738333Y-12535476D01*
X6671667Y-12611667D01*
X6700238Y-12611667D01*
X6719286Y-12621190D01*
X6728809Y-12630714D01*
X6738333Y-12649762D01*
X6738333Y-12697381D01*
X6728809Y-12716428D01*
X6719286Y-12725952D01*
X6700238Y-12735476D01*
X6643095Y-12735476D01*
X6624048Y-12725952D01*
X6614524Y-12716428D01*
X6919286Y-12535476D02*
X6824048Y-12535476D01*
X6814524Y-12630714D01*
X6824048Y-12621190D01*
X6843095Y-12611667D01*
X6890714Y-12611667D01*
X6909762Y-12621190D01*
X6919286Y-12630714D01*
X6928809Y-12649762D01*
X6928809Y-12697381D01*
X6919286Y-12716428D01*
X6909762Y-12725952D01*
X6890714Y-12735476D01*
X6843095Y-12735476D01*
X6824048Y-12725952D01*
X6814524Y-12716428D01*
X7100238Y-12602143D02*
X7100238Y-12735476D01*
X7052619Y-12525952D02*
X7005000Y-12668809D01*
X7128809Y-12668809D01*
X7195476Y-12535476D02*
X7195476Y-12573571D01*
X7271667Y-12535476D02*
X7271667Y-12573571D01*
X7566905Y-12811667D02*
X7557381Y-12802143D01*
X7538333Y-12773571D01*
X7528809Y-12754524D01*
X7519286Y-12725952D01*
X7509762Y-12678333D01*
X7509762Y-12640238D01*
X7519286Y-12592619D01*
X7528809Y-12564048D01*
X7538333Y-12545000D01*
X7557381Y-12516428D01*
X7566905Y-12506905D01*
X7633571Y-12554524D02*
X7643095Y-12545000D01*
X7662143Y-12535476D01*
X7709762Y-12535476D01*
X7728809Y-12545000D01*
X7738333Y-12554524D01*
X7747857Y-12573571D01*
X7747857Y-12592619D01*
X7738333Y-12621190D01*
X7624048Y-12735476D01*
X7747857Y-12735476D01*
X7985952Y-12735476D02*
X7985952Y-12535476D01*
X8071667Y-12735476D02*
X8071667Y-12630714D01*
X8062143Y-12611667D01*
X8043095Y-12602143D01*
X8014524Y-12602143D01*
X7995476Y-12611667D01*
X7985952Y-12621190D01*
X8195476Y-12735476D02*
X8176428Y-12725952D01*
X8166905Y-12716428D01*
X8157381Y-12697381D01*
X8157381Y-12640238D01*
X8166905Y-12621190D01*
X8176428Y-12611667D01*
X8195476Y-12602143D01*
X8224048Y-12602143D01*
X8243095Y-12611667D01*
X8252619Y-12621190D01*
X8262143Y-12640238D01*
X8262143Y-12697381D01*
X8252619Y-12716428D01*
X8243095Y-12725952D01*
X8224048Y-12735476D01*
X8195476Y-12735476D01*
X8376428Y-12735476D02*
X8357381Y-12725952D01*
X8347857Y-12706905D01*
X8347857Y-12535476D01*
X8528810Y-12725952D02*
X8509762Y-12735476D01*
X8471667Y-12735476D01*
X8452619Y-12725952D01*
X8443095Y-12706905D01*
X8443095Y-12630714D01*
X8452619Y-12611667D01*
X8471667Y-12602143D01*
X8509762Y-12602143D01*
X8528810Y-12611667D01*
X8538333Y-12630714D01*
X8538333Y-12649762D01*
X8443095Y-12668809D01*
X8614524Y-12725952D02*
X8633571Y-12735476D01*
X8671667Y-12735476D01*
X8690714Y-12725952D01*
X8700238Y-12706905D01*
X8700238Y-12697381D01*
X8690714Y-12678333D01*
X8671667Y-12668809D01*
X8643095Y-12668809D01*
X8624048Y-12659286D01*
X8614524Y-12640238D01*
X8614524Y-12630714D01*
X8624048Y-12611667D01*
X8643095Y-12602143D01*
X8671667Y-12602143D01*
X8690714Y-12611667D01*
X8766905Y-12811667D02*
X8776429Y-12802143D01*
X8795476Y-12773571D01*
X8805000Y-12754524D01*
X8814524Y-12725952D01*
X8824048Y-12678333D01*
X8824048Y-12640238D01*
X8814524Y-12592619D01*
X8805000Y-12564048D01*
X8795476Y-12545000D01*
X8776429Y-12516428D01*
X8766905Y-12506905D01*
X9128810Y-12811667D02*
X9119286Y-12802143D01*
X9100238Y-12773571D01*
X9090714Y-12754524D01*
X9081190Y-12725952D01*
X9071667Y-12678333D01*
X9071667Y-12640238D01*
X9081190Y-12592619D01*
X9090714Y-12564048D01*
X9100238Y-12545000D01*
X9119286Y-12516428D01*
X9128810Y-12506905D01*
X9205000Y-12602143D02*
X9205000Y-12735476D01*
X9205000Y-12621190D02*
X9214524Y-12611667D01*
X9233571Y-12602143D01*
X9262143Y-12602143D01*
X9281190Y-12611667D01*
X9290714Y-12630714D01*
X9290714Y-12735476D01*
X9414524Y-12735476D02*
X9395476Y-12725952D01*
X9385952Y-12716428D01*
X9376429Y-12697381D01*
X9376429Y-12640238D01*
X9385952Y-12621190D01*
X9395476Y-12611667D01*
X9414524Y-12602143D01*
X9443095Y-12602143D01*
X9462143Y-12611667D01*
X9471667Y-12621190D01*
X9481190Y-12640238D01*
X9481190Y-12697381D01*
X9471667Y-12716428D01*
X9462143Y-12725952D01*
X9443095Y-12735476D01*
X9414524Y-12735476D01*
X9538333Y-12602143D02*
X9614524Y-12602143D01*
X9566905Y-12535476D02*
X9566905Y-12706905D01*
X9576429Y-12725952D01*
X9595476Y-12735476D01*
X9614524Y-12735476D01*
X9833571Y-12602143D02*
X9833571Y-12802143D01*
X9833571Y-12611667D02*
X9852619Y-12602143D01*
X9890714Y-12602143D01*
X9909762Y-12611667D01*
X9919286Y-12621190D01*
X9928810Y-12640238D01*
X9928810Y-12697381D01*
X9919286Y-12716428D01*
X9909762Y-12725952D01*
X9890714Y-12735476D01*
X9852619Y-12735476D01*
X9833571Y-12725952D01*
X10043095Y-12735476D02*
X10024048Y-12725952D01*
X10014524Y-12706905D01*
X10014524Y-12535476D01*
X10205000Y-12735476D02*
X10205000Y-12630714D01*
X10195476Y-12611667D01*
X10176429Y-12602143D01*
X10138333Y-12602143D01*
X10119286Y-12611667D01*
X10205000Y-12725952D02*
X10185952Y-12735476D01*
X10138333Y-12735476D01*
X10119286Y-12725952D01*
X10109762Y-12706905D01*
X10109762Y-12687857D01*
X10119286Y-12668809D01*
X10138333Y-12659286D01*
X10185952Y-12659286D01*
X10205000Y-12649762D01*
X10271667Y-12602143D02*
X10347857Y-12602143D01*
X10300238Y-12535476D02*
X10300238Y-12706905D01*
X10309762Y-12725952D01*
X10328810Y-12735476D01*
X10347857Y-12735476D01*
X10490714Y-12725952D02*
X10471667Y-12735476D01*
X10433571Y-12735476D01*
X10414524Y-12725952D01*
X10405000Y-12706905D01*
X10405000Y-12630714D01*
X10414524Y-12611667D01*
X10433571Y-12602143D01*
X10471667Y-12602143D01*
X10490714Y-12611667D01*
X10500238Y-12630714D01*
X10500238Y-12649762D01*
X10405000Y-12668809D01*
X10671667Y-12735476D02*
X10671667Y-12535476D01*
X10671667Y-12725952D02*
X10652619Y-12735476D01*
X10614524Y-12735476D01*
X10595476Y-12725952D01*
X10585952Y-12716428D01*
X10576429Y-12697381D01*
X10576429Y-12640238D01*
X10585952Y-12621190D01*
X10595476Y-12611667D01*
X10614524Y-12602143D01*
X10652619Y-12602143D01*
X10671667Y-12611667D01*
X10747857Y-12811667D02*
X10757381Y-12802143D01*
X10776429Y-12773571D01*
X10785952Y-12754524D01*
X10795476Y-12725952D01*
X10805000Y-12678333D01*
X10805000Y-12640238D01*
X10795476Y-12592619D01*
X10785952Y-12564048D01*
X10776429Y-12545000D01*
X10757381Y-12516428D01*
X10747857Y-12506905D01*
X3995000Y-12909000D02*
G75*
G03*
X3995000Y-12909000I-100000J0D01*
G01*
X4243095Y-12818524D02*
X4252619Y-12809000D01*
X4271667Y-12799476D01*
X4319286Y-12799476D01*
X4338333Y-12809000D01*
X4347857Y-12818524D01*
X4357381Y-12837571D01*
X4357381Y-12856619D01*
X4347857Y-12885190D01*
X4233571Y-12999476D01*
X4357381Y-12999476D01*
X4443095Y-12980428D02*
X4452619Y-12989952D01*
X4443095Y-12999476D01*
X4433571Y-12989952D01*
X4443095Y-12980428D01*
X4443095Y-12999476D01*
X4624048Y-12799476D02*
X4585952Y-12799476D01*
X4566905Y-12809000D01*
X4557381Y-12818524D01*
X4538333Y-12847095D01*
X4528810Y-12885190D01*
X4528810Y-12961381D01*
X4538333Y-12980428D01*
X4547857Y-12989952D01*
X4566905Y-12999476D01*
X4605000Y-12999476D01*
X4624048Y-12989952D01*
X4633571Y-12980428D01*
X4643095Y-12961381D01*
X4643095Y-12913762D01*
X4633571Y-12894714D01*
X4624048Y-12885190D01*
X4605000Y-12875667D01*
X4566905Y-12875667D01*
X4547857Y-12885190D01*
X4538333Y-12894714D01*
X4528810Y-12913762D01*
X4766905Y-12799476D02*
X4785952Y-12799476D01*
X4805000Y-12809000D01*
X4814524Y-12818524D01*
X4824048Y-12837571D01*
X4833571Y-12875667D01*
X4833571Y-12923286D01*
X4824048Y-12961381D01*
X4814524Y-12980428D01*
X4805000Y-12989952D01*
X4785952Y-12999476D01*
X4766905Y-12999476D01*
X4747857Y-12989952D01*
X4738333Y-12980428D01*
X4728810Y-12961381D01*
X4719286Y-12923286D01*
X4719286Y-12875667D01*
X4728810Y-12837571D01*
X4738333Y-12818524D01*
X4747857Y-12809000D01*
X4766905Y-12799476D01*
X4957381Y-12799476D02*
X4976429Y-12799476D01*
X4995476Y-12809000D01*
X5005000Y-12818524D01*
X5014524Y-12837571D01*
X5024048Y-12875667D01*
X5024048Y-12923286D01*
X5014524Y-12961381D01*
X5005000Y-12980428D01*
X4995476Y-12989952D01*
X4976429Y-12999476D01*
X4957381Y-12999476D01*
X4938333Y-12989952D01*
X4928810Y-12980428D01*
X4919286Y-12961381D01*
X4909762Y-12923286D01*
X4909762Y-12875667D01*
X4919286Y-12837571D01*
X4928810Y-12818524D01*
X4938333Y-12809000D01*
X4957381Y-12799476D01*
X5109762Y-12999476D02*
X5109762Y-12866143D01*
X5109762Y-12885190D02*
X5119286Y-12875667D01*
X5138333Y-12866143D01*
X5166905Y-12866143D01*
X5185952Y-12875667D01*
X5195476Y-12894714D01*
X5195476Y-12999476D01*
X5195476Y-12894714D02*
X5205000Y-12875667D01*
X5224048Y-12866143D01*
X5252619Y-12866143D01*
X5271667Y-12875667D01*
X5281190Y-12894714D01*
X5281190Y-12999476D01*
X5376429Y-12999476D02*
X5376429Y-12866143D01*
X5376429Y-12885190D02*
X5385952Y-12875667D01*
X5405000Y-12866143D01*
X5433571Y-12866143D01*
X5452619Y-12875667D01*
X5462143Y-12894714D01*
X5462143Y-12999476D01*
X5462143Y-12894714D02*
X5471667Y-12875667D01*
X5490714Y-12866143D01*
X5519286Y-12866143D01*
X5538333Y-12875667D01*
X5547857Y-12894714D01*
X5547857Y-12999476D01*
X5938333Y-12789952D02*
X5766905Y-13047095D01*
X6195476Y-12799476D02*
X6214524Y-12799476D01*
X6233571Y-12809000D01*
X6243095Y-12818524D01*
X6252619Y-12837571D01*
X6262143Y-12875667D01*
X6262143Y-12923286D01*
X6252619Y-12961381D01*
X6243095Y-12980428D01*
X6233571Y-12989952D01*
X6214524Y-12999476D01*
X6195476Y-12999476D01*
X6176428Y-12989952D01*
X6166905Y-12980428D01*
X6157381Y-12961381D01*
X6147857Y-12923286D01*
X6147857Y-12875667D01*
X6157381Y-12837571D01*
X6166905Y-12818524D01*
X6176428Y-12809000D01*
X6195476Y-12799476D01*
X6347857Y-12980428D02*
X6357381Y-12989952D01*
X6347857Y-12999476D01*
X6338333Y-12989952D01*
X6347857Y-12980428D01*
X6347857Y-12999476D01*
X6547857Y-12999476D02*
X6433571Y-12999476D01*
X6490714Y-12999476D02*
X6490714Y-12799476D01*
X6471667Y-12828048D01*
X6452619Y-12847095D01*
X6433571Y-12856619D01*
X6671667Y-12799476D02*
X6690714Y-12799476D01*
X6709762Y-12809000D01*
X6719286Y-12818524D01*
X6728809Y-12837571D01*
X6738333Y-12875667D01*
X6738333Y-12923286D01*
X6728809Y-12961381D01*
X6719286Y-12980428D01*
X6709762Y-12989952D01*
X6690714Y-12999476D01*
X6671667Y-12999476D01*
X6652619Y-12989952D01*
X6643095Y-12980428D01*
X6633571Y-12961381D01*
X6624048Y-12923286D01*
X6624048Y-12875667D01*
X6633571Y-12837571D01*
X6643095Y-12818524D01*
X6652619Y-12809000D01*
X6671667Y-12799476D01*
X6814524Y-12818524D02*
X6824048Y-12809000D01*
X6843095Y-12799476D01*
X6890714Y-12799476D01*
X6909762Y-12809000D01*
X6919286Y-12818524D01*
X6928809Y-12837571D01*
X6928809Y-12856619D01*
X6919286Y-12885190D01*
X6805000Y-12999476D01*
X6928809Y-12999476D01*
X7100238Y-12866143D02*
X7100238Y-12999476D01*
X7052619Y-12789952D02*
X7005000Y-12932809D01*
X7128809Y-12932809D01*
X7195476Y-12799476D02*
X7195476Y-12837571D01*
X7271667Y-12799476D02*
X7271667Y-12837571D01*
X7566905Y-13075667D02*
X7557381Y-13066143D01*
X7538333Y-13037571D01*
X7528809Y-13018524D01*
X7519286Y-12989952D01*
X7509762Y-12942333D01*
X7509762Y-12904238D01*
X7519286Y-12856619D01*
X7528809Y-12828048D01*
X7538333Y-12809000D01*
X7557381Y-12780428D01*
X7566905Y-12770905D01*
X7624048Y-12799476D02*
X7747857Y-12799476D01*
X7681190Y-12875667D01*
X7709762Y-12875667D01*
X7728809Y-12885190D01*
X7738333Y-12894714D01*
X7747857Y-12913762D01*
X7747857Y-12961381D01*
X7738333Y-12980428D01*
X7728809Y-12989952D01*
X7709762Y-12999476D01*
X7652619Y-12999476D01*
X7633571Y-12989952D01*
X7624048Y-12980428D01*
X7985952Y-12999476D02*
X7985952Y-12799476D01*
X8071667Y-12999476D02*
X8071667Y-12894714D01*
X8062143Y-12875667D01*
X8043095Y-12866143D01*
X8014524Y-12866143D01*
X7995476Y-12875667D01*
X7985952Y-12885190D01*
X8195476Y-12999476D02*
X8176428Y-12989952D01*
X8166905Y-12980428D01*
X8157381Y-12961381D01*
X8157381Y-12904238D01*
X8166905Y-12885190D01*
X8176428Y-12875667D01*
X8195476Y-12866143D01*
X8224048Y-12866143D01*
X8243095Y-12875667D01*
X8252619Y-12885190D01*
X8262143Y-12904238D01*
X8262143Y-12961381D01*
X8252619Y-12980428D01*
X8243095Y-12989952D01*
X8224048Y-12999476D01*
X8195476Y-12999476D01*
X8376428Y-12999476D02*
X8357381Y-12989952D01*
X8347857Y-12970905D01*
X8347857Y-12799476D01*
X8528810Y-12989952D02*
X8509762Y-12999476D01*
X8471667Y-12999476D01*
X8452619Y-12989952D01*
X8443095Y-12970905D01*
X8443095Y-12894714D01*
X8452619Y-12875667D01*
X8471667Y-12866143D01*
X8509762Y-12866143D01*
X8528810Y-12875667D01*
X8538333Y-12894714D01*
X8538333Y-12913762D01*
X8443095Y-12932809D01*
X8614524Y-12989952D02*
X8633571Y-12999476D01*
X8671667Y-12999476D01*
X8690714Y-12989952D01*
X8700238Y-12970905D01*
X8700238Y-12961381D01*
X8690714Y-12942333D01*
X8671667Y-12932809D01*
X8643095Y-12932809D01*
X8624048Y-12923286D01*
X8614524Y-12904238D01*
X8614524Y-12894714D01*
X8624048Y-12875667D01*
X8643095Y-12866143D01*
X8671667Y-12866143D01*
X8690714Y-12875667D01*
X8766905Y-13075667D02*
X8776429Y-13066143D01*
X8795476Y-13037571D01*
X8805000Y-13018524D01*
X8814524Y-12989952D01*
X8824048Y-12942333D01*
X8824048Y-12904238D01*
X8814524Y-12856619D01*
X8805000Y-12828048D01*
X8795476Y-12809000D01*
X8776429Y-12780428D01*
X8766905Y-12770905D01*
X9128810Y-13075667D02*
X9119286Y-13066143D01*
X9100238Y-13037571D01*
X9090714Y-13018524D01*
X9081190Y-12989952D01*
X9071667Y-12942333D01*
X9071667Y-12904238D01*
X9081190Y-12856619D01*
X9090714Y-12828048D01*
X9100238Y-12809000D01*
X9119286Y-12780428D01*
X9128810Y-12770905D01*
X9205000Y-12866143D02*
X9205000Y-12999476D01*
X9205000Y-12885190D02*
X9214524Y-12875667D01*
X9233571Y-12866143D01*
X9262143Y-12866143D01*
X9281190Y-12875667D01*
X9290714Y-12894714D01*
X9290714Y-12999476D01*
X9414524Y-12999476D02*
X9395476Y-12989952D01*
X9385952Y-12980428D01*
X9376429Y-12961381D01*
X9376429Y-12904238D01*
X9385952Y-12885190D01*
X9395476Y-12875667D01*
X9414524Y-12866143D01*
X9443095Y-12866143D01*
X9462143Y-12875667D01*
X9471667Y-12885190D01*
X9481190Y-12904238D01*
X9481190Y-12961381D01*
X9471667Y-12980428D01*
X9462143Y-12989952D01*
X9443095Y-12999476D01*
X9414524Y-12999476D01*
X9538333Y-12866143D02*
X9614524Y-12866143D01*
X9566905Y-12799476D02*
X9566905Y-12970905D01*
X9576429Y-12989952D01*
X9595476Y-12999476D01*
X9614524Y-12999476D01*
X9833571Y-12866143D02*
X9833571Y-13066143D01*
X9833571Y-12875667D02*
X9852619Y-12866143D01*
X9890714Y-12866143D01*
X9909762Y-12875667D01*
X9919286Y-12885190D01*
X9928810Y-12904238D01*
X9928810Y-12961381D01*
X9919286Y-12980428D01*
X9909762Y-12989952D01*
X9890714Y-12999476D01*
X9852619Y-12999476D01*
X9833571Y-12989952D01*
X10043095Y-12999476D02*
X10024048Y-12989952D01*
X10014524Y-12970905D01*
X10014524Y-12799476D01*
X10205000Y-12999476D02*
X10205000Y-12894714D01*
X10195476Y-12875667D01*
X10176429Y-12866143D01*
X10138333Y-12866143D01*
X10119286Y-12875667D01*
X10205000Y-12989952D02*
X10185952Y-12999476D01*
X10138333Y-12999476D01*
X10119286Y-12989952D01*
X10109762Y-12970905D01*
X10109762Y-12951857D01*
X10119286Y-12932809D01*
X10138333Y-12923286D01*
X10185952Y-12923286D01*
X10205000Y-12913762D01*
X10271667Y-12866143D02*
X10347857Y-12866143D01*
X10300238Y-12799476D02*
X10300238Y-12970905D01*
X10309762Y-12989952D01*
X10328810Y-12999476D01*
X10347857Y-12999476D01*
X10490714Y-12989952D02*
X10471667Y-12999476D01*
X10433571Y-12999476D01*
X10414524Y-12989952D01*
X10405000Y-12970905D01*
X10405000Y-12894714D01*
X10414524Y-12875667D01*
X10433571Y-12866143D01*
X10471667Y-12866143D01*
X10490714Y-12875667D01*
X10500238Y-12894714D01*
X10500238Y-12913762D01*
X10405000Y-12932809D01*
X10671667Y-12999476D02*
X10671667Y-12799476D01*
X10671667Y-12989952D02*
X10652619Y-12999476D01*
X10614524Y-12999476D01*
X10595476Y-12989952D01*
X10585952Y-12980428D01*
X10576429Y-12961381D01*
X10576429Y-12904238D01*
X10585952Y-12885190D01*
X10595476Y-12875667D01*
X10614524Y-12866143D01*
X10652619Y-12866143D01*
X10671667Y-12875667D01*
X10747857Y-13075667D02*
X10757381Y-13066143D01*
X10776429Y-13037571D01*
X10785952Y-13018524D01*
X10795476Y-12989952D01*
X10805000Y-12942333D01*
X10805000Y-12904238D01*
X10795476Y-12856619D01*
X10785952Y-12828048D01*
X10776429Y-12809000D01*
X10757381Y-12780428D01*
X10747857Y-12770905D01*
M02*
