%FSLAX45Y45*%
G04 Gerber Fmt 4.5, Leading zero omitted, Abs format (unit mm)*
G04 Created by KiCad (PCBNEW (6.0.5-0)) date 2022-11-17 16:11:58*
%MOMM*%
%LPD*%
G01*
G04 APERTURE LIST*
%TA.AperFunction,Profile*%
%ADD10C,0.100000*%
%TD*%
%ADD11C,0.200000*%
%ADD12C,0.030000*%
%ADD13C,0.040000*%
%ADD14C,0.060000*%
%ADD15C,0.100000*%
%ADD16C,0.240000*%
G04 APERTURE END LIST*
D10*
X4700000Y-2900000D02*
G75*
G03*
X4300000Y-2900000I-200000J0D01*
G01*
X9800000Y-12000000D02*
G75*
G03*
X10000000Y-11800000I0J200000D01*
G01*
X9800000Y-12000000D02*
X4200000Y-12000000D01*
X10000000Y-2600000D02*
X10000000Y-11800000D01*
X4000000Y-11800000D02*
G75*
G03*
X4200000Y-12000000I200000J0D01*
G01*
X4700000Y-3600000D02*
X4700000Y-2900000D01*
X4200000Y-2400000D02*
X9800000Y-2400000D01*
X4300000Y-2900000D02*
X4300000Y-3600000D01*
X4000000Y-11800000D02*
X4000000Y-2600000D01*
X4200000Y-2400000D02*
G75*
G03*
X4000000Y-2600000I0J-200000D01*
G01*
X4300000Y-3600000D02*
G75*
G03*
X4700000Y-3600000I200000J0D01*
G01*
X10000000Y-2600000D02*
G75*
G03*
X9800000Y-2400000I-200000J0D01*
G01*
D11*
D12*
X5174993Y-8095050D02*
X5204993Y-8125050D01*
X5204993Y-8095050D02*
X5174993Y-8125050D01*
X5175050Y-8175000D02*
X5205050Y-8205000D01*
X5205050Y-8175000D02*
X5175050Y-8205000D01*
X5205000Y-2925000D02*
X5235000Y-2955000D01*
X5235000Y-2925000D02*
X5205000Y-2955000D01*
X6025000Y-9520147D02*
X6055000Y-9550147D01*
X6055000Y-9520147D02*
X6025000Y-9550147D01*
X6575856Y-9591568D02*
X6605856Y-9621568D01*
X6605856Y-9591568D02*
X6575856Y-9621568D01*
X6641167Y-9637683D02*
X6671167Y-9667683D01*
X6671167Y-9637683D02*
X6641167Y-9667683D01*
X6715438Y-9680616D02*
X6745438Y-9710616D01*
X6745438Y-9680616D02*
X6715438Y-9710616D01*
X8725000Y-8495000D02*
X8755000Y-8525000D01*
X8755000Y-8495000D02*
X8725000Y-8525000D01*
X8775000Y-9420860D02*
X8805000Y-9450860D01*
X8805000Y-9420860D02*
X8775000Y-9450860D01*
X9055000Y-8365000D02*
X9085000Y-8395000D01*
X9085000Y-8365000D02*
X9055000Y-8395000D01*
X9055000Y-9195000D02*
X9085000Y-9225000D01*
X9085000Y-9195000D02*
X9055000Y-9225000D01*
X9082402Y-9348319D02*
X9112402Y-9378319D01*
X9112402Y-9348319D02*
X9082402Y-9378319D01*
X9134950Y-8365000D02*
X9164950Y-8395000D01*
X9164950Y-8365000D02*
X9134950Y-8395000D01*
X9196201Y-9372550D02*
X9226201Y-9402550D01*
X9226201Y-9372550D02*
X9196201Y-9402550D01*
X9215000Y-8045000D02*
X9245000Y-8075000D01*
X9245000Y-8045000D02*
X9215000Y-8075000D01*
X9245000Y-9205000D02*
X9275000Y-9235000D01*
X9275000Y-9205000D02*
X9245000Y-9235000D01*
X9295000Y-8045000D02*
X9325000Y-8075000D01*
X9325000Y-8045000D02*
X9295000Y-8075000D01*
X9335000Y-9195000D02*
X9365000Y-9225000D01*
X9365000Y-9195000D02*
X9335000Y-9225000D01*
X9337450Y-7165000D02*
X9367450Y-7195000D01*
X9367450Y-7165000D02*
X9337450Y-7195000D01*
X9425000Y-9195000D02*
X9455000Y-9225000D01*
X9455000Y-9195000D02*
X9425000Y-9225000D01*
D13*
X8470000Y-8750000D02*
G75*
G03*
X8470000Y-8750000I-20000J0D01*
G01*
X9370000Y-7290000D02*
G75*
G03*
X9370000Y-7290000I-20000J0D01*
G01*
D14*
X4370000Y-4410000D02*
X4370000Y-4470000D01*
X4340000Y-4440000D02*
X4400000Y-4440000D01*
X4440000Y-8360000D02*
X4440000Y-8420000D01*
X4410000Y-8390000D02*
X4470000Y-8390000D01*
X4750000Y-10510000D02*
X4750000Y-10570000D01*
X4720000Y-10540000D02*
X4780000Y-10540000D01*
X5100000Y-7040000D02*
X5100000Y-7100000D01*
X5070000Y-7070000D02*
X5130000Y-7070000D01*
X5350000Y-8670498D02*
X5350000Y-8730498D01*
X5320000Y-8700498D02*
X5380000Y-8700498D01*
X5980000Y-8610000D02*
X5980000Y-8670000D01*
X5950000Y-8640000D02*
X6010000Y-8640000D01*
X6230000Y-9190000D02*
X6230000Y-9250000D01*
X6200000Y-9220000D02*
X6260000Y-9220000D01*
X6790000Y-8290000D02*
X6790000Y-8350000D01*
X6760000Y-8320000D02*
X6820000Y-8320000D01*
X8120000Y-8717550D02*
X8120000Y-8777550D01*
X8090000Y-8747550D02*
X8150000Y-8747550D01*
X8330000Y-3490000D02*
X8330000Y-3550000D01*
X8300000Y-3520000D02*
X8360000Y-3520000D01*
X8360000Y-4400000D02*
X8360000Y-4460000D01*
X8330000Y-4430000D02*
X8390000Y-4430000D01*
X8360000Y-5300000D02*
X8360000Y-5360000D01*
X8330000Y-5330000D02*
X8390000Y-5330000D01*
X8360000Y-6190000D02*
X8360000Y-6250000D01*
X8330000Y-6220000D02*
X8390000Y-6220000D01*
X8400000Y-9000000D02*
X8400000Y-9060000D01*
X8370000Y-9030000D02*
X8430000Y-9030000D01*
X8668923Y-9340908D02*
X8668923Y-9400908D01*
X8638923Y-9370908D02*
X8698923Y-9370908D01*
X9360000Y-9292598D02*
X9360000Y-9352598D01*
X9330000Y-9322598D02*
X9390000Y-9322598D01*
X9530000Y-7950000D02*
X9530000Y-8010000D01*
X9500000Y-7980000D02*
X9560000Y-7980000D01*
X9590000Y-9220000D02*
X9590000Y-9280000D01*
X9560000Y-9250000D02*
X9620000Y-9250000D01*
X9600000Y-3160000D02*
X9600000Y-3220000D01*
X9570000Y-3190000D02*
X9630000Y-3190000D01*
X9687694Y-8410000D02*
X9687694Y-8470000D01*
X9657694Y-8440000D02*
X9717694Y-8440000D01*
D15*
X5295356Y-7481356D02*
X5295356Y-7410644D01*
X5224644Y-7410644D01*
X5224644Y-7481356D01*
X5295356Y-7481356D01*
X5295356Y-7735356D02*
X5295356Y-7664644D01*
X5224644Y-7664644D01*
X5224644Y-7735356D01*
X5295356Y-7735356D01*
X5549356Y-7481356D02*
X5549356Y-7410644D01*
X5478644Y-7410644D01*
X5478644Y-7481356D01*
X5549356Y-7481356D01*
X5549356Y-7735356D02*
X5549356Y-7664644D01*
X5478644Y-7664644D01*
X5478644Y-7735356D01*
X5549356Y-7735356D01*
X5803356Y-7481356D02*
X5803356Y-7410644D01*
X5732644Y-7410644D01*
X5732644Y-7481356D01*
X5803356Y-7481356D01*
X5803356Y-7735356D02*
X5803356Y-7664644D01*
X5732644Y-7664644D01*
X5732644Y-7735356D01*
X5803356Y-7735356D01*
X6057356Y-7481356D02*
X6057356Y-7410644D01*
X5986644Y-7410644D01*
X5986644Y-7481356D01*
X6057356Y-7481356D01*
X6057356Y-7735356D02*
X6057356Y-7664644D01*
X5986644Y-7664644D01*
X5986644Y-7735356D01*
X6057356Y-7735356D01*
X6311356Y-7481356D02*
X6311356Y-7410644D01*
X6240644Y-7410644D01*
X6240644Y-7481356D01*
X6311356Y-7481356D01*
X6311356Y-7735356D02*
X6311356Y-7664644D01*
X6240644Y-7664644D01*
X6240644Y-7735356D01*
X6311356Y-7735356D01*
X6565356Y-7481356D02*
X6565356Y-7410644D01*
X6494644Y-7410644D01*
X6494644Y-7481356D01*
X6565356Y-7481356D01*
X6565356Y-7735356D02*
X6565356Y-7664644D01*
X6494644Y-7664644D01*
X6494644Y-7735356D01*
X6565356Y-7735356D01*
X6819356Y-7481356D02*
X6819356Y-7410644D01*
X6748644Y-7410644D01*
X6748644Y-7481356D01*
X6819356Y-7481356D01*
X6819356Y-7735356D02*
X6819356Y-7664644D01*
X6748644Y-7664644D01*
X6748644Y-7735356D01*
X6819356Y-7735356D01*
X7073356Y-7481356D02*
X7073356Y-7410644D01*
X7002644Y-7410644D01*
X7002644Y-7481356D01*
X7073356Y-7481356D01*
X7073356Y-7735356D02*
X7073356Y-7664644D01*
X7002644Y-7664644D01*
X7002644Y-7735356D01*
X7073356Y-7735356D01*
X7327356Y-7481356D02*
X7327356Y-7410644D01*
X7256644Y-7410644D01*
X7256644Y-7481356D01*
X7327356Y-7481356D01*
X7327356Y-7735356D02*
X7327356Y-7664644D01*
X7256644Y-7664644D01*
X7256644Y-7735356D01*
X7327356Y-7735356D01*
X7581356Y-7481356D02*
X7581356Y-7410644D01*
X7510644Y-7410644D01*
X7510644Y-7481356D01*
X7581356Y-7481356D01*
X7581356Y-7735356D02*
X7581356Y-7664644D01*
X7510644Y-7664644D01*
X7510644Y-7735356D01*
X7581356Y-7735356D01*
X7835356Y-7481356D02*
X7835356Y-7410644D01*
X7764644Y-7410644D01*
X7764644Y-7481356D01*
X7835356Y-7481356D01*
X7835356Y-7735356D02*
X7835356Y-7664644D01*
X7764644Y-7664644D01*
X7764644Y-7735356D01*
X7835356Y-7735356D01*
X8089356Y-7481356D02*
X8089356Y-7410644D01*
X8018644Y-7410644D01*
X8018644Y-7481356D01*
X8089356Y-7481356D01*
X8089356Y-7735356D02*
X8089356Y-7664644D01*
X8018644Y-7664644D01*
X8018644Y-7735356D01*
X8089356Y-7735356D01*
X8343356Y-7481356D02*
X8343356Y-7410644D01*
X8272644Y-7410644D01*
X8272644Y-7481356D01*
X8343356Y-7481356D01*
X8343356Y-7735356D02*
X8343356Y-7664644D01*
X8272644Y-7664644D01*
X8272644Y-7735356D01*
X8343356Y-7735356D01*
X8597356Y-7481356D02*
X8597356Y-7410644D01*
X8526644Y-7410644D01*
X8526644Y-7481356D01*
X8597356Y-7481356D01*
X8597356Y-7735356D02*
X8597356Y-7664644D01*
X8526644Y-7664644D01*
X8526644Y-7735356D01*
X8597356Y-7735356D01*
D16*
X9415000Y-9790000D02*
X9535000Y-9670000D01*
X9415000Y-9550000D01*
X9295000Y-9670000D01*
X9415000Y-9790000D01*
X9415000Y-11060000D02*
X9535000Y-10940000D01*
X9415000Y-10820000D01*
X9295000Y-10940000D01*
X9415000Y-11060000D01*
D11*
X4252619Y-12315476D02*
X4252619Y-12115476D01*
X4300238Y-12115476D01*
X4328810Y-12125000D01*
X4347857Y-12144048D01*
X4357381Y-12163095D01*
X4366905Y-12201190D01*
X4366905Y-12229762D01*
X4357381Y-12267857D01*
X4347857Y-12286905D01*
X4328810Y-12305952D01*
X4300238Y-12315476D01*
X4252619Y-12315476D01*
X4452619Y-12315476D02*
X4452619Y-12182143D01*
X4452619Y-12220238D02*
X4462143Y-12201190D01*
X4471667Y-12191667D01*
X4490714Y-12182143D01*
X4509762Y-12182143D01*
X4576429Y-12315476D02*
X4576429Y-12182143D01*
X4576429Y-12115476D02*
X4566905Y-12125000D01*
X4576429Y-12134524D01*
X4585952Y-12125000D01*
X4576429Y-12115476D01*
X4576429Y-12134524D01*
X4700238Y-12315476D02*
X4681190Y-12305952D01*
X4671667Y-12286905D01*
X4671667Y-12115476D01*
X4805000Y-12315476D02*
X4785952Y-12305952D01*
X4776429Y-12286905D01*
X4776429Y-12115476D01*
X5033571Y-12315476D02*
X5033571Y-12115476D01*
X5100238Y-12258333D01*
X5166905Y-12115476D01*
X5166905Y-12315476D01*
X5347857Y-12315476D02*
X5347857Y-12210714D01*
X5338333Y-12191667D01*
X5319286Y-12182143D01*
X5281190Y-12182143D01*
X5262143Y-12191667D01*
X5347857Y-12305952D02*
X5328810Y-12315476D01*
X5281190Y-12315476D01*
X5262143Y-12305952D01*
X5252619Y-12286905D01*
X5252619Y-12267857D01*
X5262143Y-12248809D01*
X5281190Y-12239286D01*
X5328810Y-12239286D01*
X5347857Y-12229762D01*
X5443095Y-12182143D02*
X5443095Y-12382143D01*
X5443095Y-12191667D02*
X5462143Y-12182143D01*
X5500238Y-12182143D01*
X5519286Y-12191667D01*
X5528810Y-12201190D01*
X5538333Y-12220238D01*
X5538333Y-12277381D01*
X5528810Y-12296428D01*
X5519286Y-12305952D01*
X5500238Y-12315476D01*
X5462143Y-12315476D01*
X5443095Y-12305952D01*
X5624048Y-12296428D02*
X5633571Y-12305952D01*
X5624048Y-12315476D01*
X5614524Y-12305952D01*
X5624048Y-12296428D01*
X5624048Y-12315476D01*
X5624048Y-12191667D02*
X5633571Y-12201190D01*
X5624048Y-12210714D01*
X5614524Y-12201190D01*
X5624048Y-12191667D01*
X5624048Y-12210714D01*
D12*
X3965000Y-12630000D02*
X3995000Y-12660000D01*
X3995000Y-12630000D02*
X3965000Y-12660000D01*
D11*
X4290714Y-12535476D02*
X4309762Y-12535476D01*
X4328810Y-12545000D01*
X4338333Y-12554524D01*
X4347857Y-12573571D01*
X4357381Y-12611667D01*
X4357381Y-12659286D01*
X4347857Y-12697381D01*
X4338333Y-12716428D01*
X4328810Y-12725952D01*
X4309762Y-12735476D01*
X4290714Y-12735476D01*
X4271667Y-12725952D01*
X4262143Y-12716428D01*
X4252619Y-12697381D01*
X4243095Y-12659286D01*
X4243095Y-12611667D01*
X4252619Y-12573571D01*
X4262143Y-12554524D01*
X4271667Y-12545000D01*
X4290714Y-12535476D01*
X4443095Y-12716428D02*
X4452619Y-12725952D01*
X4443095Y-12735476D01*
X4433571Y-12725952D01*
X4443095Y-12716428D01*
X4443095Y-12735476D01*
X4519286Y-12535476D02*
X4643095Y-12535476D01*
X4576429Y-12611667D01*
X4605000Y-12611667D01*
X4624048Y-12621190D01*
X4633571Y-12630714D01*
X4643095Y-12649762D01*
X4643095Y-12697381D01*
X4633571Y-12716428D01*
X4624048Y-12725952D01*
X4605000Y-12735476D01*
X4547857Y-12735476D01*
X4528810Y-12725952D01*
X4519286Y-12716428D01*
X4766905Y-12535476D02*
X4785952Y-12535476D01*
X4805000Y-12545000D01*
X4814524Y-12554524D01*
X4824048Y-12573571D01*
X4833571Y-12611667D01*
X4833571Y-12659286D01*
X4824048Y-12697381D01*
X4814524Y-12716428D01*
X4805000Y-12725952D01*
X4785952Y-12735476D01*
X4766905Y-12735476D01*
X4747857Y-12725952D01*
X4738333Y-12716428D01*
X4728810Y-12697381D01*
X4719286Y-12659286D01*
X4719286Y-12611667D01*
X4728810Y-12573571D01*
X4738333Y-12554524D01*
X4747857Y-12545000D01*
X4766905Y-12535476D01*
X4957381Y-12535476D02*
X4976429Y-12535476D01*
X4995476Y-12545000D01*
X5005000Y-12554524D01*
X5014524Y-12573571D01*
X5024048Y-12611667D01*
X5024048Y-12659286D01*
X5014524Y-12697381D01*
X5005000Y-12716428D01*
X4995476Y-12725952D01*
X4976429Y-12735476D01*
X4957381Y-12735476D01*
X4938333Y-12725952D01*
X4928810Y-12716428D01*
X4919286Y-12697381D01*
X4909762Y-12659286D01*
X4909762Y-12611667D01*
X4919286Y-12573571D01*
X4928810Y-12554524D01*
X4938333Y-12545000D01*
X4957381Y-12535476D01*
X5109762Y-12735476D02*
X5109762Y-12602143D01*
X5109762Y-12621190D02*
X5119286Y-12611667D01*
X5138333Y-12602143D01*
X5166905Y-12602143D01*
X5185952Y-12611667D01*
X5195476Y-12630714D01*
X5195476Y-12735476D01*
X5195476Y-12630714D02*
X5205000Y-12611667D01*
X5224048Y-12602143D01*
X5252619Y-12602143D01*
X5271667Y-12611667D01*
X5281190Y-12630714D01*
X5281190Y-12735476D01*
X5376429Y-12735476D02*
X5376429Y-12602143D01*
X5376429Y-12621190D02*
X5385952Y-12611667D01*
X5405000Y-12602143D01*
X5433571Y-12602143D01*
X5452619Y-12611667D01*
X5462143Y-12630714D01*
X5462143Y-12735476D01*
X5462143Y-12630714D02*
X5471667Y-12611667D01*
X5490714Y-12602143D01*
X5519286Y-12602143D01*
X5538333Y-12611667D01*
X5547857Y-12630714D01*
X5547857Y-12735476D01*
X5938333Y-12525952D02*
X5766905Y-12783095D01*
X6195476Y-12535476D02*
X6214524Y-12535476D01*
X6233571Y-12545000D01*
X6243095Y-12554524D01*
X6252619Y-12573571D01*
X6262143Y-12611667D01*
X6262143Y-12659286D01*
X6252619Y-12697381D01*
X6243095Y-12716428D01*
X6233571Y-12725952D01*
X6214524Y-12735476D01*
X6195476Y-12735476D01*
X6176428Y-12725952D01*
X6166905Y-12716428D01*
X6157381Y-12697381D01*
X6147857Y-12659286D01*
X6147857Y-12611667D01*
X6157381Y-12573571D01*
X6166905Y-12554524D01*
X6176428Y-12545000D01*
X6195476Y-12535476D01*
X6347857Y-12716428D02*
X6357381Y-12725952D01*
X6347857Y-12735476D01*
X6338333Y-12725952D01*
X6347857Y-12716428D01*
X6347857Y-12735476D01*
X6481190Y-12535476D02*
X6500238Y-12535476D01*
X6519286Y-12545000D01*
X6528809Y-12554524D01*
X6538333Y-12573571D01*
X6547857Y-12611667D01*
X6547857Y-12659286D01*
X6538333Y-12697381D01*
X6528809Y-12716428D01*
X6519286Y-12725952D01*
X6500238Y-12735476D01*
X6481190Y-12735476D01*
X6462143Y-12725952D01*
X6452619Y-12716428D01*
X6443095Y-12697381D01*
X6433571Y-12659286D01*
X6433571Y-12611667D01*
X6443095Y-12573571D01*
X6452619Y-12554524D01*
X6462143Y-12545000D01*
X6481190Y-12535476D01*
X6738333Y-12735476D02*
X6624048Y-12735476D01*
X6681190Y-12735476D02*
X6681190Y-12535476D01*
X6662143Y-12564048D01*
X6643095Y-12583095D01*
X6624048Y-12592619D01*
X6928809Y-12735476D02*
X6814524Y-12735476D01*
X6871667Y-12735476D02*
X6871667Y-12535476D01*
X6852619Y-12564048D01*
X6833571Y-12583095D01*
X6814524Y-12592619D01*
X7043095Y-12621190D02*
X7024048Y-12611667D01*
X7014524Y-12602143D01*
X7005000Y-12583095D01*
X7005000Y-12573571D01*
X7014524Y-12554524D01*
X7024048Y-12545000D01*
X7043095Y-12535476D01*
X7081190Y-12535476D01*
X7100238Y-12545000D01*
X7109762Y-12554524D01*
X7119286Y-12573571D01*
X7119286Y-12583095D01*
X7109762Y-12602143D01*
X7100238Y-12611667D01*
X7081190Y-12621190D01*
X7043095Y-12621190D01*
X7024048Y-12630714D01*
X7014524Y-12640238D01*
X7005000Y-12659286D01*
X7005000Y-12697381D01*
X7014524Y-12716428D01*
X7024048Y-12725952D01*
X7043095Y-12735476D01*
X7081190Y-12735476D01*
X7100238Y-12725952D01*
X7109762Y-12716428D01*
X7119286Y-12697381D01*
X7119286Y-12659286D01*
X7109762Y-12640238D01*
X7100238Y-12630714D01*
X7081190Y-12621190D01*
X7195476Y-12535476D02*
X7195476Y-12573571D01*
X7271667Y-12535476D02*
X7271667Y-12573571D01*
X7566905Y-12811667D02*
X7557381Y-12802143D01*
X7538333Y-12773571D01*
X7528809Y-12754524D01*
X7519286Y-12725952D01*
X7509762Y-12678333D01*
X7509762Y-12640238D01*
X7519286Y-12592619D01*
X7528809Y-12564048D01*
X7538333Y-12545000D01*
X7557381Y-12516428D01*
X7566905Y-12506905D01*
X7633571Y-12554524D02*
X7643095Y-12545000D01*
X7662143Y-12535476D01*
X7709762Y-12535476D01*
X7728809Y-12545000D01*
X7738333Y-12554524D01*
X7747857Y-12573571D01*
X7747857Y-12592619D01*
X7738333Y-12621190D01*
X7624048Y-12735476D01*
X7747857Y-12735476D01*
X7871667Y-12535476D02*
X7890714Y-12535476D01*
X7909762Y-12545000D01*
X7919286Y-12554524D01*
X7928809Y-12573571D01*
X7938333Y-12611667D01*
X7938333Y-12659286D01*
X7928809Y-12697381D01*
X7919286Y-12716428D01*
X7909762Y-12725952D01*
X7890714Y-12735476D01*
X7871667Y-12735476D01*
X7852619Y-12725952D01*
X7843095Y-12716428D01*
X7833571Y-12697381D01*
X7824048Y-12659286D01*
X7824048Y-12611667D01*
X7833571Y-12573571D01*
X7843095Y-12554524D01*
X7852619Y-12545000D01*
X7871667Y-12535476D01*
X8176428Y-12735476D02*
X8176428Y-12535476D01*
X8262143Y-12735476D02*
X8262143Y-12630714D01*
X8252619Y-12611667D01*
X8233571Y-12602143D01*
X8205000Y-12602143D01*
X8185952Y-12611667D01*
X8176428Y-12621190D01*
X8385952Y-12735476D02*
X8366905Y-12725952D01*
X8357381Y-12716428D01*
X8347857Y-12697381D01*
X8347857Y-12640238D01*
X8357381Y-12621190D01*
X8366905Y-12611667D01*
X8385952Y-12602143D01*
X8414524Y-12602143D01*
X8433571Y-12611667D01*
X8443095Y-12621190D01*
X8452619Y-12640238D01*
X8452619Y-12697381D01*
X8443095Y-12716428D01*
X8433571Y-12725952D01*
X8414524Y-12735476D01*
X8385952Y-12735476D01*
X8566905Y-12735476D02*
X8547857Y-12725952D01*
X8538333Y-12706905D01*
X8538333Y-12535476D01*
X8719286Y-12725952D02*
X8700238Y-12735476D01*
X8662143Y-12735476D01*
X8643095Y-12725952D01*
X8633571Y-12706905D01*
X8633571Y-12630714D01*
X8643095Y-12611667D01*
X8662143Y-12602143D01*
X8700238Y-12602143D01*
X8719286Y-12611667D01*
X8728810Y-12630714D01*
X8728810Y-12649762D01*
X8633571Y-12668809D01*
X8805000Y-12725952D02*
X8824048Y-12735476D01*
X8862143Y-12735476D01*
X8881190Y-12725952D01*
X8890714Y-12706905D01*
X8890714Y-12697381D01*
X8881190Y-12678333D01*
X8862143Y-12668809D01*
X8833571Y-12668809D01*
X8814524Y-12659286D01*
X8805000Y-12640238D01*
X8805000Y-12630714D01*
X8814524Y-12611667D01*
X8833571Y-12602143D01*
X8862143Y-12602143D01*
X8881190Y-12611667D01*
X8957381Y-12811667D02*
X8966905Y-12802143D01*
X8985952Y-12773571D01*
X8995476Y-12754524D01*
X9005000Y-12725952D01*
X9014524Y-12678333D01*
X9014524Y-12640238D01*
X9005000Y-12592619D01*
X8995476Y-12564048D01*
X8985952Y-12545000D01*
X8966905Y-12516428D01*
X8957381Y-12506905D01*
D13*
X3995000Y-12909000D02*
G75*
G03*
X3995000Y-12909000I-20000J0D01*
G01*
D11*
X4290714Y-12799476D02*
X4309762Y-12799476D01*
X4328810Y-12809000D01*
X4338333Y-12818524D01*
X4347857Y-12837571D01*
X4357381Y-12875667D01*
X4357381Y-12923286D01*
X4347857Y-12961381D01*
X4338333Y-12980428D01*
X4328810Y-12989952D01*
X4309762Y-12999476D01*
X4290714Y-12999476D01*
X4271667Y-12989952D01*
X4262143Y-12980428D01*
X4252619Y-12961381D01*
X4243095Y-12923286D01*
X4243095Y-12875667D01*
X4252619Y-12837571D01*
X4262143Y-12818524D01*
X4271667Y-12809000D01*
X4290714Y-12799476D01*
X4443095Y-12980428D02*
X4452619Y-12989952D01*
X4443095Y-12999476D01*
X4433571Y-12989952D01*
X4443095Y-12980428D01*
X4443095Y-12999476D01*
X4624048Y-12866143D02*
X4624048Y-12999476D01*
X4576429Y-12789952D02*
X4528810Y-12932809D01*
X4652619Y-12932809D01*
X4766905Y-12799476D02*
X4785952Y-12799476D01*
X4805000Y-12809000D01*
X4814524Y-12818524D01*
X4824048Y-12837571D01*
X4833571Y-12875667D01*
X4833571Y-12923286D01*
X4824048Y-12961381D01*
X4814524Y-12980428D01*
X4805000Y-12989952D01*
X4785952Y-12999476D01*
X4766905Y-12999476D01*
X4747857Y-12989952D01*
X4738333Y-12980428D01*
X4728810Y-12961381D01*
X4719286Y-12923286D01*
X4719286Y-12875667D01*
X4728810Y-12837571D01*
X4738333Y-12818524D01*
X4747857Y-12809000D01*
X4766905Y-12799476D01*
X4957381Y-12799476D02*
X4976429Y-12799476D01*
X4995476Y-12809000D01*
X5005000Y-12818524D01*
X5014524Y-12837571D01*
X5024048Y-12875667D01*
X5024048Y-12923286D01*
X5014524Y-12961381D01*
X5005000Y-12980428D01*
X4995476Y-12989952D01*
X4976429Y-12999476D01*
X4957381Y-12999476D01*
X4938333Y-12989952D01*
X4928810Y-12980428D01*
X4919286Y-12961381D01*
X4909762Y-12923286D01*
X4909762Y-12875667D01*
X4919286Y-12837571D01*
X4928810Y-12818524D01*
X4938333Y-12809000D01*
X4957381Y-12799476D01*
X5109762Y-12999476D02*
X5109762Y-12866143D01*
X5109762Y-12885190D02*
X5119286Y-12875667D01*
X5138333Y-12866143D01*
X5166905Y-12866143D01*
X5185952Y-12875667D01*
X5195476Y-12894714D01*
X5195476Y-12999476D01*
X5195476Y-12894714D02*
X5205000Y-12875667D01*
X5224048Y-12866143D01*
X5252619Y-12866143D01*
X5271667Y-12875667D01*
X5281190Y-12894714D01*
X5281190Y-12999476D01*
X5376429Y-12999476D02*
X5376429Y-12866143D01*
X5376429Y-12885190D02*
X5385952Y-12875667D01*
X5405000Y-12866143D01*
X5433571Y-12866143D01*
X5452619Y-12875667D01*
X5462143Y-12894714D01*
X5462143Y-12999476D01*
X5462143Y-12894714D02*
X5471667Y-12875667D01*
X5490714Y-12866143D01*
X5519286Y-12866143D01*
X5538333Y-12875667D01*
X5547857Y-12894714D01*
X5547857Y-12999476D01*
X5938333Y-12789952D02*
X5766905Y-13047095D01*
X6195476Y-12799476D02*
X6214524Y-12799476D01*
X6233571Y-12809000D01*
X6243095Y-12818524D01*
X6252619Y-12837571D01*
X6262143Y-12875667D01*
X6262143Y-12923286D01*
X6252619Y-12961381D01*
X6243095Y-12980428D01*
X6233571Y-12989952D01*
X6214524Y-12999476D01*
X6195476Y-12999476D01*
X6176428Y-12989952D01*
X6166905Y-12980428D01*
X6157381Y-12961381D01*
X6147857Y-12923286D01*
X6147857Y-12875667D01*
X6157381Y-12837571D01*
X6166905Y-12818524D01*
X6176428Y-12809000D01*
X6195476Y-12799476D01*
X6347857Y-12980428D02*
X6357381Y-12989952D01*
X6347857Y-12999476D01*
X6338333Y-12989952D01*
X6347857Y-12980428D01*
X6347857Y-12999476D01*
X6481190Y-12799476D02*
X6500238Y-12799476D01*
X6519286Y-12809000D01*
X6528809Y-12818524D01*
X6538333Y-12837571D01*
X6547857Y-12875667D01*
X6547857Y-12923286D01*
X6538333Y-12961381D01*
X6528809Y-12980428D01*
X6519286Y-12989952D01*
X6500238Y-12999476D01*
X6481190Y-12999476D01*
X6462143Y-12989952D01*
X6452619Y-12980428D01*
X6443095Y-12961381D01*
X6433571Y-12923286D01*
X6433571Y-12875667D01*
X6443095Y-12837571D01*
X6452619Y-12818524D01*
X6462143Y-12809000D01*
X6481190Y-12799476D01*
X6738333Y-12999476D02*
X6624048Y-12999476D01*
X6681190Y-12999476D02*
X6681190Y-12799476D01*
X6662143Y-12828048D01*
X6643095Y-12847095D01*
X6624048Y-12856619D01*
X6919286Y-12799476D02*
X6824048Y-12799476D01*
X6814524Y-12894714D01*
X6824048Y-12885190D01*
X6843095Y-12875667D01*
X6890714Y-12875667D01*
X6909762Y-12885190D01*
X6919286Y-12894714D01*
X6928809Y-12913762D01*
X6928809Y-12961381D01*
X6919286Y-12980428D01*
X6909762Y-12989952D01*
X6890714Y-12999476D01*
X6843095Y-12999476D01*
X6824048Y-12989952D01*
X6814524Y-12980428D01*
X6995476Y-12799476D02*
X7128809Y-12799476D01*
X7043095Y-12999476D01*
X7195476Y-12799476D02*
X7195476Y-12837571D01*
X7271667Y-12799476D02*
X7271667Y-12837571D01*
X7566905Y-13075667D02*
X7557381Y-13066143D01*
X7538333Y-13037571D01*
X7528809Y-13018524D01*
X7519286Y-12989952D01*
X7509762Y-12942333D01*
X7509762Y-12904238D01*
X7519286Y-12856619D01*
X7528809Y-12828048D01*
X7538333Y-12809000D01*
X7557381Y-12780428D01*
X7566905Y-12770905D01*
X7633571Y-12818524D02*
X7643095Y-12809000D01*
X7662143Y-12799476D01*
X7709762Y-12799476D01*
X7728809Y-12809000D01*
X7738333Y-12818524D01*
X7747857Y-12837571D01*
X7747857Y-12856619D01*
X7738333Y-12885190D01*
X7624048Y-12999476D01*
X7747857Y-12999476D01*
X7985952Y-12999476D02*
X7985952Y-12799476D01*
X8071667Y-12999476D02*
X8071667Y-12894714D01*
X8062143Y-12875667D01*
X8043095Y-12866143D01*
X8014524Y-12866143D01*
X7995476Y-12875667D01*
X7985952Y-12885190D01*
X8195476Y-12999476D02*
X8176428Y-12989952D01*
X8166905Y-12980428D01*
X8157381Y-12961381D01*
X8157381Y-12904238D01*
X8166905Y-12885190D01*
X8176428Y-12875667D01*
X8195476Y-12866143D01*
X8224048Y-12866143D01*
X8243095Y-12875667D01*
X8252619Y-12885190D01*
X8262143Y-12904238D01*
X8262143Y-12961381D01*
X8252619Y-12980428D01*
X8243095Y-12989952D01*
X8224048Y-12999476D01*
X8195476Y-12999476D01*
X8376428Y-12999476D02*
X8357381Y-12989952D01*
X8347857Y-12970905D01*
X8347857Y-12799476D01*
X8528810Y-12989952D02*
X8509762Y-12999476D01*
X8471667Y-12999476D01*
X8452619Y-12989952D01*
X8443095Y-12970905D01*
X8443095Y-12894714D01*
X8452619Y-12875667D01*
X8471667Y-12866143D01*
X8509762Y-12866143D01*
X8528810Y-12875667D01*
X8538333Y-12894714D01*
X8538333Y-12913762D01*
X8443095Y-12932809D01*
X8614524Y-12989952D02*
X8633571Y-12999476D01*
X8671667Y-12999476D01*
X8690714Y-12989952D01*
X8700238Y-12970905D01*
X8700238Y-12961381D01*
X8690714Y-12942333D01*
X8671667Y-12932809D01*
X8643095Y-12932809D01*
X8624048Y-12923286D01*
X8614524Y-12904238D01*
X8614524Y-12894714D01*
X8624048Y-12875667D01*
X8643095Y-12866143D01*
X8671667Y-12866143D01*
X8690714Y-12875667D01*
X8766905Y-13075667D02*
X8776429Y-13066143D01*
X8795476Y-13037571D01*
X8805000Y-13018524D01*
X8814524Y-12989952D01*
X8824048Y-12942333D01*
X8824048Y-12904238D01*
X8814524Y-12856619D01*
X8805000Y-12828048D01*
X8795476Y-12809000D01*
X8776429Y-12780428D01*
X8766905Y-12770905D01*
D14*
X3965000Y-13143000D02*
X3965000Y-13203000D01*
X3935000Y-13173000D02*
X3995000Y-13173000D01*
D11*
X4290714Y-13063476D02*
X4309762Y-13063476D01*
X4328810Y-13073000D01*
X4338333Y-13082524D01*
X4347857Y-13101571D01*
X4357381Y-13139667D01*
X4357381Y-13187286D01*
X4347857Y-13225381D01*
X4338333Y-13244428D01*
X4328810Y-13253952D01*
X4309762Y-13263476D01*
X4290714Y-13263476D01*
X4271667Y-13253952D01*
X4262143Y-13244428D01*
X4252619Y-13225381D01*
X4243095Y-13187286D01*
X4243095Y-13139667D01*
X4252619Y-13101571D01*
X4262143Y-13082524D01*
X4271667Y-13073000D01*
X4290714Y-13063476D01*
X4443095Y-13244428D02*
X4452619Y-13253952D01*
X4443095Y-13263476D01*
X4433571Y-13253952D01*
X4443095Y-13244428D01*
X4443095Y-13263476D01*
X4624048Y-13063476D02*
X4585952Y-13063476D01*
X4566905Y-13073000D01*
X4557381Y-13082524D01*
X4538333Y-13111095D01*
X4528810Y-13149190D01*
X4528810Y-13225381D01*
X4538333Y-13244428D01*
X4547857Y-13253952D01*
X4566905Y-13263476D01*
X4605000Y-13263476D01*
X4624048Y-13253952D01*
X4633571Y-13244428D01*
X4643095Y-13225381D01*
X4643095Y-13177762D01*
X4633571Y-13158714D01*
X4624048Y-13149190D01*
X4605000Y-13139667D01*
X4566905Y-13139667D01*
X4547857Y-13149190D01*
X4538333Y-13158714D01*
X4528810Y-13177762D01*
X4766905Y-13063476D02*
X4785952Y-13063476D01*
X4805000Y-13073000D01*
X4814524Y-13082524D01*
X4824048Y-13101571D01*
X4833571Y-13139667D01*
X4833571Y-13187286D01*
X4824048Y-13225381D01*
X4814524Y-13244428D01*
X4805000Y-13253952D01*
X4785952Y-13263476D01*
X4766905Y-13263476D01*
X4747857Y-13253952D01*
X4738333Y-13244428D01*
X4728810Y-13225381D01*
X4719286Y-13187286D01*
X4719286Y-13139667D01*
X4728810Y-13101571D01*
X4738333Y-13082524D01*
X4747857Y-13073000D01*
X4766905Y-13063476D01*
X4957381Y-13063476D02*
X4976429Y-13063476D01*
X4995476Y-13073000D01*
X5005000Y-13082524D01*
X5014524Y-13101571D01*
X5024048Y-13139667D01*
X5024048Y-13187286D01*
X5014524Y-13225381D01*
X5005000Y-13244428D01*
X4995476Y-13253952D01*
X4976429Y-13263476D01*
X4957381Y-13263476D01*
X4938333Y-13253952D01*
X4928810Y-13244428D01*
X4919286Y-13225381D01*
X4909762Y-13187286D01*
X4909762Y-13139667D01*
X4919286Y-13101571D01*
X4928810Y-13082524D01*
X4938333Y-13073000D01*
X4957381Y-13063476D01*
X5109762Y-13263476D02*
X5109762Y-13130143D01*
X5109762Y-13149190D02*
X5119286Y-13139667D01*
X5138333Y-13130143D01*
X5166905Y-13130143D01*
X5185952Y-13139667D01*
X5195476Y-13158714D01*
X5195476Y-13263476D01*
X5195476Y-13158714D02*
X5205000Y-13139667D01*
X5224048Y-13130143D01*
X5252619Y-13130143D01*
X5271667Y-13139667D01*
X5281190Y-13158714D01*
X5281190Y-13263476D01*
X5376429Y-13263476D02*
X5376429Y-13130143D01*
X5376429Y-13149190D02*
X5385952Y-13139667D01*
X5405000Y-13130143D01*
X5433571Y-13130143D01*
X5452619Y-13139667D01*
X5462143Y-13158714D01*
X5462143Y-13263476D01*
X5462143Y-13158714D02*
X5471667Y-13139667D01*
X5490714Y-13130143D01*
X5519286Y-13130143D01*
X5538333Y-13139667D01*
X5547857Y-13158714D01*
X5547857Y-13263476D01*
X5938333Y-13053952D02*
X5766905Y-13311095D01*
X6195476Y-13063476D02*
X6214524Y-13063476D01*
X6233571Y-13073000D01*
X6243095Y-13082524D01*
X6252619Y-13101571D01*
X6262143Y-13139667D01*
X6262143Y-13187286D01*
X6252619Y-13225381D01*
X6243095Y-13244428D01*
X6233571Y-13253952D01*
X6214524Y-13263476D01*
X6195476Y-13263476D01*
X6176428Y-13253952D01*
X6166905Y-13244428D01*
X6157381Y-13225381D01*
X6147857Y-13187286D01*
X6147857Y-13139667D01*
X6157381Y-13101571D01*
X6166905Y-13082524D01*
X6176428Y-13073000D01*
X6195476Y-13063476D01*
X6347857Y-13244428D02*
X6357381Y-13253952D01*
X6347857Y-13263476D01*
X6338333Y-13253952D01*
X6347857Y-13244428D01*
X6347857Y-13263476D01*
X6481190Y-13063476D02*
X6500238Y-13063476D01*
X6519286Y-13073000D01*
X6528809Y-13082524D01*
X6538333Y-13101571D01*
X6547857Y-13139667D01*
X6547857Y-13187286D01*
X6538333Y-13225381D01*
X6528809Y-13244428D01*
X6519286Y-13253952D01*
X6500238Y-13263476D01*
X6481190Y-13263476D01*
X6462143Y-13253952D01*
X6452619Y-13244428D01*
X6443095Y-13225381D01*
X6433571Y-13187286D01*
X6433571Y-13139667D01*
X6443095Y-13101571D01*
X6452619Y-13082524D01*
X6462143Y-13073000D01*
X6481190Y-13063476D01*
X6624048Y-13082524D02*
X6633571Y-13073000D01*
X6652619Y-13063476D01*
X6700238Y-13063476D01*
X6719286Y-13073000D01*
X6728809Y-13082524D01*
X6738333Y-13101571D01*
X6738333Y-13120619D01*
X6728809Y-13149190D01*
X6614524Y-13263476D01*
X6738333Y-13263476D01*
X6805000Y-13063476D02*
X6928809Y-13063476D01*
X6862143Y-13139667D01*
X6890714Y-13139667D01*
X6909762Y-13149190D01*
X6919286Y-13158714D01*
X6928809Y-13177762D01*
X6928809Y-13225381D01*
X6919286Y-13244428D01*
X6909762Y-13253952D01*
X6890714Y-13263476D01*
X6833571Y-13263476D01*
X6814524Y-13253952D01*
X6805000Y-13244428D01*
X7100238Y-13063476D02*
X7062143Y-13063476D01*
X7043095Y-13073000D01*
X7033571Y-13082524D01*
X7014524Y-13111095D01*
X7005000Y-13149190D01*
X7005000Y-13225381D01*
X7014524Y-13244428D01*
X7024048Y-13253952D01*
X7043095Y-13263476D01*
X7081190Y-13263476D01*
X7100238Y-13253952D01*
X7109762Y-13244428D01*
X7119286Y-13225381D01*
X7119286Y-13177762D01*
X7109762Y-13158714D01*
X7100238Y-13149190D01*
X7081190Y-13139667D01*
X7043095Y-13139667D01*
X7024048Y-13149190D01*
X7014524Y-13158714D01*
X7005000Y-13177762D01*
X7195476Y-13063476D02*
X7195476Y-13101571D01*
X7271667Y-13063476D02*
X7271667Y-13101571D01*
X7566905Y-13339667D02*
X7557381Y-13330143D01*
X7538333Y-13301571D01*
X7528809Y-13282524D01*
X7519286Y-13253952D01*
X7509762Y-13206333D01*
X7509762Y-13168238D01*
X7519286Y-13120619D01*
X7528809Y-13092048D01*
X7538333Y-13073000D01*
X7557381Y-13044428D01*
X7566905Y-13034905D01*
X7633571Y-13082524D02*
X7643095Y-13073000D01*
X7662143Y-13063476D01*
X7709762Y-13063476D01*
X7728809Y-13073000D01*
X7738333Y-13082524D01*
X7747857Y-13101571D01*
X7747857Y-13120619D01*
X7738333Y-13149190D01*
X7624048Y-13263476D01*
X7747857Y-13263476D01*
X7871667Y-13063476D02*
X7890714Y-13063476D01*
X7909762Y-13073000D01*
X7919286Y-13082524D01*
X7928809Y-13101571D01*
X7938333Y-13139667D01*
X7938333Y-13187286D01*
X7928809Y-13225381D01*
X7919286Y-13244428D01*
X7909762Y-13253952D01*
X7890714Y-13263476D01*
X7871667Y-13263476D01*
X7852619Y-13253952D01*
X7843095Y-13244428D01*
X7833571Y-13225381D01*
X7824048Y-13187286D01*
X7824048Y-13139667D01*
X7833571Y-13101571D01*
X7843095Y-13082524D01*
X7852619Y-13073000D01*
X7871667Y-13063476D01*
X8176428Y-13263476D02*
X8176428Y-13063476D01*
X8262143Y-13263476D02*
X8262143Y-13158714D01*
X8252619Y-13139667D01*
X8233571Y-13130143D01*
X8205000Y-13130143D01*
X8185952Y-13139667D01*
X8176428Y-13149190D01*
X8385952Y-13263476D02*
X8366905Y-13253952D01*
X8357381Y-13244428D01*
X8347857Y-13225381D01*
X8347857Y-13168238D01*
X8357381Y-13149190D01*
X8366905Y-13139667D01*
X8385952Y-13130143D01*
X8414524Y-13130143D01*
X8433571Y-13139667D01*
X8443095Y-13149190D01*
X8452619Y-13168238D01*
X8452619Y-13225381D01*
X8443095Y-13244428D01*
X8433571Y-13253952D01*
X8414524Y-13263476D01*
X8385952Y-13263476D01*
X8566905Y-13263476D02*
X8547857Y-13253952D01*
X8538333Y-13234905D01*
X8538333Y-13063476D01*
X8719286Y-13253952D02*
X8700238Y-13263476D01*
X8662143Y-13263476D01*
X8643095Y-13253952D01*
X8633571Y-13234905D01*
X8633571Y-13158714D01*
X8643095Y-13139667D01*
X8662143Y-13130143D01*
X8700238Y-13130143D01*
X8719286Y-13139667D01*
X8728810Y-13158714D01*
X8728810Y-13177762D01*
X8633571Y-13196809D01*
X8805000Y-13253952D02*
X8824048Y-13263476D01*
X8862143Y-13263476D01*
X8881190Y-13253952D01*
X8890714Y-13234905D01*
X8890714Y-13225381D01*
X8881190Y-13206333D01*
X8862143Y-13196809D01*
X8833571Y-13196809D01*
X8814524Y-13187286D01*
X8805000Y-13168238D01*
X8805000Y-13158714D01*
X8814524Y-13139667D01*
X8833571Y-13130143D01*
X8862143Y-13130143D01*
X8881190Y-13139667D01*
X8957381Y-13339667D02*
X8966905Y-13330143D01*
X8985952Y-13301571D01*
X8995476Y-13282524D01*
X9005000Y-13253952D01*
X9014524Y-13206333D01*
X9014524Y-13168238D01*
X9005000Y-13120619D01*
X8995476Y-13092048D01*
X8985952Y-13073000D01*
X8966905Y-13044428D01*
X8957381Y-13034905D01*
D15*
X3980356Y-13472356D02*
X3980356Y-13401644D01*
X3909644Y-13401644D01*
X3909644Y-13472356D01*
X3980356Y-13472356D01*
D11*
X4357381Y-13527476D02*
X4243095Y-13527476D01*
X4300238Y-13527476D02*
X4300238Y-13327476D01*
X4281190Y-13356048D01*
X4262143Y-13375095D01*
X4243095Y-13384619D01*
X4443095Y-13508428D02*
X4452619Y-13517952D01*
X4443095Y-13527476D01*
X4433571Y-13517952D01*
X4443095Y-13508428D01*
X4443095Y-13527476D01*
X4576429Y-13327476D02*
X4595476Y-13327476D01*
X4614524Y-13337000D01*
X4624048Y-13346524D01*
X4633571Y-13365571D01*
X4643095Y-13403667D01*
X4643095Y-13451286D01*
X4633571Y-13489381D01*
X4624048Y-13508428D01*
X4614524Y-13517952D01*
X4595476Y-13527476D01*
X4576429Y-13527476D01*
X4557381Y-13517952D01*
X4547857Y-13508428D01*
X4538333Y-13489381D01*
X4528810Y-13451286D01*
X4528810Y-13403667D01*
X4538333Y-13365571D01*
X4547857Y-13346524D01*
X4557381Y-13337000D01*
X4576429Y-13327476D01*
X4766905Y-13327476D02*
X4785952Y-13327476D01*
X4805000Y-13337000D01*
X4814524Y-13346524D01*
X4824048Y-13365571D01*
X4833571Y-13403667D01*
X4833571Y-13451286D01*
X4824048Y-13489381D01*
X4814524Y-13508428D01*
X4805000Y-13517952D01*
X4785952Y-13527476D01*
X4766905Y-13527476D01*
X4747857Y-13517952D01*
X4738333Y-13508428D01*
X4728810Y-13489381D01*
X4719286Y-13451286D01*
X4719286Y-13403667D01*
X4728810Y-13365571D01*
X4738333Y-13346524D01*
X4747857Y-13337000D01*
X4766905Y-13327476D01*
X4957381Y-13327476D02*
X4976429Y-13327476D01*
X4995476Y-13337000D01*
X5005000Y-13346524D01*
X5014524Y-13365571D01*
X5024048Y-13403667D01*
X5024048Y-13451286D01*
X5014524Y-13489381D01*
X5005000Y-13508428D01*
X4995476Y-13517952D01*
X4976429Y-13527476D01*
X4957381Y-13527476D01*
X4938333Y-13517952D01*
X4928810Y-13508428D01*
X4919286Y-13489381D01*
X4909762Y-13451286D01*
X4909762Y-13403667D01*
X4919286Y-13365571D01*
X4928810Y-13346524D01*
X4938333Y-13337000D01*
X4957381Y-13327476D01*
X5109762Y-13527476D02*
X5109762Y-13394143D01*
X5109762Y-13413190D02*
X5119286Y-13403667D01*
X5138333Y-13394143D01*
X5166905Y-13394143D01*
X5185952Y-13403667D01*
X5195476Y-13422714D01*
X5195476Y-13527476D01*
X5195476Y-13422714D02*
X5205000Y-13403667D01*
X5224048Y-13394143D01*
X5252619Y-13394143D01*
X5271667Y-13403667D01*
X5281190Y-13422714D01*
X5281190Y-13527476D01*
X5376429Y-13527476D02*
X5376429Y-13394143D01*
X5376429Y-13413190D02*
X5385952Y-13403667D01*
X5405000Y-13394143D01*
X5433571Y-13394143D01*
X5452619Y-13403667D01*
X5462143Y-13422714D01*
X5462143Y-13527476D01*
X5462143Y-13422714D02*
X5471667Y-13403667D01*
X5490714Y-13394143D01*
X5519286Y-13394143D01*
X5538333Y-13403667D01*
X5547857Y-13422714D01*
X5547857Y-13527476D01*
X5938333Y-13317952D02*
X5766905Y-13575095D01*
X6195476Y-13327476D02*
X6214524Y-13327476D01*
X6233571Y-13337000D01*
X6243095Y-13346524D01*
X6252619Y-13365571D01*
X6262143Y-13403667D01*
X6262143Y-13451286D01*
X6252619Y-13489381D01*
X6243095Y-13508428D01*
X6233571Y-13517952D01*
X6214524Y-13527476D01*
X6195476Y-13527476D01*
X6176428Y-13517952D01*
X6166905Y-13508428D01*
X6157381Y-13489381D01*
X6147857Y-13451286D01*
X6147857Y-13403667D01*
X6157381Y-13365571D01*
X6166905Y-13346524D01*
X6176428Y-13337000D01*
X6195476Y-13327476D01*
X6347857Y-13508428D02*
X6357381Y-13517952D01*
X6347857Y-13527476D01*
X6338333Y-13517952D01*
X6347857Y-13508428D01*
X6347857Y-13527476D01*
X6481190Y-13327476D02*
X6500238Y-13327476D01*
X6519286Y-13337000D01*
X6528809Y-13346524D01*
X6538333Y-13365571D01*
X6547857Y-13403667D01*
X6547857Y-13451286D01*
X6538333Y-13489381D01*
X6528809Y-13508428D01*
X6519286Y-13517952D01*
X6500238Y-13527476D01*
X6481190Y-13527476D01*
X6462143Y-13517952D01*
X6452619Y-13508428D01*
X6443095Y-13489381D01*
X6433571Y-13451286D01*
X6433571Y-13403667D01*
X6443095Y-13365571D01*
X6452619Y-13346524D01*
X6462143Y-13337000D01*
X6481190Y-13327476D01*
X6614524Y-13327476D02*
X6738333Y-13327476D01*
X6671667Y-13403667D01*
X6700238Y-13403667D01*
X6719286Y-13413190D01*
X6728809Y-13422714D01*
X6738333Y-13441762D01*
X6738333Y-13489381D01*
X6728809Y-13508428D01*
X6719286Y-13517952D01*
X6700238Y-13527476D01*
X6643095Y-13527476D01*
X6624048Y-13517952D01*
X6614524Y-13508428D01*
X6833571Y-13527476D02*
X6871667Y-13527476D01*
X6890714Y-13517952D01*
X6900238Y-13508428D01*
X6919286Y-13479857D01*
X6928809Y-13441762D01*
X6928809Y-13365571D01*
X6919286Y-13346524D01*
X6909762Y-13337000D01*
X6890714Y-13327476D01*
X6852619Y-13327476D01*
X6833571Y-13337000D01*
X6824048Y-13346524D01*
X6814524Y-13365571D01*
X6814524Y-13413190D01*
X6824048Y-13432238D01*
X6833571Y-13441762D01*
X6852619Y-13451286D01*
X6890714Y-13451286D01*
X6909762Y-13441762D01*
X6919286Y-13432238D01*
X6928809Y-13413190D01*
X7100238Y-13394143D02*
X7100238Y-13527476D01*
X7052619Y-13317952D02*
X7005000Y-13460809D01*
X7128809Y-13460809D01*
X7195476Y-13327476D02*
X7195476Y-13365571D01*
X7271667Y-13327476D02*
X7271667Y-13365571D01*
X7566905Y-13603667D02*
X7557381Y-13594143D01*
X7538333Y-13565571D01*
X7528809Y-13546524D01*
X7519286Y-13517952D01*
X7509762Y-13470333D01*
X7509762Y-13432238D01*
X7519286Y-13384619D01*
X7528809Y-13356048D01*
X7538333Y-13337000D01*
X7557381Y-13308428D01*
X7566905Y-13298905D01*
X7633571Y-13346524D02*
X7643095Y-13337000D01*
X7662143Y-13327476D01*
X7709762Y-13327476D01*
X7728809Y-13337000D01*
X7738333Y-13346524D01*
X7747857Y-13365571D01*
X7747857Y-13384619D01*
X7738333Y-13413190D01*
X7624048Y-13527476D01*
X7747857Y-13527476D01*
X7862143Y-13413190D02*
X7843095Y-13403667D01*
X7833571Y-13394143D01*
X7824048Y-13375095D01*
X7824048Y-13365571D01*
X7833571Y-13346524D01*
X7843095Y-13337000D01*
X7862143Y-13327476D01*
X7900238Y-13327476D01*
X7919286Y-13337000D01*
X7928809Y-13346524D01*
X7938333Y-13365571D01*
X7938333Y-13375095D01*
X7928809Y-13394143D01*
X7919286Y-13403667D01*
X7900238Y-13413190D01*
X7862143Y-13413190D01*
X7843095Y-13422714D01*
X7833571Y-13432238D01*
X7824048Y-13451286D01*
X7824048Y-13489381D01*
X7833571Y-13508428D01*
X7843095Y-13517952D01*
X7862143Y-13527476D01*
X7900238Y-13527476D01*
X7919286Y-13517952D01*
X7928809Y-13508428D01*
X7938333Y-13489381D01*
X7938333Y-13451286D01*
X7928809Y-13432238D01*
X7919286Y-13422714D01*
X7900238Y-13413190D01*
X8176428Y-13527476D02*
X8176428Y-13327476D01*
X8262143Y-13527476D02*
X8262143Y-13422714D01*
X8252619Y-13403667D01*
X8233571Y-13394143D01*
X8205000Y-13394143D01*
X8185952Y-13403667D01*
X8176428Y-13413190D01*
X8385952Y-13527476D02*
X8366905Y-13517952D01*
X8357381Y-13508428D01*
X8347857Y-13489381D01*
X8347857Y-13432238D01*
X8357381Y-13413190D01*
X8366905Y-13403667D01*
X8385952Y-13394143D01*
X8414524Y-13394143D01*
X8433571Y-13403667D01*
X8443095Y-13413190D01*
X8452619Y-13432238D01*
X8452619Y-13489381D01*
X8443095Y-13508428D01*
X8433571Y-13517952D01*
X8414524Y-13527476D01*
X8385952Y-13527476D01*
X8566905Y-13527476D02*
X8547857Y-13517952D01*
X8538333Y-13498905D01*
X8538333Y-13327476D01*
X8719286Y-13517952D02*
X8700238Y-13527476D01*
X8662143Y-13527476D01*
X8643095Y-13517952D01*
X8633571Y-13498905D01*
X8633571Y-13422714D01*
X8643095Y-13403667D01*
X8662143Y-13394143D01*
X8700238Y-13394143D01*
X8719286Y-13403667D01*
X8728810Y-13422714D01*
X8728810Y-13441762D01*
X8633571Y-13460809D01*
X8805000Y-13517952D02*
X8824048Y-13527476D01*
X8862143Y-13527476D01*
X8881190Y-13517952D01*
X8890714Y-13498905D01*
X8890714Y-13489381D01*
X8881190Y-13470333D01*
X8862143Y-13460809D01*
X8833571Y-13460809D01*
X8814524Y-13451286D01*
X8805000Y-13432238D01*
X8805000Y-13422714D01*
X8814524Y-13403667D01*
X8833571Y-13394143D01*
X8862143Y-13394143D01*
X8881190Y-13403667D01*
X8957381Y-13603667D02*
X8966905Y-13594143D01*
X8985952Y-13565571D01*
X8995476Y-13546524D01*
X9005000Y-13517952D01*
X9014524Y-13470333D01*
X9014524Y-13432238D01*
X9005000Y-13384619D01*
X8995476Y-13356048D01*
X8985952Y-13337000D01*
X8966905Y-13308428D01*
X8957381Y-13298905D01*
X3895000Y-13801000D02*
X3995000Y-13701000D01*
X3895000Y-13601000D01*
X3795000Y-13701000D01*
X3895000Y-13801000D01*
X4243095Y-13610524D02*
X4252619Y-13601000D01*
X4271667Y-13591476D01*
X4319286Y-13591476D01*
X4338333Y-13601000D01*
X4347857Y-13610524D01*
X4357381Y-13629571D01*
X4357381Y-13648619D01*
X4347857Y-13677190D01*
X4233571Y-13791476D01*
X4357381Y-13791476D01*
X4443095Y-13772428D02*
X4452619Y-13781952D01*
X4443095Y-13791476D01*
X4433571Y-13781952D01*
X4443095Y-13772428D01*
X4443095Y-13791476D01*
X4624048Y-13658143D02*
X4624048Y-13791476D01*
X4576429Y-13581952D02*
X4528810Y-13724809D01*
X4652619Y-13724809D01*
X4766905Y-13591476D02*
X4785952Y-13591476D01*
X4805000Y-13601000D01*
X4814524Y-13610524D01*
X4824048Y-13629571D01*
X4833571Y-13667667D01*
X4833571Y-13715286D01*
X4824048Y-13753381D01*
X4814524Y-13772428D01*
X4805000Y-13781952D01*
X4785952Y-13791476D01*
X4766905Y-13791476D01*
X4747857Y-13781952D01*
X4738333Y-13772428D01*
X4728810Y-13753381D01*
X4719286Y-13715286D01*
X4719286Y-13667667D01*
X4728810Y-13629571D01*
X4738333Y-13610524D01*
X4747857Y-13601000D01*
X4766905Y-13591476D01*
X4957381Y-13591476D02*
X4976429Y-13591476D01*
X4995476Y-13601000D01*
X5005000Y-13610524D01*
X5014524Y-13629571D01*
X5024048Y-13667667D01*
X5024048Y-13715286D01*
X5014524Y-13753381D01*
X5005000Y-13772428D01*
X4995476Y-13781952D01*
X4976429Y-13791476D01*
X4957381Y-13791476D01*
X4938333Y-13781952D01*
X4928810Y-13772428D01*
X4919286Y-13753381D01*
X4909762Y-13715286D01*
X4909762Y-13667667D01*
X4919286Y-13629571D01*
X4928810Y-13610524D01*
X4938333Y-13601000D01*
X4957381Y-13591476D01*
X5109762Y-13791476D02*
X5109762Y-13658143D01*
X5109762Y-13677190D02*
X5119286Y-13667667D01*
X5138333Y-13658143D01*
X5166905Y-13658143D01*
X5185952Y-13667667D01*
X5195476Y-13686714D01*
X5195476Y-13791476D01*
X5195476Y-13686714D02*
X5205000Y-13667667D01*
X5224048Y-13658143D01*
X5252619Y-13658143D01*
X5271667Y-13667667D01*
X5281190Y-13686714D01*
X5281190Y-13791476D01*
X5376429Y-13791476D02*
X5376429Y-13658143D01*
X5376429Y-13677190D02*
X5385952Y-13667667D01*
X5405000Y-13658143D01*
X5433571Y-13658143D01*
X5452619Y-13667667D01*
X5462143Y-13686714D01*
X5462143Y-13791476D01*
X5462143Y-13686714D02*
X5471667Y-13667667D01*
X5490714Y-13658143D01*
X5519286Y-13658143D01*
X5538333Y-13667667D01*
X5547857Y-13686714D01*
X5547857Y-13791476D01*
X5938333Y-13581952D02*
X5766905Y-13839095D01*
X6195476Y-13591476D02*
X6214524Y-13591476D01*
X6233571Y-13601000D01*
X6243095Y-13610524D01*
X6252619Y-13629571D01*
X6262143Y-13667667D01*
X6262143Y-13715286D01*
X6252619Y-13753381D01*
X6243095Y-13772428D01*
X6233571Y-13781952D01*
X6214524Y-13791476D01*
X6195476Y-13791476D01*
X6176428Y-13781952D01*
X6166905Y-13772428D01*
X6157381Y-13753381D01*
X6147857Y-13715286D01*
X6147857Y-13667667D01*
X6157381Y-13629571D01*
X6166905Y-13610524D01*
X6176428Y-13601000D01*
X6195476Y-13591476D01*
X6347857Y-13772428D02*
X6357381Y-13781952D01*
X6347857Y-13791476D01*
X6338333Y-13781952D01*
X6347857Y-13772428D01*
X6347857Y-13791476D01*
X6481190Y-13591476D02*
X6500238Y-13591476D01*
X6519286Y-13601000D01*
X6528809Y-13610524D01*
X6538333Y-13629571D01*
X6547857Y-13667667D01*
X6547857Y-13715286D01*
X6538333Y-13753381D01*
X6528809Y-13772428D01*
X6519286Y-13781952D01*
X6500238Y-13791476D01*
X6481190Y-13791476D01*
X6462143Y-13781952D01*
X6452619Y-13772428D01*
X6443095Y-13753381D01*
X6433571Y-13715286D01*
X6433571Y-13667667D01*
X6443095Y-13629571D01*
X6452619Y-13610524D01*
X6462143Y-13601000D01*
X6481190Y-13591476D01*
X6643095Y-13791476D02*
X6681190Y-13791476D01*
X6700238Y-13781952D01*
X6709762Y-13772428D01*
X6728809Y-13743857D01*
X6738333Y-13705762D01*
X6738333Y-13629571D01*
X6728809Y-13610524D01*
X6719286Y-13601000D01*
X6700238Y-13591476D01*
X6662143Y-13591476D01*
X6643095Y-13601000D01*
X6633571Y-13610524D01*
X6624048Y-13629571D01*
X6624048Y-13677190D01*
X6633571Y-13696238D01*
X6643095Y-13705762D01*
X6662143Y-13715286D01*
X6700238Y-13715286D01*
X6719286Y-13705762D01*
X6728809Y-13696238D01*
X6738333Y-13677190D01*
X6909762Y-13658143D02*
X6909762Y-13791476D01*
X6862143Y-13581952D02*
X6814524Y-13724809D01*
X6938333Y-13724809D01*
X7109762Y-13591476D02*
X7014524Y-13591476D01*
X7005000Y-13686714D01*
X7014524Y-13677190D01*
X7033571Y-13667667D01*
X7081190Y-13667667D01*
X7100238Y-13677190D01*
X7109762Y-13686714D01*
X7119286Y-13705762D01*
X7119286Y-13753381D01*
X7109762Y-13772428D01*
X7100238Y-13781952D01*
X7081190Y-13791476D01*
X7033571Y-13791476D01*
X7014524Y-13781952D01*
X7005000Y-13772428D01*
X7195476Y-13591476D02*
X7195476Y-13629571D01*
X7271667Y-13591476D02*
X7271667Y-13629571D01*
X7566905Y-13867667D02*
X7557381Y-13858143D01*
X7538333Y-13829571D01*
X7528809Y-13810524D01*
X7519286Y-13781952D01*
X7509762Y-13734333D01*
X7509762Y-13696238D01*
X7519286Y-13648619D01*
X7528809Y-13620048D01*
X7538333Y-13601000D01*
X7557381Y-13572428D01*
X7566905Y-13562905D01*
X7633571Y-13610524D02*
X7643095Y-13601000D01*
X7662143Y-13591476D01*
X7709762Y-13591476D01*
X7728809Y-13601000D01*
X7738333Y-13610524D01*
X7747857Y-13629571D01*
X7747857Y-13648619D01*
X7738333Y-13677190D01*
X7624048Y-13791476D01*
X7747857Y-13791476D01*
X7985952Y-13791476D02*
X7985952Y-13591476D01*
X8071667Y-13791476D02*
X8071667Y-13686714D01*
X8062143Y-13667667D01*
X8043095Y-13658143D01*
X8014524Y-13658143D01*
X7995476Y-13667667D01*
X7985952Y-13677190D01*
X8195476Y-13791476D02*
X8176428Y-13781952D01*
X8166905Y-13772428D01*
X8157381Y-13753381D01*
X8157381Y-13696238D01*
X8166905Y-13677190D01*
X8176428Y-13667667D01*
X8195476Y-13658143D01*
X8224048Y-13658143D01*
X8243095Y-13667667D01*
X8252619Y-13677190D01*
X8262143Y-13696238D01*
X8262143Y-13753381D01*
X8252619Y-13772428D01*
X8243095Y-13781952D01*
X8224048Y-13791476D01*
X8195476Y-13791476D01*
X8376428Y-13791476D02*
X8357381Y-13781952D01*
X8347857Y-13762905D01*
X8347857Y-13591476D01*
X8528810Y-13781952D02*
X8509762Y-13791476D01*
X8471667Y-13791476D01*
X8452619Y-13781952D01*
X8443095Y-13762905D01*
X8443095Y-13686714D01*
X8452619Y-13667667D01*
X8471667Y-13658143D01*
X8509762Y-13658143D01*
X8528810Y-13667667D01*
X8538333Y-13686714D01*
X8538333Y-13705762D01*
X8443095Y-13724809D01*
X8614524Y-13781952D02*
X8633571Y-13791476D01*
X8671667Y-13791476D01*
X8690714Y-13781952D01*
X8700238Y-13762905D01*
X8700238Y-13753381D01*
X8690714Y-13734333D01*
X8671667Y-13724809D01*
X8643095Y-13724809D01*
X8624048Y-13715286D01*
X8614524Y-13696238D01*
X8614524Y-13686714D01*
X8624048Y-13667667D01*
X8643095Y-13658143D01*
X8671667Y-13658143D01*
X8690714Y-13667667D01*
X8766905Y-13867667D02*
X8776429Y-13858143D01*
X8795476Y-13829571D01*
X8805000Y-13810524D01*
X8814524Y-13781952D01*
X8824048Y-13734333D01*
X8824048Y-13696238D01*
X8814524Y-13648619D01*
X8805000Y-13620048D01*
X8795476Y-13601000D01*
X8776429Y-13572428D01*
X8766905Y-13562905D01*
M02*
